<svg xmlns="http://www.w3.org/2000/svg" viewBox="0 0 500 500"><defs><style>.cls-1,.cls-2{fill:#a2b1ba;}.cls-1{opacity:0.19;}</style></defs><g id="resources"><circle class="cls-1" cx="250" cy="250" r="167.19"/><path class="cls-2" d="M250,50C139.54,50,50,139.54,50,250s89.54,200,200,200,200-89.53,200-200S360.47,50,250,50Zm0,385.49C147.55,435.49,64.51,352.44,64.51,250A185.48,185.48,0,0,1,250,64.51c102.44,0,185.49,83,185.49,185.49S352.44,435.49,250,435.49Z"/><path class="cls-2" d="M330.62,246.88l.4-1.51,4.48-16.74a31.51,31.51,0,0,0,11.14-3.74,32.55,32.55,0,0,0,11.74-44,31.7,31.7,0,0,0-9.11-9.59,2.14,2.14,0,0,0-3.3,1.22l-6.22,23.12a8.64,8.64,0,0,1-16.69-4.45l6.42-23.06a2.17,2.17,0,0,0-2.27-2.75,31.86,31.86,0,0,0-12.66,3.92,32.57,32.57,0,0,0-11.74,44,31.26,31.26,0,0,0,7.75,8.76l-6.28,23.33-.4,1.51H259l-.08-1.51-3.25-60,.76,0-.24-4.6a2.17,2.17,0,0,1,0-.58,7.28,7.28,0,0,1,2.7-4.16,11.42,11.42,0,0,1,4.59-1.93c3.85-.81,8.37-.57,12.28-.23,5.55.5,11.6,1.47,17.46,2.42l8,1.28-1.64-3.79c-4-9.23-8.13-15.62-12.94-20.11-8.22-7.68-17.78-10.89-30.15-10.15l-25.48,1.38.24,4.59a2.4,2.4,0,0,1-2.25,2.52l-14,.75a2.42,2.42,0,0,1-2.52-2.26l-.24-4.59-13.81.74,2.24,41.72,13.82-.74-.24-4.59a2.37,2.37,0,0,1,2.24-2.52l14-.75A2.39,2.39,0,0,1,233.1,182l.24,4.59,1.54-.09,3.18,58.87.08,1.51H187.82l-.16-1.51-2.42-23.16a8.07,8.07,0,0,0-3-5.46,7.54,7.54,0,0,0-1.87-1.15l-4.52-44.5a10.79,10.79,0,0,1,2.44-2.29l1.36-.94L174.59,139a3.89,3.89,0,0,0-4.22-3.19l-9.81,1a3.91,3.91,0,0,0-3.51,4l.83,29.24,1.39.69a13.6,13.6,0,0,1,3,2l4.42,44.1a8,8,0,0,0-3.89,7.73l2.11,20.92.15,1.51h-29.3v99.66c0,9.78,8.45,17.71,18.85,17.71H345.38c10.39,0,18.85-7.93,18.85-17.71V246.88Zm-21.86-1.51,6.76-25.09-1.24-.86a27.07,27.07,0,0,1-7.73-8.33,28.18,28.18,0,0,1,10.14-38,27.26,27.26,0,0,1,7.73-2.88L318.88,190A13,13,0,0,0,344,196.75l5.35-20a26.29,26.29,0,0,1,5.35,6.31,28.21,28.21,0,0,1-10.15,38,27.49,27.49,0,0,1-10.9,3.35l-1.51.13-5.56,20.75-.41,1.51H308.36Zm-66.09,1.51-.08-1.51-3.2-59.11,11.78-.64,3.23,59.75.08,1.51H242.67Zm-5.06-65.07v-.06a6.92,6.92,0,0,0-7.27-6.53l-14,.75a6.94,6.94,0,0,0-6.53,7.28l-4.76.32-1.77-32.68,4.77-.26v.08a6.92,6.92,0,0,0,7.27,6.53l14-.75a6.93,6.93,0,0,0,6.53-7.29L256.91,148c11-.68,19.49,2.17,26.73,8.93,3.68,3.44,6.93,8.19,10.13,14.81-5.86-.94-11.91-1.92-17.55-2.42-4.25-.36-9.2-.63-13.62.31a15.62,15.62,0,0,0-6.36,2.74,11.76,11.76,0,0,0-4.44,6.88,9.16,9.16,0,0,0-.12,1.73l-10.31.61Zm-72.48-13.59a15.43,15.43,0,0,0-2.15-1.46L162.31,143a1.31,1.31,0,0,1,1.18-1.32l5-.5a1.29,1.29,0,0,1,1.42,1L174,165.58c-1.71,1.4-3.53,3.48-3.31,5.72l4.35,42.92-3.34.34-4.32-42.95A5.48,5.48,0,0,0,165.13,168.22Zm4.42,77.15L167.4,224a3.44,3.44,0,0,1,3.06-3.77l6.39-.65a3.54,3.54,0,0,1,3.79,3.07L183,245.37l.16,1.51H169.71ZM356.69,346.54c0,5.87-5.07,10.63-11.31,10.63H154.62c-6.24,0-11.31-4.76-11.31-10.63V279.32l18.88-.2,5.22-.06,25-.27,5.22-.05,42.26-.44,4.52-.06,11.81-.13,4.52,0,34.75-.37,4.49,0,17.86-.2,4.49,0,34.39-.37Zm0-76.58-32.35.34-4.51.06-17.84.18-4.49,0-37.19.39-4.53.06-11.8.13-4.53,0-42.59.45-5.21.06-25,.27-5.22,0-18.11.2V254H356.69Z"/></g></svg>