<svg id="Layer_1" data-name="Layer 1" xmlns="http://www.w3.org/2000/svg" viewBox="0 0 500 500"><defs><style>.cls-1{fill:#2d98d4;}</style></defs><title>activealerts</title><path class="cls-1" d="M260.07,455.94c-110.28,0-200-89.72-200-200s89.73-200,200-200,200,89.72,200,200S370.35,455.94,260.07,455.94Zm0-391.28c-105.48,0-191.29,85.81-191.29,191.28s85.81,191.28,191.29,191.28,191.27-85.81,191.27-191.28S365.54,64.66,260.07,64.66Z"/><path class="cls-1" d="M288.71,149,201.09,262.18l53.46,14.33-23.14,86.35L319,249.69l-53.46-14.33Zm19.73,104L244.58,335.1,260,277.5l1.54-5.75-5.75-1.54-44.41-11.88,63.86-82.07-15.43,57.56-1.54,5.76,5.76,1.54"/></svg>