<svg id="Layer_1" data-name="Layer 1" xmlns="http://www.w3.org/2000/svg" viewBox="0 0 500 500"><defs><style>.cls-1{fill:#2d98d4;}</style></defs><title>buildingsatrisk</title><path class="cls-1" d="M226.73,177.08l-5.8-10.92-18.39-34.65-3.45-6.46-3.9-7.35-5.34-10,0,0-1.85-3.4s0,0,0-.09L182.55,94l-20-37.54a12.17,12.17,0,0,0-21.5,0L77,177.08A11.89,11.89,0,0,0,77.22,189a12.11,12.11,0,0,0,10.5,6H216a11.54,11.54,0,0,0,5.72-1.43,11.27,11.27,0,0,0,4.74-4.45A12.16,12.16,0,0,0,226.73,177.08Zm-5,7a10.39,10.39,0,0,1-.68,1.72,5.89,5.89,0,0,1-5,2.82H87.72a5.76,5.76,0,0,1-5-2.82,5.67,5.67,0,0,1-.17-5.75L146.68,59.45a5.71,5.71,0,0,1,5-3.07h.21A5.73,5.73,0,0,1,157,59.45l24.74,46.49,3,5.75s0,.09.08.09l7,13.27,3.44,6.46,18.23,34.23,3.48,6.55,4.12,7.77a4.21,4.21,0,0,1,.59,1.72A4.88,4.88,0,0,1,221.69,184.09Z"/><path class="cls-1" d="M151.8,81a10.55,10.55,0,0,0-10.49,10.58v49.85A10.55,10.55,0,0,0,151.8,152a8.07,8.07,0,0,0,2-.21,10.6,10.6,0,0,0,8.61-10.38V91.53A10.6,10.6,0,0,0,151.8,81Zm4.25,60.43a4.21,4.21,0,0,1-2.27,3.7,4,4,0,0,1-2,.54,4.24,4.24,0,0,1-4.19-4.24V91.53a4.22,4.22,0,1,1,8.44,0Z"/><path class="cls-1" d="M160.29,158.73a10.87,10.87,0,0,0-6.51-3.61,7.61,7.61,0,0,0-2-.21,11.4,11.4,0,0,0,0,22.8,9.86,9.86,0,0,0,2-.17,10.92,10.92,0,0,0,6.09-3.19,1.52,1.52,0,0,0,.42-.46,11.27,11.27,0,0,0,2.94-7.6A11,11,0,0,0,160.29,158.73Zm-4.87,11.17a4.88,4.88,0,0,1-1.64,1.13,6.11,6.11,0,0,1-2,.38,5.08,5.08,0,1,1,2-9.74,5.12,5.12,0,0,1,1.64,8.23Z"/><path class="cls-1" d="M405.83,126.12H218.24l3.82,7.18H405.77a11.54,11.54,0,0,1,11.48,11.48V307h-234V215.22H176v99.07H424.5V144.78A18.73,18.73,0,0,0,405.83,126.12Z"/><path class="cls-1" d="M315.34,171.33H285.2A11.18,11.18,0,0,0,274,182.46v60.35a11.14,11.14,0,0,0,11.19,11.13h30.14a11.13,11.13,0,0,0,11.13-11.13V182.46A11.18,11.18,0,0,0,315.34,171.33Zm3.94,71.48a3.94,3.94,0,0,1-3.94,3.89H285.2a3.94,3.94,0,0,1-3.95-3.89V182.46a3.94,3.94,0,0,1,3.95-3.88h30.14a3.94,3.94,0,0,1,3.94,3.88Z"/><path class="cls-1" d="M383.17,171.33H353a11.18,11.18,0,0,0-11.13,11.13v60.35A11.13,11.13,0,0,0,353,253.94h30.2a11.2,11.2,0,0,0,11.13-11.13V182.46A11.25,11.25,0,0,0,383.17,171.33Zm3.94,71.48a3.9,3.9,0,0,1-3.94,3.89H353a3.89,3.89,0,0,1-3.88-3.89V182.46a3.88,3.88,0,0,1,3.88-3.88h30.15a3.9,3.9,0,0,1,3.94,3.88Z"/><path class="cls-1" d="M250.59,171.8a11.07,11.07,0,0,0-3.13-.47H242.3l3.88,7.25h1.28a3.94,3.94,0,0,1,3.94,3.88v60.35a3.94,3.94,0,0,1-3.94,3.89H217.31a3.89,3.89,0,0,1-3.88-3.89V215.22h-7.25v27.59a11.13,11.13,0,0,0,11.13,11.13h30.2a11.2,11.2,0,0,0,11.13-11.13V182.46A11.26,11.26,0,0,0,250.59,171.8Z"/><path class="cls-1" d="M375.63,80.84H224.85a18.79,18.79,0,0,0-16.93,10.78,19.21,19.21,0,0,0-1.74,7.95,18.05,18.05,0,0,0,.81,5.33,18.42,18.42,0,0,0,3.36,6.38c.06,0,.06.11.12.11A18.12,18.12,0,0,0,222,117.94a12.1,12.1,0,0,0,2.9.29H375.63a18.7,18.7,0,1,0,0-37.39Zm0,30.15H224.85a11.37,11.37,0,0,1-8.81-4.18l-.06-.06a11.14,11.14,0,0,1-2-3.76c0-.06-.06-.06-.06-.12a12.29,12.29,0,0,1-.46-3.3,11.45,11.45,0,0,1,11.42-11.48H375.63a11.45,11.45,0,1,1,0,22.9Z"/><path class="cls-1" d="M176,322.12V450h97.74V371a11.54,11.54,0,0,1,11.48-11.48h30.14A11.53,11.53,0,0,1,326.76,371v79H424.5V322.12ZM417.25,442.75H334V371a18.79,18.79,0,0,0-18.67-18.73H285.2A18.8,18.8,0,0,0,266.47,371v71.76H183.22V329.36h234Z"/></svg>