<svg xmlns="http://www.w3.org/2000/svg" viewBox="0 0 500 500"><defs><style>.cls-1,.cls-2{fill:#2d98d4;}.cls-1{opacity:0.19;}</style></defs><g id="dashboards"><circle class="cls-1" cx="250" cy="250" r="167.19"/><path class="cls-2" d="M250,50C139.54,50,50,139.54,50,250s89.54,200,200,200,200-89.53,200-200S360.47,50,250,50Zm0,385.49C147.55,435.49,64.51,352.44,64.51,250A185.48,185.48,0,0,1,250,64.51c102.44,0,185.49,83,185.49,185.49S352.44,435.49,250,435.49Z"/><path class="cls-2" d="M315,222.75a24.35,24.35,0,0,0-4.43,48.3v16.17c0,27.92-20.83,50.74-46.53,50.74s-46.53-22.82-46.53-50.74V271.94a53.75,53.75,0,0,0,51-53.63V162a4.45,4.45,0,0,0-4.43-4.44H251.22a8.81,8.81,0,1,0-7.54,13.3,8.32,8.32,0,0,0,7.54-4.43h8.42v51.62a45,45,0,0,1-90,0V166.47h8.42a8.81,8.81,0,1,0,7.53-13.3,8.32,8.32,0,0,0-7.53,4.43H165.25a4.46,4.46,0,0,0-4.44,4.44v56.05a53.9,53.9,0,0,0,47.64,53.4v15.73c0,32.8,24.82,59.61,55.4,59.61s55.39-26.81,55.39-59.61V271.05a24.29,24.29,0,0,0,19.94-23.93A24,24,0,0,0,315,222.75Zm0,39.88a15.51,15.51,0,1,1,15.51-15.51A15.42,15.42,0,0,1,315,262.63Z"/></g></svg>