<svg id="Layer_1" data-name="Layer 1" xmlns="http://www.w3.org/2000/svg" viewBox="0 0 500 500"><defs><style>.cls-1{fill:#2d98d4;}</style></defs><title>children</title><path class="cls-1" d="M134.14,156.63c-62.41,0-109.47,44.72-109.47,104a19,19,0,1,0,38.07,0,63.66,63.66,0,0,1,25.79-51.49V431a19,19,0,0,0,19,19h0a19.06,19.06,0,0,0,19-19V322.26h15.16V431a19,19,0,0,0,38.06,0V209.19a63.63,63.63,0,0,1,25.73,51.46,19,19,0,0,0,38.07,0C243.62,201.35,196.56,156.63,134.14,156.63Zm90.45,116.92a12.92,12.92,0,0,1-12.91-12.88,69.74,69.74,0,0,0-33.33-59.85L173.69,198V431a12.9,12.9,0,0,1-25.8,0V316.13H120.47V431a12.92,12.92,0,0,1-12.9,12.89h0A12.91,12.91,0,0,1,94.66,431V198L90,200.77a69.78,69.78,0,0,0-33.4,59.88,12.9,12.9,0,1,1-25.8,0c0-55.8,44.43-97.88,103.34-97.88s103.35,42.08,103.35,97.88A12.92,12.92,0,0,1,224.59,273.55Z"/><path class="cls-1" d="M134.18,141.29A45.65,45.65,0,1,0,88.53,95.65,45.69,45.69,0,0,0,134.18,141.29Zm0-85.16A39.52,39.52,0,1,1,94.66,95.65,39.56,39.56,0,0,1,134.18,56.13Z"/><path class="cls-1" d="M365.86,156.63c-62.42,0-109.48,44.72-109.48,104a19,19,0,1,0,38.07,0,63.12,63.12,0,0,1,29.29-53.94L300.4,328.14a13.73,13.73,0,0,0,11.91,15.31,12.43,12.43,0,0,0,1.69.1h6.17V431a19,19,0,0,0,38.07,0V343.55H373.4V431a19,19,0,1,0,38.06,0V343.55h6.17a13.71,13.71,0,0,0,13.71-13.71,14,14,0,0,0-.14-1.9L407.88,206.63a63.12,63.12,0,0,1,29.38,54,19,19,0,0,0,38.07,0C475.33,201.35,428.27,156.63,365.86,156.63ZM456.3,273.55a12.91,12.91,0,0,1-12.9-12.88A69.29,69.29,0,0,0,405,198l-5.57-2.79L425.15,328.9a7.42,7.42,0,0,1,.06.94,7.58,7.58,0,0,1-7.58,7.58h-12.3V431a12.9,12.9,0,1,1-25.8,0V337.42H352.11V431a12.91,12.91,0,0,1-25.81,0V337.42H314a3.15,3.15,0,0,1-.92-.06,7.57,7.57,0,0,1-6.62-8.26l25.74-133.9L326.62,198a69.3,69.3,0,0,0-38.31,62.64,12.9,12.9,0,1,1-25.8,0c0-55.8,44.43-97.88,103.35-97.88S469.2,204.85,469.2,260.65A12.92,12.92,0,0,1,456.3,273.55Z"/><path class="cls-1" d="M365.82,141.29a45.65,45.65,0,1,0-45.65-45.64A45.69,45.69,0,0,0,365.82,141.29Zm0-85.16A39.52,39.52,0,1,1,326.3,95.65,39.56,39.56,0,0,1,365.82,56.13Z"/></svg>