<svg id="Layer_1" data-name="Layer 1" xmlns="http://www.w3.org/2000/svg" viewBox="0 0 500 500"><defs><style>.cls-1{fill:#2d98d4;}</style></defs><title>disabled</title><path class="cls-1" d="M234.2,447.59q-5.52,0-11-.5c-58.61-5.18-105.46-50.79-111.4-108.46a124.08,124.08,0,0,1,51-115.58A19,19,0,0,1,181.15,221a20,20,0,0,1,12.12,15.21,19.79,19.79,0,0,1-7.81,18.72A83.92,83.92,0,0,0,150.58,335c4.85,36.82,33.63,66.43,70,72h0a83.55,83.55,0,0,0,72-22.79A19.19,19.19,0,0,1,312,379.75,19.92,19.92,0,0,1,325.52,395,18.39,18.39,0,0,1,320,412.73,123.64,123.64,0,0,1,234.2,447.59Zm-60.45-222a12.76,12.76,0,0,0-7.43,2.41c-35.43,25.18-53.56,66.28-48.49,109.93,5.64,54.81,50.16,98.12,105.86,103a117.5,117.5,0,0,0,92.15-32.74,12.37,12.37,0,0,0,3.7-12,13.69,13.69,0,0,0-9.42-10.65,13.16,13.16,0,0,0-13.27,3.05,89.5,89.5,0,0,1-77.21,24.44h0c-39-6-69.91-37.77-75.12-77.25A90,90,0,0,1,181.86,250a13.5,13.5,0,0,0,5.37-12.86,13.93,13.93,0,0,0-8.42-10.49A13.33,13.33,0,0,0,173.75,225.62Z"/><path class="cls-1" d="M366.88,450a22.67,22.67,0,0,1-22.49-18.7L324.94,323.13H238.35c-10.89,0-20.56-8.4-22.5-19.54L199.26,197.82c-1.87-13.12,1.63-25.35,9.88-34.45a43.5,43.5,0,0,1,32.53-14.69h6.22a41.43,41.43,0,0,1,41.19,38.94l1,12.47h52.75a19.64,19.64,0,1,1,0,39.28H293.06l2.85,37.84h48.17a22.7,22.7,0,0,1,22.5,18.7l22.81,127c1.86,12.54-6.12,24.26-18.18,26.66A13.17,13.17,0,0,1,366.88,450ZM241.67,154.79a37.43,37.43,0,0,0-28,12.68c-7,7.74-10,18.19-8.37,29.44L221.88,302.6c1.43,8.19,8.51,14.41,16.47,14.41h91.7L350.4,430.23a16.6,16.6,0,0,0,16.48,13.66,9,9,0,0,0,2.77-.26c9.35-1.9,15.08-10.37,13.7-19.82L360.56,297a16.6,16.6,0,0,0-16.48-13.66H290.25l-3.78-50.06h56.37a13.53,13.53,0,1,0,0-27.06H284.46L283,188.05a35.33,35.33,0,0,0-35.1-33.26Z"/><path class="cls-1" d="M244.16,143.18a46.59,46.59,0,1,1,46.59-46.59A46.65,46.65,0,0,1,244.16,143.18Zm0-87.07a40.48,40.48,0,1,0,40.47,40.48A40.52,40.52,0,0,0,244.16,56.11Z"/></svg>