<svg id="Layer_1" data-name="Layer 1" xmlns="http://www.w3.org/2000/svg" viewBox="0 0 500 500"><defs><style>.cls-1{fill:#2d98d4;}</style></defs><title>elders</title><path class="cls-1" d="M306.76,450a9.48,9.48,0,0,1-9.47-9.47V288.32a8.52,8.52,0,0,0-17,0,9.47,9.47,0,0,1-18.93,0,27.4,27.4,0,0,1,13.87-23.77c-14.8-22.71-23.58-46.81-28.74-66a229.28,229.28,0,0,1-10.36,38A230.19,230.19,0,0,1,216.53,277c2.74,9.86,19.6,76.66-2.85,152.3a20.64,20.64,0,1,1-39.58-11.74c18.33-61.85,5.57-118.12,2.83-128.77-7.55-20.16-17.8-61-.76-105.37,20.31-52.83,65.53-74.12,66-74.29l.44-.16a20.65,20.65,0,0,1,26.3,12.39c.83,2.28,1.15,6.29,1,12.27v.4c0,.68.64,68.73,36.91,118.82a16.44,16.44,0,0,1,1.53,16.56,26.7,26.7,0,0,1,7.93,18.94V440.53A9.47,9.47,0,0,1,306.76,450Zm-18-175.13a13.48,13.48,0,0,1,13.48,13.45V440.53a4.53,4.53,0,1,0,9,0V288.32a22,22,0,0,0-7.7-16.6L302,270.34l1.1-1.76a11.56,11.56,0,0,0-.37-12.87C265.35,204,264.91,134.7,264.91,134v-.54c.21-6.91-.34-9.51-.68-10.45a15.71,15.71,0,0,0-20.13-9.38c-.59.24-43.74,20.59-63.33,71.53-16.46,42.83-6.53,82.36.85,102.12,2.88,11.12,15.91,68.56-2.8,131.66a15.69,15.69,0,0,0,10.6,19.51,15.89,15.89,0,0,0,4.47.64,15.58,15.58,0,0,0,15-11.22c23.39-78.85,3.38-147.75,2.52-150.65l-.46-1.53,1.08-.93a225.13,225.13,0,0,0,19.38-40,225.44,225.44,0,0,0,12-49.19l1.8-14.18,3.06,14c4.5,20.58,13.79,50.94,32.5,78.76l1.65,2.46-2.7,1.18a22.48,22.48,0,0,0-13.52,20.55,4.53,4.53,0,0,0,9.06,0A13.45,13.45,0,0,1,288.75,274.87Z"/><path class="cls-1" d="M295,126.18A38.09,38.09,0,1,1,333.1,88.06,38.18,38.18,0,0,1,295,126.18Zm0-71.24a33.15,33.15,0,1,0,33.13,33.12A33.22,33.22,0,0,0,295,54.94Z"/></svg>