<svg id="Layer_1" data-name="Layer 1" xmlns="http://www.w3.org/2000/svg" viewBox="0 0 500 500"><defs><style>.cls-1{fill:#2d98d4;}</style></defs><title>hospitalsatrisk</title><path class="cls-1" d="M135.18,56.19A11.41,11.41,0,0,0,124.92,50a11.57,11.57,0,0,0-10.23,6.16L57.35,164a11.3,11.3,0,0,0,.27,11.37,11.47,11.47,0,0,0,10,5.68H182.3a11.58,11.58,0,0,0,10.23-17Zm50.95,115.57a4.48,4.48,0,0,1-3.86,2.16H67.6a4.46,4.46,0,0,1-4-6.57L121,59.52a4.46,4.46,0,0,1,4-2.39,4.36,4.36,0,0,1,3.93,2.4l57.37,107.81A4.49,4.49,0,0,1,186.13,171.76Z"/><path class="cls-1" d="M114.78,87.86v44.55a10.16,10.16,0,1,0,20.31,0V87.86a10.16,10.16,0,1,0-20.31,0Zm7.12,0a3,3,0,1,1,6.06,0v44.55a3,3,0,1,1-6.06,0Z"/><path class="cls-1" d="M124.92,143.79a10.95,10.95,0,1,0,10.91,10.92A10.92,10.92,0,0,0,124.92,143.79Zm0,7.13a3.79,3.79,0,0,1,3.79,3.79,3.69,3.69,0,0,1-1.09,2.7,3.79,3.79,0,1,1-2.7-6.49Z"/><path class="cls-1" d="M442.71,254.46l0-.06L322.09,144.87a4.09,4.09,0,0,0-5.52.06L196,254.4a4.28,4.28,0,0,0-1.4,3.14V450H444.05V257.54A4,4,0,0,0,442.71,254.46Zm-6,183.87a4.8,4.8,0,0,1-4.76,4.82H206.69a4.8,4.8,0,0,1-4.76-4.82V262.82a9.49,9.49,0,0,1,3-6.91l108.2-99.43a9.26,9.26,0,0,1,12.37-.06L435.16,257.3a4.69,4.69,0,0,1,1.57,3.55Z"/><path class="cls-1" d="M352.47,335.1H324.15V303.88a4.82,4.82,0,0,0-9.64,0V335.1H286.26a4.7,4.7,0,1,0,0,9.4h28.25v31.4a4.82,4.82,0,0,0,9.64,0V344.5h28.32a4.7,4.7,0,0,0,0-9.4Z"/></svg>