<svg id="Layer_1" data-name="Layer 1" xmlns="http://www.w3.org/2000/svg" viewBox="0 0 500 500"><defs><style>.cls-1{fill:#2d98d4;}</style></defs><title>houseatrisk</title><path class="cls-1" d="M189.79,163.43,132.55,55.79A10.72,10.72,0,0,0,122.94,50a10.83,10.83,0,0,0-9.57,5.76L56.13,163.41a10.62,10.62,0,0,0,.25,10.64,10.76,10.76,0,0,0,9.34,5.31h114.5a10.83,10.83,0,0,0,9.57-15.93ZM61.12,166.08,118.37,58.44a5.11,5.11,0,0,1,4.41-2.78H123a5.08,5.08,0,0,1,4.55,2.78l57.27,107.63a5.18,5.18,0,0,1-4.6,7.63H65.72a5.18,5.18,0,0,1-4.48-2.52A5.13,5.13,0,0,1,61.12,166.08Z"/><path class="cls-1" d="M122.94,141a9.45,9.45,0,0,0,9.43-9.45V87.06a9.41,9.41,0,1,0-18.82,0v44.48A9.43,9.43,0,0,0,122.94,141Zm3.76-9.45a3.75,3.75,0,1,1-7.49,0V87.06a3.75,3.75,0,1,1,7.49,0Z"/><path class="cls-1" d="M122.94,164a10.19,10.19,0,1,0-10.14-10.2A10.14,10.14,0,0,0,122.94,164Zm0-14.71a4.52,4.52,0,0,1,4.51,4.51,4.39,4.39,0,0,1-1.3,3.21,4.51,4.51,0,1,1-3.21-7.72Z"/><path class="cls-1" d="M441.61,248.55,325.09,142.7a11.18,11.18,0,0,0-15,0L193.61,248.55a11.33,11.33,0,0,0-3.65,8.29V450H294.54V377.13a9.54,9.54,0,0,1,9.39-9.39h27.36a9.54,9.54,0,0,1,9.39,9.39V450H445.26V256.84A11.33,11.33,0,0,0,441.61,248.55Zm-5,192.75H349.38V377.13A18.19,18.19,0,0,0,331.29,359H303.87a18.18,18.18,0,0,0-18,18.09V441.3H198.66V256.84a2.48,2.48,0,0,1,.81-1.85l116.46-105.8a2.63,2.63,0,0,1,3.31-.06L435.76,255a2.3,2.3,0,0,1,.81,1.8Z"/></svg>