<svg id="Layer_1" data-name="Layer 1" xmlns="http://www.w3.org/2000/svg" viewBox="0 0 500 500"><defs><style>.cls-1,.cls-2{fill:#2d98d4;}.cls-1{opacity:0.19;}</style></defs><circle class="cls-1" cx="250" cy="250" r="167.19"/><path class="cls-2" d="M250,50C139.54,50,50,139.54,50,250s89.54,200,200,200,200-89.53,200-200S360.47,50,250,50Zm0,385.49C147.55,435.49,64.51,352.44,64.51,250A185.48,185.48,0,0,1,250,64.51c102.44,0,185.49,83,185.49,185.49S352.44,435.49,250,435.49Z"/><path class="cls-2" d="M261.28,271.18c-2-2-5-3.75-8.85-5.91s-8.42-4.5-12.83-6.7c-8.79-4.38-16.91-8.12-16.91-8.12a3.49,3.49,0,0,0-1.71-.33,3.53,3.53,0,0,0-3.31,3.75,3.4,3.4,0,0,0,.32,1.28s3.74,8.12,8.13,16.91c1.62,3.26,3.35,6.61,5,9.7.59,1.08,1.17,2.13,1.73,3.13,2.17,3.85,3.86,6.79,5.86,8.79a15.92,15.92,0,0,0,27.19-11.92A15.86,15.86,0,0,0,261.28,271.18Zm-5,17.52a8.77,8.77,0,0,1-12.5,0,50.53,50.53,0,0,1-4.55-6.94c-.07-.12-.13-.24-.2-.35-2.07-3.68-4.37-8.16-6.52-12.5-2-4-2.28-4.73-3.71-7.74,3,1.42,3.69,1.71,7.68,3.71,4.34,2.16,8.82,4.5,12.5,6.57a53,53,0,0,1,7.3,4.71,8.82,8.82,0,0,1,0,12.54Zm71.58-6.94a77.83,77.83,0,0,0-155.66,0c0,.23,0,.47,0,.7A3.55,3.55,0,0,0,175.7,286h15.92a3.55,3.55,0,0,0,3.59-3.49,4.54,4.54,0,0,0-.07-.75,3.54,3.54,0,0,0-3.42-2.84H179.57a70.7,70.7,0,0,1,18.07-43.84l5.64,5.64a3.54,3.54,0,0,0,5.08-4.94l-.1-.09-5.64-5.64a69.91,69.91,0,0,1,43.84-18.24v12.27a3.54,3.54,0,1,0,7.08.1V211.81a69.91,69.91,0,0,1,43.84,18.24l-5.64,5.64a3.53,3.53,0,1,0,4.87,5.12l.11-.09,5.63-5.64a70.66,70.66,0,0,1,18.08,43.84H308.38a3.53,3.53,0,0,0-3.52,2.84,3.41,3.41,0,0,0-.07.65,3.54,3.54,0,0,0,3.49,3.59h16a3.55,3.55,0,0,0,3.54-3.54C327.84,282.23,327.84,282,327.83,281.76Z"/><path class="cls-2" d="M364.5,172.29h-229a7.37,7.37,0,0,0-7.37,7.37V320.34a7.28,7.28,0,0,0,1,3.71,7.35,7.35,0,0,0,6.37,3.66h3.11a4.16,4.16,0,0,1,1.23-.18H360a4.09,4.09,0,0,1,1.22.18h3.32a7.35,7.35,0,0,0,6.28-3.54,7.23,7.23,0,0,0,1.09-3.83V179.66A7.39,7.39,0,0,0,364.5,172.29ZM135.65,183.6a4.29,4.29,0,0,1,4.28-4.28H360.05a4.29,4.29,0,0,1,4.29,4.28V309.38a4.28,4.28,0,0,1-4.29,4.25H139.93a4.29,4.29,0,0,1-4.28-4.25ZM342.33,322.36a3.58,3.58,0,0,1-6.05-1.86,3.82,3.82,0,0,1-.07-.68,3.59,3.59,0,0,1,7.18,0,3.82,3.82,0,0,1-.07.68A3.59,3.59,0,0,1,342.33,322.36Zm13.71,0A3.6,3.6,0,0,1,350,320.5a5.05,5.05,0,0,1-.06-.68,3.59,3.59,0,0,1,6.13-2.53,3.54,3.54,0,0,1,1,2.53,3.82,3.82,0,0,1-.07.68A3.51,3.51,0,0,1,356,322.36Z"/></svg>