<svg xmlns="http://www.w3.org/2000/svg" viewBox="0 0 500 500"><defs><style>.cls-1,.cls-2{fill:#a2b1ba;}.cls-1{opacity:0.19;}</style></defs><g id="dashboards"><circle class="cls-1" cx="240.04" cy="248.81" r="167.19"/><path class="cls-2" d="M240.05,48.81c-110.47,0-200,89.54-200,200s89.54,200,200,200,200-89.54,200-200S350.51,48.81,240.05,48.81Zm0,385.49c-102.45,0-185.49-83.05-185.49-185.49a185.49,185.49,0,1,1,371,0C425.53,351.25,342.49,434.3,240,434.3Z"/><path class="cls-2" d="M251.32,270c-2-2-5-3.75-8.85-5.92s-8.42-4.5-12.83-6.69c-8.79-4.38-16.91-8.13-16.91-8.13a3.46,3.46,0,0,0-1.71-.32,3.52,3.52,0,0,0-3.31,3.75A3.4,3.4,0,0,0,208,254s3.74,8.11,8.13,16.91c1.62,3.26,3.35,6.61,5,9.69.58,1.09,1.16,2.14,1.72,3.14,2.17,3.85,3.86,6.79,5.86,8.79a16,16,0,0,0,22.56,0,15.95,15.95,0,0,0,0-22.5Zm-5,17.52a8.79,8.79,0,0,1-12.5,0,49.55,49.55,0,0,1-4.54-6.95,4.05,4.05,0,0,1-.21-.35c-2.07-3.67-4.36-8.15-6.52-12.49-2-4-2.28-4.73-3.71-7.74,3,1.42,3.69,1.71,7.69,3.7,4.33,2.17,8.82,4.51,12.49,6.58a53.7,53.7,0,0,1,7.3,4.7,8.83,8.83,0,0,1,0,12.55Zm71.58-6.95a77.83,77.83,0,0,0-155.66,0c0,.24,0,.47,0,.71a3.55,3.55,0,0,0,3.54,3.54h15.92a3.55,3.55,0,0,0,3.59-3.5,3.81,3.81,0,0,0-.07-.75,3.53,3.53,0,0,0-3.42-2.83H169.61a70.66,70.66,0,0,1,18.08-43.84l5.64,5.64a3.54,3.54,0,1,0,5.07-4.94l-.1-.09-5.64-5.64a69.85,69.85,0,0,1,43.84-18.24v12.27a3.54,3.54,0,0,0,7.08.09V210.62a69.85,69.85,0,0,1,43.84,18.24l-5.64,5.64a3.54,3.54,0,0,0,4.88,5.12l.1-.09,5.63-5.64a70.6,70.6,0,0,1,18.08,43.84H298.42a3.53,3.53,0,0,0-3.52,2.83,3.59,3.59,0,0,0-.07.65,3.55,3.55,0,0,0,3.49,3.6h16a3.55,3.55,0,0,0,3.54-3.54C317.88,281,317.88,280.8,317.87,280.56Z"/><path class="cls-2" d="M354.54,171.1h-229a7.37,7.37,0,0,0-7.37,7.36V319.15a7.24,7.24,0,0,0,1,3.7,7.34,7.34,0,0,0,6.37,3.67h3.11a4.21,4.21,0,0,1,1.23-.18H350a4.21,4.21,0,0,1,1.23.18h3.31a7.36,7.36,0,0,0,6.29-3.54,7.22,7.22,0,0,0,1.08-3.83V178.46A7.38,7.38,0,0,0,354.54,171.1ZM125.69,182.41a4.29,4.29,0,0,1,4.28-4.28H350.09a4.29,4.29,0,0,1,4.29,4.28V308.18a4.28,4.28,0,0,1-4.29,4.26H130a4.29,4.29,0,0,1-4.28-4.26ZM332.37,321.17a3.58,3.58,0,0,1-6.05-1.87,3.62,3.62,0,0,1-.07-.67,3.59,3.59,0,0,1,7.18,0,3.68,3.68,0,0,1-1.06,2.54Zm13.71,0a3.6,3.6,0,1,1,0-5.07,3.54,3.54,0,0,1,1.05,2.53,3.62,3.62,0,0,1-.07.67A3.43,3.43,0,0,1,346.08,321.17Z"/></g></svg>