<svg id="Layer_1" data-name="Layer 1" xmlns="http://www.w3.org/2000/svg" viewBox="0 0 500 500"><defs><style>.cls-1{fill:#2d98d4;}</style></defs><title>men</title><path class="cls-1" d="M250,156.63c-62.41,0-109.48,44.72-109.48,104a19,19,0,1,0,38.07,0,63.64,63.64,0,0,1,25.8-51.49V431a19,19,0,0,0,19,19h0a19.06,19.06,0,0,0,19-19V322.26h15.15V431a19,19,0,0,0,38.07,0V209.19a63.66,63.66,0,0,1,25.73,51.46,19,19,0,0,0,38.07,0C359.48,201.35,312.41,156.63,250,156.63Zm90.44,116.92a12.91,12.91,0,0,1-12.9-12.88,69.76,69.76,0,0,0-33.33-59.85L289.55,198V431a12.91,12.91,0,0,1-25.81,0V316.13H236.32V431a12.91,12.91,0,0,1-12.89,12.89h0A12.91,12.91,0,0,1,210.52,431V198l-4.66,2.82a69.78,69.78,0,0,0-33.4,59.88,12.9,12.9,0,1,1-25.8,0c0-55.8,44.42-97.88,103.34-97.88s103.34,42.08,103.34,97.88A12.91,12.91,0,0,1,340.44,273.55Z"/><path class="cls-1" d="M250,141.29a45.65,45.65,0,1,0-45.64-45.64A45.7,45.7,0,0,0,250,141.29Zm0-85.16a39.52,39.52,0,1,1-39.51,39.52A39.57,39.57,0,0,1,250,56.13Z"/></svg>