<svg id="Layer_1" data-name="Layer 1" xmlns="http://www.w3.org/2000/svg" viewBox="0 0 500 500"><defs><style>.cls-1,.cls-2{fill:#2d98d4;}.cls-1{opacity:0.19;}</style></defs><circle class="cls-1" cx="250" cy="250" r="167.19"/><path class="cls-2" d="M250,50C139.54,50,50,139.54,50,250s89.54,200,200,200,200-89.53,200-200S360.47,50,250,50Zm0,385.49C147.55,435.49,64.51,352.44,64.51,250A185.48,185.48,0,0,1,250,64.51c102.44,0,185.49,83,185.49,185.49S352.44,435.49,250,435.49Z"/><path class="cls-2" d="M364.5,172.29h-229a7.37,7.37,0,0,0-7.37,7.37V320.34a7.28,7.28,0,0,0,1,3.71,7.35,7.35,0,0,0,6.37,3.66h3.11a4.16,4.16,0,0,1,1.23-.18H360a4.09,4.09,0,0,1,1.22.18h3.32a7.35,7.35,0,0,0,6.28-3.54,7.23,7.23,0,0,0,1.09-3.83V179.66A7.39,7.39,0,0,0,364.5,172.29ZM135.65,183.6a4.29,4.29,0,0,1,4.28-4.28H360.05a4.29,4.29,0,0,1,4.29,4.28V309.38a4.28,4.28,0,0,1-4.29,4.25H139.93a4.29,4.29,0,0,1-4.28-4.25ZM342.33,322.36a3.58,3.58,0,0,1-6.05-1.86,3.82,3.82,0,0,1-.07-.68,3.59,3.59,0,0,1,7.18,0,3.82,3.82,0,0,1-.07.68A3.59,3.59,0,0,1,342.33,322.36Zm13.71,0A3.6,3.6,0,0,1,350,320.5a5.05,5.05,0,0,1-.06-.68,3.59,3.59,0,0,1,6.13-2.53,3.54,3.54,0,0,1,1,2.53,3.82,3.82,0,0,1-.07.68A3.51,3.51,0,0,1,356,322.36Z"/><path class="cls-2" d="M324.11,227.32h0l-.79-1.81-.07-.13h0a27,27,0,0,0-3.86-5.95l.06,0-1.53-1.6-.08-.07h0a27.26,27.26,0,0,0-6.54-4.86l.14-.06-2.64-1.12-.06,0h0a27.16,27.16,0,0,0-10.28-2h-1.07v6.08A22.45,22.45,0,1,0,320,238.21v0h6v-1.07A27.12,27.12,0,0,0,324.11,227.32Zm-24.56-1.88v-7.58l9.21-3.88a25.25,25.25,0,0,1,7,4.64Zm17.78-5.18a25.2,25.2,0,0,1,4,5.91l-21.75,9.16v-7.58Zm4.82,7.86a25.31,25.31,0,0,1,1.63,7.94H303.31Zm-22.6-12.57v-3.72a25.26,25.26,0,0,1,6.3,1.07Zm18.29,22.63v0a20.32,20.32,0,1,1-20.42-20.32v20.29Z"/><rect class="cls-2" x="300.85" y="261.17" width="3.71" height="51" rx="0.6" transform="translate(589.38 -16.03) rotate(90)"/><rect class="cls-2" x="300.85" y="248.41" width="3.71" height="51" rx="0.6" transform="translate(576.62 -28.79) rotate(90)"/><rect class="cls-2" x="253.51" y="213.78" width="3.71" height="76.54" rx="0.6" transform="translate(510.74 504.1) rotate(180)"/><rect class="cls-2" x="226.27" y="240.31" width="3.71" height="50.01" rx="0.6" transform="translate(456.26 530.63) rotate(180)"/><rect class="cls-2" x="185.42" y="256.66" width="3.71" height="33.12" rx="0.6" transform="translate(374.54 546.44) rotate(180)"/><rect class="cls-2" x="212.65" y="246.57" width="3.71" height="43.75" rx="0.6" transform="translate(429.02 536.89) rotate(180)"/><rect class="cls-2" x="239.89" y="229.71" width="3.71" height="60.61" rx="0.6" transform="translate(483.5 520.03) rotate(180)"/><rect class="cls-2" x="199.04" y="231.41" width="3.71" height="58.91" rx="0.6" transform="translate(401.78 521.73) rotate(180)"/><rect class="cls-2" x="171.8" y="249.05" width="3.71" height="41.27" rx="0.6" transform="translate(347.3 539.36) rotate(-180)"/></svg>