<svg id="Layer_1" data-name="Layer 1" xmlns="http://www.w3.org/2000/svg" viewBox="0 0 500 500"><defs><style>.cls-1{fill:#2d98d4;}</style></defs><title>population</title><path class="cls-1" d="M451,346.47c-2.12-35.46-26.44-65.86-59.48-74.82a38.63,38.63,0,1,0-40.16-.1,77.81,77.81,0,0,0-24.08,11.14c-7-29.24-29.2-52.49-57.29-60.09a38.63,38.63,0,1,0-40.16-.1c-28.2,7.54-50.51,30.85-57.54,60.23a76.57,76.57,0,0,0-23.82-11.08,38.64,38.64,0,1,0-40.17-.1C76.79,280,53.1,307.74,49,341.39l-.11.92.9.18c2,.42,3.79.85,5.44,1.3l1.13.32.13-1.17c4-35.62,31.86-63.41,66.2-66.11a38.78,38.78,0,0,0,11.3,0,70.09,70.09,0,0,1,37.19,14.51c1,.76,2,1.6,3.21,2.64a76.42,76.42,0,0,1,26,54.05l.07,1.38,1.29-.49a27.51,27.51,0,0,1,5.33-1.44l.89-.14-.05-.91a83.73,83.73,0,0,0-29-58.61c6.33-32.89,33.08-57.55,65.25-60.09a38.1,38.1,0,0,0,11.3,0c32,2.6,58.71,27.23,65.07,60a83.4,83.4,0,0,0-28.53,53.56l-.11.92.9.18c2,.42,3.79.85,5.44,1.3l1.13.32.13-1.17a76.11,76.11,0,0,1,23.74-47.32c1.76-1.6,3.42-3,5.09-4.31a70.13,70.13,0,0,1,37.37-14.48,38.78,38.78,0,0,0,11.3,0c36.09,2.94,64.63,33.53,66.41,71.2l.07,1.38,1.29-.49a27.51,27.51,0,0,1,5.33-1.44l.89-.14Zm-47.91-107.8a31.42,31.42,0,0,1-24.33,30.69,32.35,32.35,0,0,1-14.65,0l-.14,0a31.58,31.58,0,1,1,39.12-30.62ZM281.56,189.61a31.42,31.42,0,0,1-24.33,30.69,32.35,32.35,0,0,1-14.65,0l-.14,0a31.58,31.58,0,1,1,39.12-30.63ZM160,238.67a31.42,31.42,0,0,1-24.33,30.69,32.35,32.35,0,0,1-14.65,0l-.14,0A31.58,31.58,0,1,1,160,238.67Z"/></svg>