<svg id="Layer_1" data-name="Layer 1" xmlns="http://www.w3.org/2000/svg" viewBox="0 0 500 500"><defs><style>.cls-1{fill:#2d98d4;}</style></defs><title>proneareas</title><path class="cls-1" d="M446.86,392.24l-.48-.32-1.71-1.51-.19-.17-.77-1.11-.82-.79-.14-.31L442,386.8l-.19-.26-.44-1-.43-.67-.34-.7-.4-.6-.2-.75-.14-.89v-.41l-.19-.89-.15-.26-.43-1.28-.39-.84-1.37-2-.6-.81-1.42-2.12-.36-.63-.43-1-.19-.36.21-.19.25-2.94L433,366.65l-1.3-.48h-2.31l-.75.14-1.13.43-1.34.08-3.8-.27-3.95-1.1-3.75-2.15-4.35-2.66-3.25-2.24.55-1.68-.33-.24-.84-1.3-.53-.58-.77-.58-1.78-1.87-.92-1-.52-.41-1.26-.68-.38-.16-.51-.15-.79-.38-1.54-.51-.6-.09h-1.42l-.58-.1-.6.22-.5.07-.29.09-.36.22-.39.24-.12,0v0l-.19.15h-.21l-.92.21-.19.1-1,1.13-.53,1.13,0,.1-.67.31-.75.43-.38.34-.75.24-.43.17h0l-1.17.07-.77.29-.77.36-.8.46-.33.12,0-.15h0l.17-.62v-1l-.22-1.71-.19-.63-.84-1.83-.51-1-.12-.57-.33-.89-.1-.58-.1-.29-.48-.79-.67-.7-.65-.82-.58-.57-.33-.48-1.3-1.35L375,340.07l-.58-.45-.6-.46-.33-.22-1-.67-.12-.07-.55-.51-.39-.31-.26-.14-.84-.75-.51-.5-.72-.63-.94-.84-.45-.36-.08-.1v-.17l.05-.65,0-.28-.22-.39h-4.16v0l.07.51.05.14.05.24.17.41,0,.12-.09.6v.29l.57,1.42.77.75.51.41.62.62.22.17.72.6.07.07.44.44.29.24,1.05.91.29.17.7.65,1.08.7,2.36,1.7.36.29.87.89,1.77,2.12.65.67-.12.1.34,1,.15.62.16.46,1.3,2.74.12,1V354l-.09.39-1.25.6,0,0-.21-.69-1.13-.68-2.1-.89-1.51-.21-1.42,0-1.16.12-.45.1-.77.26-.7.17-1.59.7-.48.29-.65.58-.5.57-.46.77-.22.22,0,0-.38.29-.63.58-.84.75-.77.79v2.79l.74.74.13.2-.34.19-.19.29-.22.45-.1.29,0,.08L361,364l-.5.48-.27.34.63,3,.5.29.19.16,2.24.41.34-.14,5.34,4.18,4.08,9.55,1.09,2.6-.22.58.34.77-.2.33-.28.77-.1.67v.53l.1.77.19.6.91,2,.05.32.38.89.1.14.19.48.87,1,0,.07.56,1.61-.15.15-2.47,1.87-.22.19-.55.68-.32,1.25.17,3.39,0,.26-1,.12-.77.27-.62.36-.17,0-1,.55-.82.67-1.28,1.45-.67,1L367,409l-.09,0-1.16.81-.38.39.26.26-.33.15-.22-.22-.36.38-.1.1-.19.1-.38.38-.2.1-.57.86-.1.29-.07.41-.17.27-.34,1.1-.19.41-.19.58-.41,1.68-.07.48v1.93l-.24.57,2.62,2.6.89-.36,1.2-.75.31-.26.77-.77.41-.6.39-.84.07-.22.79.58.31.12.63.38.58.24,1.13.29,1.25.15.91,0,.65.07.82,0,.43-.1-.17.65-.14.87v1.22l-.1.63v.48l.1.74v.39l.1.72v.7l.09,1,.12.6,0,0,.21.77.68,1.16.36.46,1.15,1,1.59,1.18,1.25.68,1.27.4.44.08,1.15.09.84-.12,1.54-.57.87-.63,0-.07.13.77.43.94.38.48.39.36.67.48.72.33,1.85.39,1.18.05.87-.15,1-.45,1.06-.87.69-.43.63.17h.55l1.11-.34.7-.46-.77-2.6.21-.4.29-.1-.05-.14,0,0-.07-.12,0-.07-.09-.05-.29-.72-.6-.82-.48-.38-.44-.27-.45-.21-.2-.39-1.32-1.06-1.78-.31h-.72l-.05,0-.67-.21-.58-.1-.79,0h-.15l-.6-.65-.19-.12-.29-.43,0-.32.5-.81-1.25-3-.38-.09-.48-.05h-.34l-1-.15-.43-.19-.77-1.13-.27-.33-.19-.2-.87-.5-.31-.1-.46-.6-.74-.79-.67-.46-.48-.19-.75-.15h-.87l-.53.08-.55-.2-1.18-.91-1.92-1-.72-.41-.39-.29.34-.07,1.2-.36.48-.24.58-.39.6-.48.34-.33.29-.39.19-.29.22-.26.45-.34.8-1,0-.09.65-.68.5-.86.25-.85.07-1.05-.17-.85.58-.43,1-1,.48-1.1.1-.87,0-.6.91-1,.29-.33.41-.65.41-.48.24-.39.38-.77.27-.34.6-1.1.19-1.13-.09-.77-.12-.48-.39-1L386,391.2l-1-.36-.7-1.88-.53-3.07-.24-.65-1.15-2-.84-.8-.53-.26.09-1.3-.33-.34-.15-.6-.4-.82-.44-.5.44-.7.07-1.92-.68-1.35-.43-.77-.72-.94-.41-1.1-.36-.89-.65-1.85-.38-.68-.68-.81-.07-.15.34-1.1-.1-.49-.22-.6,0,0,.63,0,.77-.1,1.1-.31.67-.07,1.28-.68.67-.74.32-.44.16-.38.22-.89v-.48l-.07-.55-.12-.41V360l-.07-.36.19-.21h.48l.86-.15.51-.17,2.5-1.2.12-.05.22,0,1.06-.15,1.66-.53.57-.28.39-.27.33-.26.44-.24.55-.2.38-.19.53-.38.2-.2.43-.55.29-.65.09-.38.12-.24.41-.08.53-.19.58-.38h1.56l.8.26.81.41.8.27.77.4.72.8,2,2.07.77.6.41.6-.15.24.53,2.74,4.09,2.84,4.55,2.76,4,2.29.46.19,4.38,1.25.41.07,4.11.29h.24l1.83-.09.62-.15,1.08-.43h.56L430,372l.86,1.45.46,1,2,3.25.63.81.91,1.37.22.27.17.36.43,1.3.1.21,0,.44.51,2.45.29.65.43.6.29.6.45.72.36.87.94,1.44.22.51.43.62.48.48.34.29.89,1.23,1.2,1.1.43.44.7.57v50.82H358.75l-.22-.26-.84-.2h-.39l-.91.22-.38.19v0h-28.6l.07-.48-.45-.72-.1-.1h-2.84l-.19.19-.74,1.09,0,0H247.84l-.15-.14-1.11-.63-.48-.19-.81.41-.36-.05-.29-.1h-.72v-.09l-.82.14-1.93.7-.45.12-.46-.34-.75.17H182.13l.85-1.76L188.2,434l.43-.67.6-1.2.46-.51.09-.19.19-.89v-.29l.12-.38-1.92-2.58h-.72l-.07,0L186.7,426l-.45-1v-1l-2.43-2-3.58.77-1.23.31v-.53h-1.88l-.62-.09h-1.23l-1.54-.17-1.3-.19-1.73-.36-.41,0h-.14l-1.52-.67-2.95-1.21-1.9-.38-1.28.17-1.35.67-1.44,1-1.66.51-2.16.17h-.19l-.05-.48-1.52-1.76-1-.26-2-.73-2.62-.64h-.91l-.39.09-1.59-1.18-3.82-2.45-.82-.31-.67-.1-1.54,0-2.76-.7-.89-.34-2.27-.45-.33-.1-.27-.67-.48-1.52-.07-.84-.34-.91-1.51-2.24-.27-.65-.28-1.06-.1-.86-.29-1.78-.22-.63-1.65-3-.34-.94-.6-.87-.92-.72-.45-.55-1-.63-.92-.24-.53-.24-.57-.14-.6-.08-.51-.16-.31-.27-.8-.5-.28-.63-.22-.36-.82-1.08-.17-.27-.62-.57-1.49-.92-.22-.5-.5-.68-.61-.52-2-3.44h1.83l1.42-.58.94-1,.43-.63.48-1.15.17-.87-.1-2.09-.19-.75-.31-.72,0-.21.65-.7.36-.53.48-1.06.22-.55,0-1.56-.36-.87.33-.67.2-1.06-.08-1,.17-2.23-.05-.65-.36-1.4-.09-.43.17-.6-.41-.22h.19v-.77l-.6-1.42-.39-.38-.31-.29.17-.67.24-1.21v-.67l-.19-1.15-.36-.85-.49-.64-.55-.56L116,354l.24-.41.24-1V352l-.17-.79-.26-.65-.29-.48-.29-.36-.21-.36-.36-1-.32-.53-.33-.38-.17-.36-.27-.41-.48-.58-.7-.7-.86-.62-1-.46-.43-.14-1-.17.31-.6.17-.41.1-.39,0-.48v-.38l-.11-.89-.27-.72-.29-.46-.07-.12.26-.53.75-3.1,0-1,.1-.65V333.1l.43-.53.22-.36.29-.58.14-.38.22-1,0-.82.07-.55,0-1.18-.07-.48-.1-.39-.52-.94-.37-.38-.28-.19.19-1.4.09-.19.15-.1.7-.79.57-1.13-.16-1h.26v-.07l-.34-.36-.14-.87-.1-.1-.36.36-1.06-1h-6.47l-1.2.19-2,.72-1.45.32h-4.2l-.48.07-.58,0-2.55.48-3,.29H86.18l-6.93-.48-1.1-.09H75.94l-1.18-.08-1-.19-1.44-.34-1.06-.21L70,319.15H66.89l-2.83.19-2,.27H60.3l-2.23.29h-1.4l.17-.07.27,0,.29-.1.81-.52.17-.2.55-1.37v-1.06l0-.21.24-.7.36-1.37v-.17l1.06-.07.67-.46.09-.09,0-.1.44-.19L62,313l-.12-3-.46-.36.12-.48v-.29l-.22-.89-.28-.58-.36-.53-.1-.1-1.42-.57H59l-.27.09.7-.55.89.31.48.1.68,0,.91-.16.53.07h.94l.52-.12.41.29.39.19.89.21h.29l.89-.21.38-.19.58-.92h.24l1.08-.46v0l.72-.48.2-.19.38-.51.24-.07.72-.45.19-.27.39-.22.26-.33.48-.1.49-.19.93-.84,1.64-.56.38-.28.27-.36.82.19.72-.1.29-.09,1.15-1,.1-.2.21-.89v-.29l-.09-.4.79-.7.26-.48.22-.7h0l.09-.48,0-.77-.07-.22.43-.14.5.17h.39l1.8-1.13.29-.58.19-.89V291l-1-1.7.28-.63.25-.82,0-.48v-.55l-.33-1.11-.22-.33.07-.19v-.29l-.21-.89-.1-.2-.17.1-.29-.55,0-.05-.19-.29-1-.79-.28-.1-.32-.05.1-.41h0l.27-.91.31-.22.79-1,.08-.29,0,0v0l.1.05.1-.17.09-.33.46-.1.86-.46.08-.09.16-.08.2-.19.45-.57.44-.87L86,276l.22-.58.31-.45.26-.48.36-.49.34-.16.1-.08h.14l1.35-.53.45-.43.15-.36.31-.46.27-.69.09-.48,0-.49.45.1.94-.19.19-.07.53-.85,1.16-.26.38-.19.8-.56,1-1.08.29-.77.07,0,0-.07h.19l.89-.22.86-.39.9-.55.48-.62.09-.2.22-.89v-.17L100,263l.36-1,0-.19-.07-.89-.09-.26.93-.41.36-.05.87-.39.38-.28.77-2-.09-.48-.43-.89-.58-.67-.22-.15.07-1.42-.19-.48-.43-.48,1.06-.26,1.29-.44,1.78-.72.63-.43.48-.48.55-1,.2-1-.08-1.06-.19-.56-.36-.53.63-.36,1-.69.79-1.59v-.67l-.43-.7.58-.48,1.34-.89,1.11-1,.17-.1.72,1,.86.58,1.86.19.33-.14.27-.07.74-.37.84-.64.53-.63.49-.87.21-.31.34-.67.19-.68.07-.55V235.2l.24-1,.12-.87,0-.62-.1-.75v-.12l-.58-1.42-.48-.48-.93-.53-1.81-.48-.43-.24v0l.31-.34.22-.29.45-.05h.2l.89-.19.31-.14.43-.05.82-.31.58-.39.86-1.35.1-.55v-.62l-.27-2.94-.12-.74-.55-1.09-.22-.21.1-.63,0-.81-.12-.49h.21l1,.3a5.49,5.49,0,0,1-1.45-3.48,4.25,4.25,0,0,1,.11-1.14h-1.43l-.39-.1H116.6l-.74.29v-.05l-.1-.6,1-1.37-.1-.68-.74-1.29-.17-.12,1.13-.65.38-.27.87-.74,1.42-1.93.26-.5.29-.75-.14-.82.93-1.08.1-.77-.07-.84-.29-.94-.58-1.3-.55-1-.84-1.22-.2-.51,1.28-1,.53-.65.86-1.63.1-1.69-.39-1-.84-.94,0-.53.5-.79v-2.19l-.36-.58-.29-.33-.26-.27-.22-.84,0-.09.63-.2.86-.57.41-2.41.1-.07.74-1.35.1-.86,0-1.28-.12-.62-.36-1.13L121,174l-.15-.12-.09-.33,0,0-.09-.39-.75-1.44.29-.19,2.72-2.21.5-.65,1.16-2.31.69-1.61.53-.39,2.26-1,1-.94.48-1,.22-.91V160l-.05-.41-.29-1.3-.16-1.11-.32-1.44-.48-1.25,1.85-.65,1.06-.84.29-.48.63-1.44.14-1-.17-1.63.15-.63,1-1.82.24-.94v-.63l.15-1.15.4-1.3.12-.65v-.29l-.91-1.59.31-.74.27-.43.41-.44.57-1.63-.09-.77-1.08-1.13.24-.19.38-.68.27-1.15-.1-1.32-.07-.51,1-2.21.56-1.32.67-.34,1.54-1,.43-.36,1.25-1.44.48-1.49-.09-1-.12-.74.48-.43.55-.77.38-1,.29-1.29-.09-1.13-.2-.49-1.08-1.1-1.1-.46,0,0,.63-.34.29-.38.09-.2.44-.33.48-1.54.19,0,0-.29.41-.94.12-1.2-.1-.46-.22-.6-.43-.77-.53-1.13-.26-.79,0-.2.37-.57.89-1.06.24-.39.77-1.54.16-.45.2-.85,0-.43V98l0-.34.34-.77v-.14l.46-.34.38-.38,0,0,.33-.36,1.09.87.26.1,1.11-.15.09.12,1.66.89h.39l.48,0,.38-.09.22-.29.79,0,.29-.1.77-.48.39-.38-.58-.61,1.51-.77-.38-2.18-.17-.58-.38-.75-.51-.79-.48-.46.1-.36-.17-.84.81-.58.25-.12.19.75,1,.58,0,.64,2,1.88h.43l.51-.07.38-.1,1.13-.74,1.47-2.17.34-1.13v-.67l-.29-.67.09,0-.09-.29-.05-.41,0-1-.09-.63-.1-.29v0l0,0,.55.12h.29l.74-.14.46-.19.39-.2.6-.45.29-.29-.08-.07.08-1,.45.29.12-.17.36-.84.1-.48,0-.39.41-1.42.07-.48V77.7l-.1-.67,1.42-.6.39-.39.43-.64.46-1.11.12-.43.17-.92.16-.43.34-1.88-.24-1.39.79.34.89.45.8.34,1.25.29.86,0,.48-.09v0l.7-.17.19-.09-.19-.39.48-.48.22.31,0,.05.07-.05h0l.34-.19.64-.12.51-.17.19-.09.44-.08.28-.09,1.11-.84L179,66.35l.17-.33.53-1.35.12-.53,0-.89-.1-.48-.38-1.08-.29-.53-.77-1,.41,0,.62-.19,2.5-1.25.7-.6.87-1.13.26-.51.29-.74L184,55l.24-.19,0,.33.67.1,2.09,0,.56.15.72.33,2,1.52.46.26.81.84.92,1,.74.75L195.46,62l.41.4.57.46.63.41.24.27.41.33.91.65.94.12v0l.48.1,1.16,0,.72-.12,1.25-.48.84-.65.38-.48.24-.39.05-.07.29,0,1.42.43,2.57,1.4,3.92,1.37,1.88,1.1,2.6,2.67L219,72.44,221.26,76l2.19,3.15,3.8,4.21,1.8,2.65.75,1.92.67,2.21.17,2.1.07.6.77,3,.2.48L233.26,99l1.49,3.29,2.79,5.12.48,1.11.24,1,.44,1.23.48,1,.14.55.24.58.8,1.32H240l-.91.12-.56.14-.38.15-.7.34-.41.16-1,.65.14.2-.14,3.12.67.36.53.17.48.1.19,0,.41.82.65,1.08.53.72,1,1,.61.75.81.84.39.29,3,1.83.53.26.4.15,1,.21.72,0,.38.07.39,0,.6.36.24.19.55.65.46.36,1.3.8,1.22.53.8.19.45.22.58.19.72.17,1.83,0,1.35-.24.79-.28.67-.2.29-.19.7-.77.24-.67.29.45.43.56.2.33.31.41.38.39.41.31.53.31.41,1.28.1.26.45.68.51.5.43,1.06.19.29,1.08,1.13.34.48.58.62.94,1.45.6.79.24.75.12.24.17.72.57,1.15.46.7.82,1,.43.26.87,1,.21.22,1.23,1.9L276,150l1.09,1.85.38.68.1.17.33.43.2.26,1.49,1.52.79.58.36.36.22.33.41.65.41.65,2.18-4-.21-.29-.24-.24-.44-.45-.07,0-.5-.41-1.33-1.27-.24-.29-.81-1.42-.39-.65-.33-.58-.08-.09-1.25-1.64-1.32-2.07-1.13-1.27-.55-.58-.44-.31-.09-.05-.22-.41-.12-.14-.31-.63-.07-.36-.6-1.63-.29-.51-.36-.43-1.25-1.9-.27-.32-.36-.36-1-1.25-.38-.38-.41-1-.46-.6-.36-.37-.36-1.17-.26-.53-.39-.58-.62-.6-.77-.46-.17-.29-.48-.62-.41-.68-.29-.36-.48-.45-.26-.53-.44-.6-.57-.58-.29-.19-.46-.22-.29-.1-.62-.09h-.39l-1.42.6-.19.19-.38.53-.1.19-.17.75-.19.48L258,127l-.14.43-.61.12h-1l-1.11-.43-.69-.15-.68-.29-.79-.48-.48-.55-.75-.63-1.2-.77-.86-.31-1.4-.22h-.46l-.24,0-2.93-1.76-1-1.13-1.08-1-.19-.24-.48-.8,0-.09.84.48.51.17.48.09,1.54,0,1.58-3.22-1.2-1.59-.72-1.08-.79-.94-.92-1.51-.12-.46-.14-.41-.44-.87-.31-.84-.26-1-.68-1.66-2.81-5.2-1.11-2.38-.38-.84-1.59-2.84L234.66,92l-.2-2.46-.09-.43-.75-2.48-.91-2.35-.22-.39-2-3-3.83-4.25-2.09-3-2.16-3.3-1.69-3-.31-.41-3-3.06-.43-.33-2.29-1.35-4-1.44-2-1.06-.43-.24-.41-.2L206,58.78l-1.68-.27-.26,0-1,.12-1.51,1.13-.43.91-.32.15-.64-.07-.17-.22-.51-.43-.74-.48-.58-.51-2.26-1.9-1.49-1.59-.92-.91-.12.12-.31-.55-.58-.32-2.09-1.56-.36-.19L189,51.71l-1.2-.39-.58-.09h-1.94l-.53-.08-.12.12-1.06-.69L182.9,50l-3.1.63-.09.19-.2,1.18.29,1.92.19.87-.38.5-1.76.87-.16,0L176.48,56l-1.13.19-.19.09-.89.87-.29.6-.21.89v1.13l.09.65.29.7.48.77.89,1.22.19.25.1.21-.31.75-.58.93-.26.1-.41.17H174l-.79.34,0-.05-.55.21-.43.24-.44.32-.24,0-1.3-.62L169,65.44l-.53-.15-.74-.09-.75,0-.82.24-.82.36-.64.5-.58.68-.34.55-.19.48-.07,1.23.19.77.14.41.08.12-.1.62-.17.6-.24,1.11-.14.36-1.25.34-.15.16-.17,0-1.8,2,.14.92.2.48.31.55v0l-.1.38-.21.58-.1.51-.75-.32h-.28l-1.66.89-.2.29-.24.48-.07.22-.48.34-.48.6-.48.29-.19.38-.22.92.53,1.37.24.43v0l-2.16-.77-.08-.6-1.44.19-.63.19-1,.48-.53.39-.81-.29-.75-.1-1.68,3.37,1,1.35.17.89.19,1.92-.4,0h0l-.09-.17-.89-.91-.2-.1-.89-.19h-.38l-.92.19-.19.1.05.1-.53,0-1,.84-.2.29-.31.57.05,0-.43.31-.17.17-.58.31-.38.29-.82,1.61v.24l-.19.46-.17.58-.1.77,0,1.66-.07.38-.56,1.11-.81,1L137,103l-.24.67-.19,1.06.07,1,.46,1.45.65,1.42.26.48-.19.45-.12.49-.43.57-.51.17-1,.67-.17.22-.24.12-.33.07-1.59,1.35-.1.29.87,2.33.29.17.5.5,1.23.56.67.07.72.36-.33.29-.29.31-.29.39-.31.65-.2.67,0,.86.16,1.09,0,.12-.51.57-1,.65-1.22.6-1,1-2.09,4.77-.12,1.25.17.72-.65-.1h-.53l-.86.12-1.45,1.16-.38.86-.17.82V135l.39,1.17.38.53.63.8.67.48.84.31-.29.72-.09.48.36,1.59.28.38.32.34-.15.48-.26,1.73,0,.53-.39.72-.46.73-.24.6-.29,1.25,0,.62.14,1.57-.12.26-1.18.41-1.42.65-1.15,1.54-.19,1.32.14,1.06.6,1.47.24,1.1.19,1.11.22,1.1-1.71.73-.43.24-1.13.86-.65.82-.84,1.95-.94,1.87-1.35,1.13-.79.63-1.66,1.08-.7,2.53,1.06,2.21.27.43.41,1.16.6.91.14.1.1.31v.58l-.46.57-.31.29-.58,1.18-.14,0-1.45.8-.28.38-.37,1.59.1.48.72.84v.29l.22.89.07.51.19.57.44.7-.08.07-.31,2,.1.22,0,.36,0,.53,1,2-1.25,1-1.1.72.89,1.49-1.18.17.19,1.35.12.45.39.94.21.41.8,1.15.4.73.22.45-.72,3-.63.91-.53.49-.86.45-1.18.75-.65.7-.48.86-.22,1.32.2,1.06.55,1.06.26.29-.07.22-.17-.08-.57,1.45.36,2,.77.87.72.52,1.8.77.34-.07,0,.39.19.74-.12.72,0,.82.2.77.5.91.22.22.14,1.9-.36.12-1,.1-.57.17-.68.28-.79.63-.46.58-.26.21-.65.92-.19.57-.17,1.16,0,1,.89,1.39-.12.12.1.1.14.05.53.53,1.16.67.5.22L116,233l-.31,1.49,0,.46v1.64l-.31.53-.12-.22-1.78-1.08h-1.25l-.84.19-1.4.7-.43.29-.94.86-1.32.87-1.2,1-.39.44-.58.86-.29,1.59.13.48-.7.22-.39.19-.89.89-.45,1.1.33,1.83-.09,0,.53.87-.58.24-1,.33-1.06.27-1,.31-.63.31-.79.6-.7,1-.19.65-.08.84.1.67.19.6.29.58L98,255l-.08.22-.09.77.34,1.22-.27.12-.43.15-1.08.86-.29.48-.24,1.52.26.91-.38.94-.12-.1H95l-.21.1h-.36l-.27.27-.62.28-.1.1.19.17-1.2,1.18v.72l-.31.38-.65.1-.82.24-.75.46.08-.15-.2-.09-.89-.22H88.3l-1.23.31-.67.46-.39.38-.5.92-.1.38.12,1.33.27.72-.24.16-.27.13-.5.38-.39.17-.19.19-.82,1.18-.26.48-.34.46-.36.72-.19.62-.36,0-.82.19-.19.07-.85.73-.19.28-.26.63-.1.38-.07.49v.16l-.24.17-.6.56-.48,1.17H78l-.07.36-.09.27-.44,1.49-.26.38-.1.2-.21.89v.38l0,.1-.31.74v.29l.21.92.2.38.38.51.1.09,2,.48.51-.17.33.56-.33.14-.2.19-.5,1.28-1.85.53-.39.38-.48.77-.09.29-.08,1,.08.29v.27l.45.89.32.89-.15.07.07.14-.89.44-.29.38.1.07v.46l-1.13.34-.29.19-.58.55-.26.39-.67.26-.24.07-.63.27-.29.19-.41.46-1.13.29-.38.29-.12.26-.87-.19h-.19l-.89.19-.72.48-.1.1-.53,1.3-.57,0-.2.1-.52.55-.39-.09h-.58l-.89.21-.12.08-.89-.1H62.2l-.93.17-1.09-.41-.74-.15h-.39l-.89.22-.38.19-1.18.8-.6.53-.65.72-1.25,1.3-.38.5-.12.24-.15.22-.41,1.2.12,1.15.34,1.21.41.84.6.7.38.28v0l.92.51h.09v.21l0,.05-.41.43v.75L55,315.33l-.1.38,0,.46v.14l-.82.46-.51.36-.29.29-.36.53-.09.19-.22.89v.43l-.12.29-.26,1v.2l.57,1.41.2.2.52.36.63.31,1.15.46.89.17,2,0,1.87-.21.44-.08h1.8l.87-.14,3.8-.34h2.67l1.61.34,1,.26,1.92.32,1.54.12h2.14l5.42.38,2.64.2h2.45l2.29-.2,2.31-.31,1.18-.24h.33l.51-.07,4.28,0,.38,0,1.93-.41,2-.73.53-.07h2.76l-.09.29-.29,1.88,0,1,.12.94.53,1.1.2.19.48.36-.08.61,0,.64-.05.25-.12.31-.17.21-.09.08-.89,1.66v1.7l-.1.63v.82l-.48,2.14-.14.17-.6,1.22-.1,1.54.1.27.48.76.43.44-.43.62-.2.39-.21.89v.38l.14.87.17.5.36.75.39.53.28.29.39.31.48.29,1,.29h.34l.72.09.29.12.26.19.37.37.26.31.17.36.29.41.26.33.22.65.55,1,.29.41-.31.7-.2.77,0,.82.1.57.41.89.36.49.53.48.4.24,0,.33-.12.65-.26,1.08-.12.58.09,1.13.2.48.45.68.39.38.36.29-.05,1,.19,1,.32,1.23-.17,2,0,.94-.51,1,0,1.71.41.91-.2.41-1,1.08-.53,1.5.1,1.44.17.7.31.69.07,1.28-.17.36-.07.09h-.91l-.87-.16-.91,0-.67.2-1.25,1-.56,1.16-.19,1.22.19,1.06.24.65,1.61,2.74,1,1.73.4.53.56.48.29.65.77.89,1.66,1,.72,1,.5,1.06.92.93.79.44.46.38.57.34,1.06.38.46.1.58.07.38.17.72.22.17.19.89.77.19.53,1.69,3.15.21,1.2.07,1,.46,1.7.46,1.16.21.38,1.33,1.95.05.53.07.41.57,1.83.24.6.08.55,1.42,1.71,1.61.48,2,.38.87.34,1.95.46.64.17.36.14.73.14h1.49l3.39,2.12,1.08.82,1.32.91,1.59.29.77-.17,1.83.43,2,.73.05.6.79,1.42.39.28,1.2.39H156l2.62-.19.43-.07,2.22-.68.57-.31,1.3-.94.6-.29.68.12L167,424.7l1.88.84.82.17h.36l1.15.27,2,.31,1.73.19h1.3l.62.1h1.66l.53.55.58-.07,1.46-.36,1.38-.29.38.91,1.23,2.36.81.84.51.29-.24.5-.43.68-1.47,2.84-.82,1.44-1.39,2.79-.17.21-.65,1.38-.34.6-1.27,2.67L177,446.87l1.76,3h60.94l.86-.12.29.29h.1l.48-.05,2.36-.72.24-.1.38.05.36,0v-.08l.34-.07.19.77h79l.08-.14.14.14H357l.34-.46h.1l.45.46h87.78l1.71-.91.14-.24.31-1.08V393.94Zm-55.5,39v-.86l1,.26h.79l.12,0,.29,0,.34.53.43.34-.12.12-.62.34-1,.79h-.28l-1.18-.24-.05-.17Zm-12-7.57,0-1.18.07-.41.17-.67.12-.75-.05-.58.44,0,.62.84.63.58.48.29.45.21.94,1.28.72.6.77.38.63.27.14,0-.07,1,.15.75.19.48.26.46.36.53-1.1,1-.39.48-.31.53-.31.41-.6.21-.48,0-.61-.19-.65-.32-1.2-.89-.84-.77-.29-.5-.14-.84v-.75l-.17-1.9Zm-4-15.32-.24.38-.53.44-.56.14-.4.1-1.06.36-.72.45-.39.39-.29.38-.29.48-.19.39-.19.58-.1.65v.55l.29,1,.58,1,.48.56.14.12-.07,0-.5-.31-.32-.17-.86-.69-.41-.29-.77-.36-.46-.17-.86-.19-.72.33L367,414l.26-.29-.09-.1.26-.16h.05l.07.07.27-.24.41-.31.24-.25.14-.12v0l.43-.31.1.07.29-.22.58-.31.67-.65.67-1,.77-.87.17-.21.27-.24.72-.44.17,0,.31-.17,1.22-.15,1-.48Zm3.36-21,.12-1.85v0l.48.24.68,1.18.53,2.91,1,2.91.22-.07,1.08,1.08.29.75-.27.33-.57,1.08-.34.39-.48.75.17-1.06-.39-.94-.24-.29.17-.7-.48-1.34-.87-.6.12-.13-.19-.19-.17-.12-.31-.62-.17-.58-.89-2-.05-.24Zm.87,12.48-.1.5v.77l-.41.36-.19.05-.6.31-.38.27-.08-1Zm-2.84-38.65-.21.05-1.11-.41-.75-.14H374l-.72.09h-.34l-.43-.07-.89,0-1.9,1.37-.1.29,0,1.32.29.77.79,1,.29.19.6.24.17.09.41.63-.12.5,0,.89.1.49.29.81.29.51.74.91,1.44,3.87.32.58.65.82.43.79-.43.72-2.19-5.17-.77-1.7-.6-.77-6-4.74,1.44-1.44v-1.16l-.14-.86-1.49-1.57-.22-.05.87-.77h.05l.6-.57.29-.39.43-.72.29-.24.81-.38.58-.15.82-.26.63-.05h.88l.82.1,1.18.48.48.28.07.46.24.22.53.46.48.28,1,.29h.65l-.05.77.1.39,0,.72Z"/><ellipse class="cls-1" cx="315.08" cy="277" rx="6.99" ry="7.33"/><path class="cls-1" d="M322.07,213.3v.17a5.46,5.46,0,0,1,0,.57h0l-2,34.68L319.8,252l-.39,6.8a4.53,4.53,0,0,1-2.75,4.24,4,4,0,0,1-1.57.32h0a4,4,0,0,1-1.59-.32,4.52,4.52,0,0,1-2.74-4.24L310,246.52l-.25-4.31-1.64-28.08v-.06s0-.09,0-.15a2.82,2.82,0,0,1,0-.41s0,0,0,0v-.17a7,7,0,1,1,14,0Z"/><path class="cls-1" d="M420.83,312.13,323.29,134.92a9.26,9.26,0,0,0-16.42,0l-15,27.3-2,3.54L209.32,312.13a10.24,10.24,0,0,0,0,9.95,9.28,9.28,0,0,0,8.2,5H412.63a9.32,9.32,0,0,0,8.22-5A10.24,10.24,0,0,0,420.83,312.13Zm-4.06,7.47a4.69,4.69,0,0,1-4.14,2.52H217.52a4.72,4.72,0,0,1-4.14-2.52,5.22,5.22,0,0,1,0-5l79.88-145.11,1.85-3.33L311,137.37a4.67,4.67,0,0,1,8.26,0L416.77,314.6A5.17,5.17,0,0,1,416.77,319.6Z"/><path class="cls-1" d="M417.27,314.31,319.73,137.1a5.25,5.25,0,0,0-9.3,0l-15.76,28.62-1.77,3.2-80,145.39a5.77,5.77,0,0,0,0,5.58,5.28,5.28,0,0,0,4.64,2.79H412.63a5.27,5.27,0,0,0,4.64-2.79A5.77,5.77,0,0,0,417.27,314.31Zm-4.64,7.22H217.52a4.1,4.1,0,0,1-3.62-2.2,4.59,4.59,0,0,1,0-4.46l79.71-144.82,1.89-3.44,15.95-29a4.09,4.09,0,0,1,7.26,0l97.54,177.23a4.59,4.59,0,0,1,0,4.46A4.1,4.1,0,0,1,412.63,321.53Zm4.64-7.22L319.73,137.1a5.25,5.25,0,0,0-9.3,0l-15.76,28.62-1.77,3.2-80,145.39a5.77,5.77,0,0,0,0,5.58,5.28,5.28,0,0,0,4.64,2.79H412.63a5.27,5.27,0,0,0,4.64-2.79A5.77,5.77,0,0,0,417.27,314.31Zm-4.64,7.22H217.52a4.1,4.1,0,0,1-3.62-2.2,4.59,4.59,0,0,1,0-4.46l79.71-144.82,1.89-3.44,15.95-29a4.09,4.09,0,0,1,7.26,0l97.54,177.23a4.59,4.59,0,0,1,0,4.46A4.1,4.1,0,0,1,412.63,321.53Zm8.72-9.67L323.79,134.63a9.83,9.83,0,0,0-17.42,0l-14.88,27-1.94,3.54L208.8,311.86a10.81,10.81,0,0,0,0,10.49,9.87,9.87,0,0,0,8.72,5.28H412.63a9.87,9.87,0,0,0,8.72-5.28A10.81,10.81,0,0,0,421.35,311.86Zm-8.72,14.61H217.52a8.76,8.76,0,0,1-7.7-4.67,9.7,9.7,0,0,1,0-9.4l80.44-146.12,1.91-3.5,15.2-27.59a8.68,8.68,0,0,1,15.42,0L420.33,312.4a9.65,9.65,0,0,1,0,9.4A8.74,8.74,0,0,1,412.63,326.47ZM319.73,137.1a5.25,5.25,0,0,0-9.3,0l-15.76,28.62-1.77,3.2-80,145.39a5.77,5.77,0,0,0,0,5.58,5.28,5.28,0,0,0,4.64,2.79H412.63a5.27,5.27,0,0,0,4.64-2.79,5.77,5.77,0,0,0,0-5.58Zm92.9,184.43H217.52a4.1,4.1,0,0,1-3.62-2.2,4.59,4.59,0,0,1,0-4.46l79.71-144.82,1.89-3.44,15.95-29a4.09,4.09,0,0,1,7.26,0l97.54,177.23a4.59,4.59,0,0,1,0,4.46A4.1,4.1,0,0,1,412.63,321.53Zm4.64-7.22L319.73,137.1a5.25,5.25,0,0,0-9.3,0l-15.76,28.62-1.77,3.2-80,145.39a5.77,5.77,0,0,0,0,5.58,5.28,5.28,0,0,0,4.64,2.79H412.63a5.27,5.27,0,0,0,4.64-2.79A5.77,5.77,0,0,0,417.27,314.31Zm-4.64,7.22H217.52a4.1,4.1,0,0,1-3.62-2.2,4.59,4.59,0,0,1,0-4.46l79.71-144.82,1.89-3.44,15.95-29a4.09,4.09,0,0,1,7.26,0l97.54,177.23a4.59,4.59,0,0,1,0,4.46A4.1,4.1,0,0,1,412.63,321.53Zm4.64-7.22L319.73,137.1a5.25,5.25,0,0,0-9.3,0l-15.76,28.62-1.77,3.2-80,145.39a5.77,5.77,0,0,0,0,5.58,5.28,5.28,0,0,0,4.64,2.79H412.63a5.27,5.27,0,0,0,4.64-2.79A5.77,5.77,0,0,0,417.27,314.31Zm-4.64,7.22H217.52a4.1,4.1,0,0,1-3.62-2.2,4.59,4.59,0,0,1,0-4.46l79.71-144.82,1.89-3.44,15.95-29a4.09,4.09,0,0,1,7.26,0l97.54,177.23a4.59,4.59,0,0,1,0,4.46A4.1,4.1,0,0,1,412.63,321.53Z"/></svg>