<svg id="Layer_1" data-name="Layer 1" xmlns="http://www.w3.org/2000/svg" viewBox="0 0 500 500"><defs><style>.cls-1{fill:#2d98d4;}</style></defs><title>recentlyupdated</title><path class="cls-1" d="M245,57C134.72,57,45,146.72,45,257s89.72,200,200,200a198.88,198.88,0,0,0,77.11-15.46l1.62-.71c-.06-3.33-.16-6.64-.08-9.95a189.66,189.66,0,0,1-78.65,17C139.75,447.87,54.13,362.25,54.13,257S139.75,66.13,245,66.13a191.39,191.39,0,0,1,156,81l3-11.31q-5.16-6.74-10.84-13A199.58,199.58,0,0,0,245,57Z"/><circle class="cls-1" cx="248.63" cy="90.98" r="6.56"/><circle class="cls-1" cx="248.63" cy="418.94" r="6.56"/><circle class="cls-1" cx="84.65" cy="254.96" r="6.56"/><path class="cls-1" d="M364.77,132.26a6.55,6.55,0,1,0,0,9.27A6.54,6.54,0,0,0,364.77,132.26Z"/><path class="cls-1" d="M119.36,355.27a6.56,6.56,0,1,0,9.28,0A6.57,6.57,0,0,0,119.36,355.27Z"/><circle class="cls-1" cx="137.12" cy="134.93" r="6.56"/><path class="cls-1" d="M462.73,139l2.61-5.13a8.74,8.74,0,0,0-3.07-11.48,8.56,8.56,0,0,0-12,3.44l-2.75,5.39a11,11,0,0,0-12.79,5.52L357,288.86l-1.54,3-.64,2.67L341,351.9l-1.65,3.24a3,3,0,0,0,1.32,4.07h0a3,3,0,0,0,4.07-1.31l1.66-3.25,38.34-44.83,1.79-2.08,1.54-3,77.66-152.09A11,11,0,0,0,462.73,139Zm-83.5,168L349.79,341.4l10.61-44Zm-16.8-15.37L433.57,152.3l7.44,3.79L414,209a3,3,0,0,0,1.32,4.08h0a3,3,0,0,0,4.07-1.32l27-52.93,7.44,3.8L382.71,302Zm73.9-144.72,3.76-7.37a4.89,4.89,0,0,1,6.56-2.13l11.59,5.92a4.87,4.87,0,0,1,2.12,6.56l-3.76,7.38Zm23.76-16-2.66,5.22L453,133.83l2.67-5.21a2.5,2.5,0,1,1,4.45,2.27Z"/><path class="cls-1" d="M257.5,375.88c-2.24-2.33-4-4.78-3.39-8.2.58-3.23,2.67-6.23,4.73-8.7a21.67,21.67,0,0,1,7.23-5.84,31.87,31.87,0,0,1,9.05-3c3.41-.52,7.13.33,10.4,1.26a25.23,25.23,0,0,1,8.54,4.43c5.58,4.22,11.48,8.47,17.8,11.52,3.77,1.82,8.18,3.37,12.41,2.6,3.64-.66,6.07-3.27,8.54-5.78,2.72-2.75-1.52-7-4.24-4.24-1.87,1.89-3.58,4.29-6.41,4.24-3.46-.07-6.76-1.62-9.71-3.29-3.26-1.83-6.41-3.88-9.49-6s-5.8-4.42-8.88-6.35a30.91,30.91,0,0,0-10.48-3.76,26.76,26.76,0,0,0-12.14.07,40.11,40.11,0,0,0-10,4,27.38,27.38,0,0,0-7.83,7.14c-2.75,3.53-5.15,7.51-5.56,12.06-.44,4.87,2,8.73,5.21,12.09,2.68,2.79,6.92-1.46,4.24-4.24Z"/></svg>