<svg id="Layer_1" data-name="Layer 1" xmlns="http://www.w3.org/2000/svg" viewBox="0 0 500 500"><defs><style>.cls-1{fill:#2d98d4;}</style></defs><title>recentlyissued</title><path class="cls-1" d="M253,49C142.72,49,53,138.72,53,249s89.72,200,200,200a198.88,198.88,0,0,0,77.11-15.46l1.62-.71c-.06-3.33-.16-6.64-.08-9.95a189.66,189.66,0,0,1-78.65,17C147.75,439.87,62.13,354.25,62.13,249S147.75,58.13,253,58.13a191.39,191.39,0,0,1,156,81l3-11.31q-5.16-6.73-10.84-13A199.58,199.58,0,0,0,253,49Z"/><circle class="cls-1" cx="256.63" cy="82.98" r="6.56"/><circle class="cls-1" cx="256.63" cy="410.94" r="6.56"/><circle class="cls-1" cx="92.65" cy="246.96" r="6.56"/><path class="cls-1" d="M372.77,124.26a6.55,6.55,0,1,0,0,9.27A6.54,6.54,0,0,0,372.77,124.26Z"/><path class="cls-1" d="M127.36,347.27a6.56,6.56,0,1,0,9.28,0A6.57,6.57,0,0,0,127.36,347.27Z"/><circle class="cls-1" cx="145.12" cy="126.93" r="6.56"/><path class="cls-1" d="M453.56,272l-8.07-2.16-15.26-4.09-8.78-2.35-29.08-7.79,22.24-83,2.69-10L427.1,126l-19.4,25.06-5,6.5L295.57,295.88l80.25,21.5-28.37,105.9-2.7,10L341.09,447l14.43-18.64,13-16.76,68.33-88.24,12.91-16.67,22.89-29.56ZM442.8,300l-52.86,67.92-3.21,4.13h0l-25.87,33.24L384,318.87l2.31-8.63-8.63-2.31L311,290.09l95.85-123.18-23.15,86.4L381.42,262l8.64,2.31,31.23,8.38h0l4.43,1.19h0l19.5,5.24,8,2.13,3.5.94-4,5.11Z"/></svg>