<svg xmlns="http://www.w3.org/2000/svg" viewBox="0 0 500 500"><defs><style>.cls-1,.cls-2{fill:#a2b1ba;}.cls-1{opacity:0.19;}</style></defs><g id="dashboards"><circle class="cls-1" cx="279.03" cy="222.49" r="167.19"/><path class="cls-2" d="M279,22.49c-110.47,0-200,89.54-200,200s89.54,200,200,200S479,333,479,222.5,389.5,22.49,279,22.49ZM279,408A185.49,185.49,0,1,1,464.52,222.49,185.48,185.48,0,0,1,279,408Z"/><path class="cls-2" d="M359.12,219.77H310.24a2.77,2.77,0,0,0-.92.14,2.82,2.82,0,0,0-.33,5.16,2.91,2.91,0,0,0,1.25.26h48.88a2.62,2.62,0,0,0,2.76-2.78A2.77,2.77,0,0,0,359.12,219.77Z"/><path class="cls-2" d="M375,172H357.17v-2.78a2.62,2.62,0,0,0-2.78-2.78H344.12v-2.22a9.36,9.36,0,0,0-9.45-9.44,9.59,9.59,0,0,0-9.71,9.44v2.22h-7.2V113.63a2.44,2.44,0,0,0-2.46-2.45H199.68a2.45,2.45,0,0,0-2.45,2.45v106.3H182.8a2.46,2.46,0,0,0-2.46,2.46v109a2.46,2.46,0,0,0,2.46,2.45H332.19a2.44,2.44,0,0,0,2.45-2.45V285H350v0h25a2.62,2.62,0,0,0,2.77-2.78V174.78A2.62,2.62,0,0,0,375,172Zm-47.21,0a2.62,2.62,0,0,0,2.77-2.78v-5a4,4,0,0,1,4.16-3.89,3.8,3.8,0,0,1,3.89,3.89v5a2.62,2.62,0,0,0,2.78,2.78h10.27v7.76H317.45V172h10.29ZM276,116.32h37V134.8H276Zm-31.36,0h25.76v33l-10.91-11.48a3.12,3.12,0,0,0-2-.84,2.55,2.55,0,0,0-2,.84l-10.93,11.48Zm-42.55,0h37V134.8h-37Zm0,24.07h37v16a2.84,2.84,0,0,0,1.68,2.52,2.53,2.53,0,0,0,3.07-.56l13.72-14.55,13.72,14.55a2.54,2.54,0,0,0,3.08.56,2.69,2.69,0,0,0,1.68-2.52v-16h37V167a2.64,2.64,0,0,0-1,2.22v2.49H294.13a2.61,2.61,0,0,0-2.56,1.61v46.57H202.06Zm89.51,103.16H281.15V225.07h10.42ZM274,225.07v33l-14-11.48a4.53,4.53,0,0,0-2.51-.82,3.81,3.81,0,0,0-2.51.82L241,258.1v-33Zm-87.46,0h47.31v18.48H186.53ZM328.46,328.66H186.53V249.14h47.31v16a2.94,2.94,0,0,0,2.16,2.52,3.9,3.9,0,0,0,3.93-.57l17.56-14.55,17.57,14.55a3.92,3.92,0,0,0,3.94.57c1.43-.57,2.15-1.41,2.15-2.52v-16h10.42v34.91a2.79,2.79,0,0,0,.42.95h36.47Zm43.71-49.19H296.91V177.56h15v5.29a2.65,2.65,0,0,0,1,2.22,2.81,2.81,0,0,0,1.75.55h39.7a2.62,2.62,0,0,0,2.78-2.77v-5.29h15Z"/><path class="cls-2" d="M359.12,239.77H310.24a2.62,2.62,0,0,0-2.78,2.76,2.76,2.76,0,0,0,.18,1,2.56,2.56,0,0,0,2.6,1.76h48.88a2.62,2.62,0,0,0,2.76-2.78A2.77,2.77,0,0,0,359.12,239.77Z"/><path class="cls-2" d="M359.12,259.49H310.24a2.78,2.78,0,1,0,0,5.55h48.88a2.62,2.62,0,0,0,2.76-2.78A3,3,0,0,0,359.12,259.49Z"/><path class="cls-2" d="M312.94,200.05h-2.7a2.78,2.78,0,0,0,0,5.56h48.88a2.78,2.78,0,0,0,0-5.56H312.94Z"/></g></svg>