<svg id="Layer_1" data-name="Layer 1" xmlns="http://www.w3.org/2000/svg" viewBox="0 0 500 500"><defs><style>.cls-1{fill:#2d98d4;}</style></defs><title>responders</title><path class="cls-1" d="M264.42,130.23c-1.56-.78-1.65-2.38-1.47-5.58,0-.82.08-1.64.08-2.2.52-8.74-2.94-17-6.09-23.3-3.72-6.4-9.69-12-17.86-16.65a45.65,45.65,0,0,0-28.49-4c-6.61,1.6-16,5.15-23.21,12.93-3.33,3.8-6.62,8-8.52,13l-.65,1.64.78.52.3.17a5.26,5.26,0,0,0-.3.7,41.36,41.36,0,0,0-4,17.81A42,42,0,0,0,217,167.19,42.3,42.3,0,0,0,229,165.46a41.83,41.83,0,0,0,27.74-26.92l.36.14.32-.05,9.23,3.57,1.13.44.95-.74a4.56,4.56,0,0,0,2-4C270.47,133.73,264.76,130.45,264.42,130.23Zm-36.71,31.08A37.58,37.58,0,0,1,183,109.05c4.19,1.68,8.35,3.37,12.54,5,1.34.56,2.68,1.12,4,1.64l14.27,5.71h0q10.78,4.34,21.58,8.64h0q8.58,3.45,17.15,6.86A37.32,37.32,0,0,1,227.71,161.31Zm30.74-26.89-4.54-1.77,0,.09q-15.12-6-30.21-12.08h0q-10.8-4.32-21.61-8.65h0l-4.19-1.68c-4.28-1.68-8.56-3.41-12.84-5.1l.05-.09-1.47-.82a46.22,46.22,0,0,1,7-10c6.44-6.91,15-10.11,20.92-11.54a41.25,41.25,0,0,1,25.55,3.55c7.39,4.23,12.8,9.29,16.08,14.87,3,6.09,6,13.36,5.58,21.18,0,.65,0,1.34-.09,2-.17,3-.43,7.57,3.72,9.64a10,10,0,0,1,3.55,3.25C263.42,136.33,261,135.37,258.45,134.42Z"/><path class="cls-1" d="M168.74,275.09a10.55,10.55,0,0,1-4.58-1l-.69-.33a10.7,10.7,0,0,1-5-14.25l29.13-61a6.43,6.43,0,0,0-3.25-8.59L151,175.68a6.48,6.48,0,0,0-2.17-.5c-8.56-.45-29.63.5-40.4,19.06l-12.77,22A10.69,10.69,0,0,1,81,220.16l-.65-.38a10.69,10.69,0,0,1-3.89-14.61l12.77-22c20.46-35.32,63.22-29.95,65-29.69a11.22,11.22,0,0,1,2.82.78L210.2,176.9a11.06,11.06,0,0,1,5.17,14.72l-37,77.4A10.7,10.7,0,0,1,168.74,275.09Zm-22.56-104.3c1.13,0,2.09,0,2.86.07a10.86,10.86,0,0,1,3.63.84L186,185.92a10.7,10.7,0,0,1,5.63,14l-.18.41-29.13,61a6.37,6.37,0,0,0,3,8.48l.68.33a6.37,6.37,0,0,0,8.49-3l37-77.39a6.73,6.73,0,0,0-3.16-9l-52.88-22.57a7.12,7.12,0,0,0-1.71-.48C152,157.52,112,152.46,93,185.31l-12.77,22a6.37,6.37,0,0,0,2.32,8.7l.65.38a6.37,6.37,0,0,0,8.69-2.31l12.77-22C115.68,173.1,136.66,170.79,146.18,170.79Z"/><path class="cls-1" d="M223.43,375.23c0-.09,0-.22,0-.31-.17-1.29-.39-2.63-.6-4-1.39.34-2.82.64-4.24.86.21,1.25.39,2.51.56,3.72,0,.21,0,.39.09.6a94.87,94.87,0,0,1,.9,17.82,63.72,63.72,0,0,1-2.29,15l-.43,1.42c-.52,1.65-1,3.07-1.6,4.41a5.42,5.42,0,0,1-1.12,1.65,5.26,5.26,0,0,1-1.39.95l-.51.21a5.65,5.65,0,0,1-2.12.26,2.79,2.79,0,0,1-.82-.13,5.51,5.51,0,0,1-2.3-1.21l-2.42-2.07a5.21,5.21,0,0,1-1.47-5.75c.26-.65.48-1.3.74-2.08a50.67,50.67,0,0,0,2-11,77.56,77.56,0,0,0-.39-16c-.09-1-.22-1.91-.39-2.9-.17-1.47-.43-2.94-.73-4.45a2.62,2.62,0,0,1-.61-.13,6.93,6.93,0,0,1-4.71-4.24c.13.48.26.95.35,1.38q.65,3.18,1.16,6.23c.26,1.55.48,3.11.65,4.62a75.06,75.06,0,0,1,.39,15.14,46.64,46.64,0,0,1-1.9,10c-.18.64-.39,1.25-.61,1.81a9.54,9.54,0,0,0,2.68,10.59l2.38,2a9.54,9.54,0,0,0,4.11,2.16,9.94,9.94,0,0,0,1.51.26c.26,0,.52,0,.78,0a9.57,9.57,0,0,0,3.07-.56,4.44,4.44,0,0,0,1-.39,8.71,8.71,0,0,0,2.55-1.77,9.17,9.17,0,0,0,2.08-3c.6-1.43,1.21-3,1.77-4.84l.43-1.52a69.65,69.65,0,0,0,2.47-16A101.9,101.9,0,0,0,223.43,375.23Zm-24.08-11.59a6.93,6.93,0,0,1,2.6-3.8l-1.47-4.2-2.81-8.26a55.6,55.6,0,0,0-3.42-8.08c-.56-1.12-1.17-2.2-1.77-3.16a32.13,32.13,0,0,0-5.62-6.78,11.57,11.57,0,0,0-3.5-2.38,4.6,4.6,0,0,1-.87-.43c-.26-.18-8.08-4.76-18.85-11.24-4.67-2.81-9.85-6-15.21-9.3-5.75-3.59-11.72-7.3-17.38-11-7.7-5-12.54-11.8-14.05-19.84-2.68-14.18,5.36-27.54,7.91-31.3.13-.22.3-.48.43-.69l24.47-46.44a3.41,3.41,0,0,1,2-1.68,3.81,3.81,0,0,1,1-.13,3.38,3.38,0,0,1,1.6.39l5.87,3.07a3.51,3.51,0,0,1,1.69,2,3.38,3.38,0,0,1-.26,2.59l-24.9,47.17a4.38,4.38,0,0,1-.52.86c0,.09-8,11.5-6,21.66.86,4.41,3.5,8,8.08,11,4.89,3.16,10,6.36,15,9.47s10.16,6.27,14.79,9.08c10,6.05,17.9,10.72,20.49,12.23l.61.35c4.06,1.86,14.26,8.34,21,27.67l1.86,5.36a7,7,0,0,0,.6,1.34,6.29,6.29,0,0,1,.43,1c.39,1.3.78,2.6,1.17,3.85.17.61.39,1.26.56,1.86.22.78.44,1.6.65,2.38a32.47,32.47,0,0,0,4.24-.82c-.22-.91-.48-1.86-.74-2.77-.13-.47-.3-.95-.43-1.47-.43-1.43-.86-2.9-1.34-4.37a11.61,11.61,0,0,0-.78-1.77,1.61,1.61,0,0,1-.26-.6l-1.86-5.41c-7.3-20.88-18.72-28.06-23.64-30.39-2.47-1.43-10.38-6.1-20.32-12.15-4.59-2.76-9.6-5.83-14.75-9-5-3.07-10.07-6.32-14.95-9.43-3.55-2.29-5.58-5-6.19-8.17-1.34-6.92,3.55-15.78,5.37-18.37a9.63,9.63,0,0,0,.82-1.3l24.86-47.17a7.72,7.72,0,0,0-3.25-10.46l-5.83-3.11a7.87,7.87,0,0,0-5.93-.52,7.77,7.77,0,0,0-4.54,3.76l-24.68,46.74c-2.77,4.1-11.59,18.72-8.6,34.5,1.77,9.25,7.26,17.07,16,22.69,5.66,3.68,11.67,7.44,17.42,11,5.41,3.32,10.6,6.48,15.27,9.29,10.89,6.57,18.8,11.2,18.84,11.24a8.63,8.63,0,0,0,1.56.78,10.94,10.94,0,0,1,2.21,1.56,27.47,27.47,0,0,1,4.79,5.92,29.46,29.46,0,0,1,1.65,2.81,58.93,58.93,0,0,1,3.15,7.48l3.42,10,.86,2.56c.48,1.68.91,3.28,1.26,4.84A7.21,7.21,0,0,1,199.35,363.64Z"/><path class="cls-1" d="M123.05,309.6l-.48-.22A11.32,11.32,0,0,0,108,315l-7,14.87c-.43.91-9.38,18.81-27.24,23.39a32.71,32.71,0,0,1-4.28.82,34.4,34.4,0,0,1-7.35.13,11.13,11.13,0,0,0-6.48,1.47,11.37,11.37,0,0,0-5.27,6.88,11.3,11.3,0,0,0,5.88,13,11.16,11.16,0,0,0,2.07.82,17.29,17.29,0,0,0,2,.35c.17,0,.3,0,.47,0,1.47.09,3,.17,4.46.17a53.21,53.21,0,0,0,9.12-.78,34,34,0,0,0,4.24-.9,57,57,0,0,0,15-6.1,72.7,72.7,0,0,0,27.71-29.53l7-15A11.24,11.24,0,0,0,123.05,309.6Zm1.47,13.14-7,15a69.16,69.16,0,0,1-26,27.63A52.32,52.32,0,0,1,78,371c-1.39.34-2.81.64-4.24.86a48.27,48.27,0,0,1-13,.56,3.61,3.61,0,0,1-.65-.08,2.74,2.74,0,0,1-.61-.13,7,7,0,0,1-4.71-4.24,6.37,6.37,0,0,1-.43-1.77,7,7,0,0,1,.22-2.51,7,7,0,0,1,6.7-5.19c.17,0,.38.05.56.05a40.85,40.85,0,0,0,8.9-.22,32.47,32.47,0,0,0,4.24-.82c19.71-5.1,29.49-24.77,30-25.77l7-14.87a6.94,6.94,0,0,1,9.25-3.33l.3.17A7,7,0,0,1,124.52,322.74Z"/><path class="cls-1" d="M409.24,130.23c-1.55-.78-1.64-2.38-1.46-5.58,0-.82.08-1.64.08-2.2.52-8.74-2.94-17-6.09-23.3-3.72-6.4-9.69-12-17.86-16.65a45.66,45.66,0,0,0-28.49-4c-6.61,1.6-16,5.15-23.21,12.93-3.33,3.8-6.62,8-8.52,13l-.65,1.64.78.52.3.17a4.21,4.21,0,0,0-.3.7,41.36,41.36,0,0,0-4,17.81,41.95,41.95,0,0,0,81.74,13.28l.36.14.32-.05,9.23,3.57,1.12.44,1-.74a4.58,4.58,0,0,0,2-4C415.3,133.73,409.59,130.45,409.24,130.23Zm-36.7,31.08a37.58,37.58,0,0,1-44.7-52.26c4.19,1.68,8.34,3.37,12.54,5,1.34.56,2.68,1.12,4,1.64l14.26,5.71h0q10.79,4.34,21.57,8.64h0q8.56,3.45,17.14,6.86A37.3,37.3,0,0,1,372.54,161.31Zm30.74-26.89-4.54-1.77,0,.09q-15.1-6-30.2-12.08h0q-10.81-4.32-21.62-8.65h0l-4.18-1.68c-4.28-1.68-8.56-3.41-12.84-5.1l0-.09-1.47-.82a46.57,46.57,0,0,1,7-10c6.45-6.91,15-10.11,20.93-11.54a41.25,41.25,0,0,1,25.55,3.55c7.39,4.23,12.8,9.29,16.08,14.87,3,6.09,6,13.36,5.58,21.18,0,.65,0,1.34-.09,2-.17,3-.43,7.57,3.72,9.64a10,10,0,0,1,3.54,3.25C408.25,136.33,405.79,135.37,403.28,134.42Z"/><path class="cls-1" d="M313.57,275.09a10.62,10.62,0,0,1-4.59-1l-.69-.33a10.71,10.71,0,0,1-5-14.25l29.14-61a6.43,6.43,0,0,0-3.25-8.59l-33.33-14.22a6.53,6.53,0,0,0-2.17-.5c-8.56-.45-29.63.5-40.4,19.06l-12.77,22a10.69,10.69,0,0,1-14.6,3.88l-.66-.38a10.7,10.7,0,0,1-3.88-14.61l12.77-22c20.46-35.32,63.21-29.95,65-29.69a11.34,11.34,0,0,1,2.82.78L355,176.9a11.06,11.06,0,0,1,5.17,14.72l-37,77.4A10.7,10.7,0,0,1,313.57,275.09ZM291,170.79c1.12,0,2.09,0,2.86.07a10.86,10.86,0,0,1,3.63.84l33.34,14.22a10.71,10.71,0,0,1,5.63,14l-.19.41-29.12,61a6.36,6.36,0,0,0,3,8.48l.69.33a6.38,6.38,0,0,0,8.49-3l37-77.39a6.73,6.73,0,0,0-3.17-9l-52.87-22.57a7.12,7.12,0,0,0-1.71-.48c-1.69-.21-41.68-5.27-60.7,27.58l-12.77,22a6.38,6.38,0,0,0,2.31,8.7l.66.38a6.37,6.37,0,0,0,8.69-2.31l12.77-22C260.51,173.1,281.49,170.79,291,170.79Z"/><path class="cls-1" d="M403.43,217.18c-12.73,0-21.92-2.54-28.27-5.44a9,9,0,0,1-2.49-1.68,9.22,9.22,0,0,1-.4-13l2.48-2.77a9.23,9.23,0,0,1,10.42-2.38c6.87,2.81,22.75,6.23,51.73-2.55a9.19,9.19,0,0,1,11.39,5.83L449.6,199a9.22,9.22,0,0,1-6.12,11.49C427.35,215.38,414.13,217.18,403.43,217.18Zm-21.79-21.67a4.88,4.88,0,0,0-3.66,1.64L375.4,200a4.9,4.9,0,0,0,.23,6.9,5.07,5.07,0,0,0,1.32.88c9,4.13,29.47,9.42,65.27-1.45a4.9,4.9,0,0,0,3.25-6.08l-1.27-3.7a4.85,4.85,0,0,0-6-3.09c-30.26,9.17-47.22,5.44-54.64,2.4A5,5,0,0,0,381.64,195.51Z"/><path class="cls-1" d="M355.88,422.2a6.62,6.62,0,0,1-.77,0,8.39,8.39,0,0,1-1.49-.23,9.55,9.55,0,0,1-4.14-2.19l-2.36-2a9.51,9.51,0,0,1-2.69-10.58c.21-.56.43-1.16.64-1.82a46,46,0,0,0,1.87-10,75.78,75.78,0,0,0-.38-15.14,109.25,109.25,0,0,0-1.84-10.84c-.55-2.53-1.21-5.2-2-8l-4.3-12.54a54.67,54.67,0,0,0-3.16-7.47c-.54-1-1.08-2-1.62-2.84a27,27,0,0,0-4.81-5.89,10.93,10.93,0,0,0-2.19-1.58,6.35,6.35,0,0,1-1.59-.78s-7.94-4.64-18.81-11.21c-4.67-2.82-9.88-6-15.27-9.33-5.78-3.58-11.76-7.34-17.45-11-8.7-5.61-14.22-13.45-16-22.67-3-15.8,5.81-30.42,8.58-34.52l24.68-46.73a7.74,7.74,0,0,1,10.48-3.23l5.85,3.09a7.74,7.74,0,0,1,3.23,10.47L285.5,252.24a13,13,0,0,1-.81,1.3c-1.81,2.56-6.7,11.46-5.37,18.38.63,3.18,2.65,5.84,6.2,8.14,4.88,3.14,10,6.35,15,9.45s10.12,6.26,14.71,9c10,6,17.87,10.7,20.33,12.15,4.93,2.31,16.34,9.49,23.65,30.37l1.85,5.41a3.14,3.14,0,0,0,.27.62,10,10,0,0,1,.77,1.77c.65,2,1.23,3.94,1.78,5.84,1.36,4.74,2.48,9.44,3.34,14h0c.41,2.15.75,4.24,1,6.25a102.85,102.85,0,0,1,1,19.21,70.57,70.57,0,0,1-2.45,16l-.46,1.52c-.56,1.8-1.16,3.4-1.76,4.82a9.54,9.54,0,0,1-2.07,3,9.1,9.1,0,0,1-2.54,1.76,7.16,7.16,0,0,1-1,.42A9.7,9.7,0,0,1,355.88,422.2Zm-58.2-227.27a3.6,3.6,0,0,0-1,.15,3.43,3.43,0,0,0-2,1.68l-24.49,46.42a7.92,7.92,0,0,1-.42.69c-2.54,3.77-10.59,17.14-7.92,31.31,1.51,8,6.37,14.89,14.05,19.85,5.67,3.66,11.63,7.4,17.39,11,5.37,3.32,10.57,6.49,15.23,9.3,10.75,6.5,18.59,11.09,18.84,11.23a3.46,3.46,0,0,0,.89.44,13.63,13.63,0,0,1,3.49,2.37,31.28,31.28,0,0,1,5.6,6.82q.9,1.43,1.8,3.15a59.89,59.89,0,0,1,3.41,8.06l4.37,12.77c.81,2.88,1.49,5.62,2.06,8.23.85,3.88,1.5,7.67,1.92,11.27a80.43,80.43,0,0,1,.39,16,49.61,49.61,0,0,1-2.06,11c-.24.78-.48,1.47-.73,2.09a5.16,5.16,0,0,0,1.48,5.75l2.4,2.07a5.28,5.28,0,0,0,2.3,1.23,5.92,5.92,0,0,0,.81.13,5.68,5.68,0,0,0,2.13-.27,3.74,3.74,0,0,0,.51-.22,4.84,4.84,0,0,0,1.39-1,4.91,4.91,0,0,0,1.13-1.65c.55-1.3,1.1-2.76,1.61-4.39l.43-1.44a66.33,66.33,0,0,0,2.29-15,98.65,98.65,0,0,0-1-18.41q-.42-2.94-1-6.06c-.84-4.39-1.94-9-3.26-13.58q-.79-2.79-1.73-5.7a5.31,5.31,0,0,0-.43-1,7.58,7.58,0,0,1-.59-1.34l-1.85-5.39c-6.75-19.31-16.95-25.79-21-27.67l-.62-.33c-2.58-1.52-10.51-6.19-20.49-12.24-4.6-2.79-9.63-5.86-14.76-9.05s-10.13-6.34-15-9.5c-4.58-3-7.23-6.55-8.09-10.95-1.95-10.17,6-21.58,6.09-21.7a7.23,7.23,0,0,0,.51-.84l24.88-47.15a3.39,3.39,0,0,0,.25-2.61,3.43,3.43,0,0,0-1.68-2l-5.85-3.09A3.39,3.39,0,0,0,297.68,194.93Z"/><path class="cls-1" d="M214.87,355.9c-.17-.6-.39-1.25-.56-1.86a34.4,34.4,0,0,1-7.35.13,11.13,11.13,0,0,0-6.48,1.47l1.47,4.2a6.85,6.85,0,0,1,4.1-1.39c.18,0,.39.05.57.05a40.85,40.85,0,0,0,8.9-.22C215.31,357.5,215.09,356.68,214.87,355.9Zm53-46.3-.48-.22A11.32,11.32,0,0,0,252.83,315l-7,14.87c-.43.91-9.38,18.81-27.24,23.39a32.71,32.71,0,0,1-4.28.82,34.4,34.4,0,0,1-7.35.13,11.13,11.13,0,0,0-6.48,1.47,10.44,10.44,0,0,0-3.46,3.11,10.65,10.65,0,0,0-1.82,3.77,11.32,11.32,0,0,0,5.88,13,11.54,11.54,0,0,0,2.08.82,17.29,17.29,0,0,0,2,.35c.17,0,.3,0,.47,0,1.47.09,3,.17,4.45.17a53.42,53.42,0,0,0,9.13-.78,33.85,33.85,0,0,0,4.23-.9,56.89,56.89,0,0,0,15-6.1,72.85,72.85,0,0,0,27.71-29.53l7.05-15A11.24,11.24,0,0,0,267.88,309.6Zm1.47,13.14-7.05,15a69.16,69.16,0,0,1-26,27.63A52.32,52.32,0,0,1,222.79,371c-1.39.34-2.82.64-4.24.86a48.35,48.35,0,0,1-13,.56,3.5,3.5,0,0,1-.64-.08,2.62,2.62,0,0,1-.61-.13,6.93,6.93,0,0,1-4.71-4.24,6,6,0,0,1-.43-1.77,7.21,7.21,0,0,1,.21-2.51,6.93,6.93,0,0,1,2.6-3.8,6.85,6.85,0,0,1,4.1-1.39c.18,0,.39.05.57.05a40.85,40.85,0,0,0,8.9-.22,32.47,32.47,0,0,0,4.24-.82c19.71-5.1,29.48-24.77,30-25.77l7-14.87a6.94,6.94,0,0,1,9.25-3.33l.3.17A7,7,0,0,1,269.35,322.74Z"/></svg>