<svg id="Layer_1" data-name="Layer 1" xmlns="http://www.w3.org/2000/svg" viewBox="0 0 500 500"><defs><style>.cls-1{fill:#2d98d4;}</style></defs><title>roadsatrisk</title><path class="cls-1" d="M321.78,62.29a11.41,11.41,0,0,0-11.25-9.41H187.7a10.3,10.3,0,0,0-10.14,8.45L108.78,436.51A11.42,11.42,0,0,0,120,450H377.59a11.43,11.43,0,0,0,11.25-13.44Zm57.58,377.77a2.26,2.26,0,0,1-1.77.83H120a2.33,2.33,0,0,1-2.28-2.74L186.53,63a1.19,1.19,0,0,1,1.17-1H310.53a2.32,2.32,0,0,1,2.28,1.91l67.06,374.27A2.3,2.3,0,0,1,379.36,440.06Z"/><path class="cls-1" d="M250.8,387.06c-2.87,0-3.36,2.93-3.36,9.48v21.82c0,6.55.49,9.48,3.36,9.48s3.36-2.93,3.36-9.48V396.54C254.16,390,253.67,387.06,250.8,387.06Z"/><path class="cls-1" d="M250.8,324.82c-2.87,0-3.36,2.92-3.36,9.47v21.83c0,6.55.49,9.47,3.36,9.47s3.36-2.92,3.36-9.47V334.29C254.16,327.74,253.67,324.82,250.8,324.82Z"/><path class="cls-1" d="M250.8,262.58c-2.87,0-3.36,2.92-3.36,9.47v21.83c0,6.55.49,9.47,3.36,9.47s3.36-2.92,3.36-9.47V272.05C254.16,265.5,253.67,262.58,250.8,262.58Z"/><path class="cls-1" d="M250.8,199.53c-2.87,0-3.36,2.92-3.36,9.47v21.83c0,6.55.49,9.47,3.36,9.47s3.36-2.92,3.36-9.47V209C254.16,202.45,253.67,199.53,250.8,199.53Z"/><path class="cls-1" d="M250.8,137.29c-2.87,0-3.36,2.92-3.36,9.47v21.82c0,6.56.49,9.48,3.36,9.48s3.36-2.92,3.36-9.48V146.76C254.16,140.21,253.67,137.29,250.8,137.29Z"/><path class="cls-1" d="M250.8,75c-2.87,0-3.36,2.93-3.36,9.48v21.82c0,6.55.49,9.48,3.36,9.48s3.36-2.93,3.36-9.48V84.52C254.16,78,253.67,75,250.8,75Z"/><path class="cls-1" d="M421.33,444.22,338.88,53.62A4.55,4.55,0,1,0,330,55.5l82.45,390.6a4.55,4.55,0,0,0,4.45,3.62,5.2,5.2,0,0,0,.95-.1A4.55,4.55,0,0,0,421.33,444.22Z"/><path class="cls-1" d="M166.52,50.1a4.55,4.55,0,0,0-5.4,3.52L78.67,444.22a4.55,4.55,0,0,0,3.51,5.4,5.2,5.2,0,0,0,.95.1,4.55,4.55,0,0,0,4.45-3.62L170,55.5A4.56,4.56,0,0,0,166.52,50.1Z"/></svg>