<svg xmlns="http://www.w3.org/2000/svg" viewBox="0 0 500 500"><defs><style>.cls-1,.cls-2{fill:#2d98d4;}.cls-1{opacity:0.19;}</style></defs><g id="dashboards"><circle class="cls-1" cx="250" cy="250" r="167.19"/><path class="cls-2" d="M263.66,252.92H242V231.4a5.39,5.39,0,0,0-5.26-5.51c-.24,0-.49,0-.71,0a5.38,5.38,0,0,0-4.8,5.47v21.52h-22a5.39,5.39,0,0,0,.51,10.77H231.2v21.54a5.39,5.39,0,0,0,10.77.14V263.69h21.52a5.39,5.39,0,1,0,.17-10.77Zm0,0H242V231.4a5.39,5.39,0,0,0-5.26-5.51c-.24,0-.49,0-.71,0a5.38,5.38,0,0,0-4.8,5.47v21.52h-22a5.39,5.39,0,0,0,.51,10.77H231.2v21.54a5.39,5.39,0,0,0,10.77.14V263.69h21.52a5.39,5.39,0,1,0,.17-10.77Zm95.94,6.93c-1-.49-.47-.31-.75-.43s-.69-.2-1.18-.42c-1-.41-2.42-1.08-4-1.77-3.26-1.38-7.5-3.15-11.77-5L327,246l-14-40.81c-2.26-6.5-8.78-9-14.47-9h-61.7V181.06a15.75,15.75,0,0,0-31.5,0v15.12H147.72a16.22,16.22,0,0,0-16.16,16.13V314.6a16.24,16.24,0,0,0,16.16,16.16h11.36a26.86,26.86,0,0,0,52.65,0h76.54a26.86,26.86,0,0,0,52.65,0h11.36a16.24,16.24,0,0,0,16.16-16.16V274.24A16.07,16.07,0,0,0,359.6,259.85ZM210.94,181.06a10.06,10.06,0,0,1,20.12,0v15.12H210.94ZM185.39,341.53a16.16,16.16,0,1,1,16.16-16.16A16.06,16.06,0,0,1,185.39,341.53Zm129.22,0a16.16,16.16,0,1,1,16.13-16.16A16.08,16.08,0,0,1,314.61,341.53Zm43.06-26.93a5.25,5.25,0,0,1-5.39,5.38H340.92a26.86,26.86,0,0,0-52.65,0H211.73a26.86,26.86,0,0,0-52.65,0H147.72a5.25,5.25,0,0,1-5.39-5.38V212.31a5.27,5.27,0,0,1,5.39-5.38H298.45c2.34,0,4.11,1.24,4.29,1.77l14.89,43.06a5.37,5.37,0,0,0,2.95,3.21s8.52,3.6,17.07,7.24c4.27,1.81,8.52,3.57,11.77,5l4,1.68,1.18.49a4.06,4.06,0,0,1,.51.26h0a5.28,5.28,0,0,1,2.64,4.64Zm-94-61.68H242V231.4a5.39,5.39,0,0,0-5.26-5.51c-.24,0-.49,0-.71,0a5.38,5.38,0,0,0-4.8,5.47v21.52h-22a5.39,5.39,0,0,0,.51,10.77H231.2v21.54a5.39,5.39,0,0,0,10.77.14V263.69h21.52a5.39,5.39,0,1,0,.17-10.77Zm0,0H242V231.4a5.39,5.39,0,0,0-5.26-5.51c-.24,0-.49,0-.71,0a5.38,5.38,0,0,0-4.8,5.47v21.52h-22a5.39,5.39,0,0,0,.51,10.77H231.2v21.54a5.39,5.39,0,0,0,10.77.14V263.69h21.52a5.39,5.39,0,1,0,.17-10.77Zm0,0H242V231.4a5.39,5.39,0,0,0-5.26-5.51c-.24,0-.49,0-.71,0a5.38,5.38,0,0,0-4.8,5.47v21.52h-22a5.39,5.39,0,0,0,.51,10.77H231.2v21.54a5.39,5.39,0,0,0,10.77.14V263.69h21.52a5.39,5.39,0,1,0,.17-10.77Z"/><path class="cls-2" d="M193.93,160.82l6.93,4a1.47,1.47,0,0,0,.79.22,1.83,1.83,0,0,0,.4-.05,1.6,1.6,0,0,0,1-.74l.36-.62a1.58,1.58,0,0,0,.16-1.2,1.55,1.55,0,0,0-.74-1l-6.94-4a1.59,1.59,0,0,0-2.15.58l-.37.64a1.62,1.62,0,0,0-.15,1.18A1.6,1.6,0,0,0,193.93,160.82Z"/><rect class="cls-2" x="187.18" y="176.57" width="11.17" height="3.88" rx="1.58"/><rect class="cls-2" x="243.66" y="176.57" width="11.17" height="3.88" rx="1.58"/><path class="cls-2" d="M239.55,164.24a1.58,1.58,0,0,0,1.37.79,1.61,1.61,0,0,0,.79-.21l6.93-4a1.58,1.58,0,0,0,.58-2.16l-.36-.64a1.65,1.65,0,0,0-.94-.72l-.43-.05a1.51,1.51,0,0,0-.79.21l-6.94,4a1.6,1.6,0,0,0-.57,2.16Z"/><rect class="cls-2" x="219.2" y="147.72" width="3.88" height="11.17" rx="1.58"/><path class="cls-2" d="M250,50C139.54,50,50,139.54,50,250s89.54,200,200,200,200-89.53,200-200S360.47,50,250,50Zm0,385.49C147.55,435.49,64.51,352.44,64.51,250A185.48,185.48,0,0,1,250,64.51c102.44,0,185.49,83,185.49,185.49S352.44,435.49,250,435.49Z"/></g></svg>