<svg id="Layer_1" data-name="Layer 1" xmlns="http://www.w3.org/2000/svg" viewBox="0 0 500 500"><defs><style>.cls-1{fill:#2d98d4;}</style></defs><title>women</title><path class="cls-1" d="M250,156.63c-62.41,0-109.48,44.72-109.48,104a19,19,0,1,0,38.07,0,63.14,63.14,0,0,1,29.29-53.94L184.54,328.14a13.74,13.74,0,0,0,11.91,15.31,12.48,12.48,0,0,0,1.7.1h6.16V431a19,19,0,0,0,38.07,0V343.55h15.16V431a19,19,0,0,0,38.07,0V343.55h6.17a13.69,13.69,0,0,0,13.7-13.71,13.86,13.86,0,0,0-.13-1.9L292,206.63a63.12,63.12,0,0,1,29.38,54,19,19,0,0,0,38.07,0C359.48,201.35,312.41,156.63,250,156.63Zm90.44,116.92a12.91,12.91,0,0,1-12.9-12.88A69.27,69.27,0,0,0,289.14,198l-5.56-2.79L309.29,328.9a7.42,7.42,0,0,1,.06.94,7.58,7.58,0,0,1-7.57,7.58H289.47V431a12.9,12.9,0,0,1-25.8,0V337.42H236.25V431a12.9,12.9,0,0,1-25.8,0V337.42H198.13a3.15,3.15,0,0,1-.92-.06,7.55,7.55,0,0,1-6.61-8.26l25.74-133.9L210.77,198a69.26,69.26,0,0,0-38.31,62.64,12.9,12.9,0,1,1-25.8,0c0-55.8,44.42-97.88,103.34-97.88s103.34,42.08,103.34,97.88A12.91,12.91,0,0,1,340.44,273.55Z"/><path class="cls-1" d="M250,141.29a45.65,45.65,0,1,0-45.65-45.64A45.7,45.7,0,0,0,250,141.29Zm0-85.16a39.52,39.52,0,1,1-39.51,39.52A39.56,39.56,0,0,1,250,56.13Z"/></svg>