<svg id="Layer_1" data-name="Layer 1" xmlns="http://www.w3.org/2000/svg" viewBox="0 0 500 500"><defs><style>.cls-1,.cls-2{fill:#2d98d4;}.cls-1{opacity:0.19;}</style></defs><title>actionscatalog</title><circle class="cls-1" cx="250" cy="250" r="167.19"/><path class="cls-2" d="M250,50C139.54,50,50,139.54,50,250s89.54,200,200,200,200-89.53,200-200S360.47,50,250,50Zm0,385.49C147.55,435.49,64.51,352.44,64.51,250A185.48,185.48,0,0,1,250,64.51c102.44,0,185.49,83,185.49,185.49S352.44,435.49,250,435.49Z"/><path class="cls-2" d="M333,156.63H309.68V141.07a5.2,5.2,0,0,0-5.11-5.27h-.17a5.19,5.19,0,0,0-5.1,5.27v15.56H200.7V141.07a5.19,5.19,0,0,0-5.1-5.27H195a5.19,5.19,0,0,0-4.63,5.27v15.56H167a15.66,15.66,0,0,0-15.56,15.58V348.64A15.64,15.64,0,0,0,167,364.2h96a38.35,38.35,0,0,0,19.14-5.27h.09a5.13,5.13,0,0,0,1.86-.8l62.26-41.53a5.11,5.11,0,0,0,2.27-4.29V172.21A15.66,15.66,0,0,0,333,156.63Zm-32.36,178a38.22,38.22,0,0,0,1.23-9.32v-7.78h24.32Zm37.54-27.48H296.7a5.2,5.2,0,0,0-5,3.74h-5.4a2.81,2.81,0,0,0-2.26,1.35,5.79,5.79,0,0,0-.94,3.27c0,2.57,1.44,4.64,3.2,4.64h5.2v5.16A28.37,28.37,0,0,1,263,353.82H167a5.06,5.06,0,0,1-5.18-5.18V218.91H338.21Zm0-98.61H161.79V172.21A5.07,5.07,0,0,1,167,167h23.35v10.38a5.19,5.19,0,1,0,10.38.14V167h98.6v10.38a5.19,5.19,0,1,0,10.38.14V167H333a5.07,5.07,0,0,1,5.18,5.2Z"/><path class="cls-2" d="M190.27,237.81H309.75a4.63,4.63,0,0,0,0-9.26H190.27A4.66,4.66,0,0,0,187,229.9a4.64,4.64,0,0,0,3.29,7.91Z"/><path class="cls-2" d="M189.09,292.69H212a2.81,2.81,0,0,0,2.26-1.35,5.83,5.83,0,0,0,.94-3.28c0-2.55-1.44-4.62-3.2-4.62H188.83a2.77,2.77,0,0,0-2.26,1.35,5.53,5.53,0,0,0-.94,3C185.51,290.45,187.2,292.69,189.09,292.69Z"/><path class="cls-2" d="M225.57,283.44a2.78,2.78,0,0,0-2.26,1.35,5.77,5.77,0,0,0-.94,3.27c0,2.56,1.44,4.63,3.2,4.63h47.84a2.8,2.8,0,0,0,2.25-1.35,5.75,5.75,0,0,0,.94-3.28c0-2.55-1.43-4.62-3.19-4.62Z"/><path class="cls-2" d="M311.17,283.44H286.32a2.78,2.78,0,0,0-2.26,1.35,5.77,5.77,0,0,0-.94,3.27c0,2.56,1.44,4.63,3.2,4.63h24.85a2.83,2.83,0,0,0,2.28-1.35,6,6,0,0,0,.92-3.28C314.37,285.51,313,283.44,311.17,283.44Z"/><path class="cls-2" d="M188.83,265.24H212a2.81,2.81,0,0,0,2.26-1.35,5.79,5.79,0,0,0,.94-3.27c0-2.55-1.44-4.62-3.2-4.62H188.83a2.8,2.8,0,0,0-2.26,1.35,5.84,5.84,0,0,0-.94,3.27C185.63,263.17,187.07,265.24,188.83,265.24Z"/><path class="cls-2" d="M311.17,256h-85.6a2.81,2.81,0,0,0-2.26,1.35,5.79,5.79,0,0,0-.94,3.27c0,2.55,1.44,4.62,3.2,4.62h85.6a2.83,2.83,0,0,0,2.28-1.35,6,6,0,0,0,.92-3.27C314.37,258.07,313,256,311.17,256Z"/><path class="cls-2" d="M188.83,320.13h84.58a2.81,2.81,0,0,0,2.25-1.36,5.73,5.73,0,0,0,.94-3.28c0-2.55-1.43-4.62-3.19-4.62H188.83a2.8,2.8,0,0,0-2.26,1.35,5.84,5.84,0,0,0-.94,3.29C185.63,318.06,187.07,320.13,188.83,320.13Z"/></svg>