<svg id="Layer_1" data-name="Layer 1" xmlns="http://www.w3.org/2000/svg" viewBox="0 0 500 500"><defs><style>.cls-1,.cls-2{fill:#2d98d4;}.cls-1{opacity:0.19;}</style></defs><title>administrativeareas</title><circle class="cls-1" cx="250" cy="250" r="167.19"/><path class="cls-2" d="M317.79,170.46v2.43a30.53,30.53,0,0,1-.15,3.68.63.63,0,0,0,.44.69l27.34,8.54a.66.66,0,0,1,.46.62v17.42a.67.67,0,0,1-.16.43l-41,47.37a3.92,3.92,0,0,0-.89,2v50.12a.64.64,0,0,1-.74.64,162.35,162.35,0,0,0-19.21-1.86.63.63,0,0,1-.62-.64V245.72a.67.67,0,0,0-.83-.65,8.6,8.6,0,0,1-2.49.38h0a7.15,7.15,0,0,1-2.27-.37.64.64,0,0,0-.82.63v55.88a.67.67,0,0,1-.7.66c-8.06-.54-14.23-3-18.32-7.48a20.58,20.58,0,0,1-1.77-2.21l-.22-.22a25.57,25.57,0,0,1-3.76-13.94V230.31a3.74,3.74,0,0,0-1.78-3.3,2.6,2.6,0,0,0-2.42-.14l-33,9.27a.64.64,0,0,1-.82-.62V186a.64.64,0,0,1,.45-.62l27.15-8.55a.64.64,0,0,0,.44-.67c-.15-1.75-.17-3.49-.17-5.24a.65.65,0,0,0-.84-.62l-30.16,9.41a.62.62,0,0,1-.38,0l-71.08-22a.65.65,0,0,0-.84.62V334.11a.66.66,0,0,0,.46.62l71.46,22.14a.62.62,0,0,0,.38,0l68.41-21.34a.62.62,0,0,1,.38,0l71.08,22a.65.65,0,0,0,.84-.62V181.12a.65.65,0,0,0-.46-.62Zm-171-3.71,16.17,5.11a.66.66,0,0,1,.45.64l-1.07,49.08a.66.66,0,0,1-.85.61l-15.08-4.69a.65.65,0,0,1-.46-.62V167.37A.64.64,0,0,1,146.76,166.75Zm0,57.5,31.41,9.7a.64.64,0,0,1,.4.89l-14.24,31.45a.64.64,0,0,1-.87.32l-17.18-8.38a.64.64,0,0,1-.36-.58V224.87A.65.65,0,0,1,146.76,224.25Zm-.84,105.66V266.39a.64.64,0,0,1,.93-.58l33.71,16.54a.64.64,0,0,1,.32.81L161.4,334.67a.64.64,0,0,1-.81.39l-14.22-4.53A.65.65,0,0,1,145.92,329.91Zm62.38,19.94L168,337.44a.65.65,0,0,1-.42-.85l20.55-54.21a3,3,0,0,0-1.55-4l-16.24-7.9a.65.65,0,0,1-.31-.86l14.76-32.52a.65.65,0,0,1,.79-.35l22.44,7a.66.66,0,0,1,.46.62V349.85Zm0-114.14a.65.65,0,0,1-.85.62l-23.26-7.25H184l-14.8-4.72a.67.67,0,0,1-.45-.64l1.08-49.08a.66.66,0,0,1,.84-.61l37.21,11.55a.66.66,0,0,1,.46.62ZM214.71,349V244a.65.65,0,0,1,.47-.63l30.11-8.48a.65.65,0,0,1,.83.62V278.4A31.47,31.47,0,0,0,248.51,292a.64.64,0,0,1-.3.84,16.5,16.5,0,0,0-4.52,3.28c-7.69,7.68-10.8,23.65-9.33,47a.65.65,0,0,1-.45.67l-18.36,5.77A.65.65,0,0,1,214.71,349Zm61.92-18.44-35.24,10.9a.66.66,0,0,1-.84-.61c-1.18-26.13,3.84-36.13,7.34-40.07a7.64,7.64,0,0,1,4.2-2.65c.44.44.66.88,1.11,1.33,5.42,5.85,13.17,9.15,23.27,9.7a.65.65,0,0,1,.62.64V329.9A.65.65,0,0,1,276.63,330.52Zm69.25,19.33L284,330.53a.66.66,0,0,1-.46-.62V310.05a.66.66,0,0,1,.67-.66,171.08,171.08,0,0,1,22.56,2.41,313.36,313.36,0,0,1,38.92,9.38.64.64,0,0,1,.45.62v28.05Zm-.81-35.63a318.79,318.79,0,0,0-34.05-8.3.63.63,0,0,1-.53-.63V255.42a.66.66,0,0,1,.15-.43l34.1-39.63a.65.65,0,0,1,1.14.43v97.82A.63.63,0,0,1,345.07,314.22Z"/><path class="cls-2" d="M278.41,238.15a2,2,0,0,0,1.77,1.1,1.44,1.44,0,0,0,1.55-1.1c.22-.45,21.46-41.81,26.32-51.32a31.11,31.11,0,1,0-55.74-.22ZM280.18,155c14.16,0,24.28,16.1,13.22,31.13-15,11.07-31.13.94-31.13-13.22A18,18,0,0,1,280.18,155Z"/><path class="cls-2" d="M279.11,340.71l24.35,7.92a2.74,2.74,0,0,1,1.57,3.26h0a2.24,2.24,0,0,1-2.77,1.85l-22.55-7.34a1.89,1.89,0,0,0-1.2,0l-36.95,12a2.23,2.23,0,0,1-2.77-1.85h0a2.73,2.73,0,0,1,1.57-3.26l38.75-12.6Z"/><path class="cls-2" d="M210.85,174.58l24.35-7.91a2.73,2.73,0,0,0,1.56-3.26h0a2.23,2.23,0,0,0-2.76-1.85l-22.55,7.34a2,2,0,0,1-1.2,0l-36.95-12a2.23,2.23,0,0,0-2.77,1.85h0A2.72,2.72,0,0,0,172.1,162l38.75,12.6h0Z"/><rect class="cls-2" x="356.23" y="207.78" width="5.15" height="95.49" rx="0.87"/><rect class="cls-2" x="356.23" y="308.42" width="5.15" height="21.19" rx="0.87"/><rect class="cls-2" x="356.23" y="334.23" width="5.15" height="10.63" rx="0.87"/><path class="cls-2" d="M250,50C139.54,50,50,139.54,50,250s89.54,200,200,200,200-89.53,200-200S360.47,50,250,50Zm0,385.49C147.55,435.49,64.51,352.44,64.51,250A185.48,185.48,0,0,1,250,64.51c102.44,0,185.49,83,185.49,185.49S352.44,435.49,250,435.49Z"/></svg>