<svg id="Layer_1" data-name="Layer 1" xmlns="http://www.w3.org/2000/svg" viewBox="0 0 500 500"><defs><style>.cls-1,.cls-2{fill:#2d98d4;}.cls-1{opacity:0.19;}</style></defs><title>criticalfacilities</title><circle class="cls-1" cx="250" cy="250" r="167.19"/><path class="cls-2" d="M250,50C139.54,50,50,139.54,50,250s89.54,200,200,200,200-89.53,200-200S360.47,50,250,50Zm0,385.49C147.55,435.49,64.51,352.44,64.51,250A185.48,185.48,0,0,1,250,64.51c102.44,0,185.49,83,185.49,185.49S352.44,435.49,250,435.49Z"/><path class="cls-2" d="M355.46,161.86H332.8V144.23a2.53,2.53,0,0,0-2.52-2.52H300.07a2.53,2.53,0,0,0-2.52,2.52v17.63h-30.2V144.23a2.54,2.54,0,0,0-2.53-2.52h-30.2a2.53,2.53,0,0,0-2.52,2.52v17.63H201.89V144.23a2.53,2.53,0,0,0-2.52-2.52h-30.2a3.68,3.68,0,0,0-.47,0,2.56,2.56,0,0,0-2.06,2.52v17.63H144a2.52,2.52,0,0,0-2.53,2.51V260a2.52,2.52,0,0,0,2.53,2.51h30.2a2.51,2.51,0,0,0,2.52-2.51c0-34.58,32.47-62.94,73-62.94s72.86,28.34,73,62.94a2.51,2.51,0,0,0,2.52,2.51h30.21A2.51,2.51,0,0,0,358,260V164.37A2.51,2.51,0,0,0,355.46,161.86Zm-4.21,91.67h-21c-1.62-33.9-38.81-65.15-79.74-65.15s-79,31.27-80.52,65.15H149.76v-84.1h22.11a2.4,2.4,0,0,0,2.46-2.34V150.74h20l.45,17.25c0,1.29,1.73,1.94,3.09,1.94l37.86-.5c1.36,0,3.83-1.18,3.83-2.47l-.12-16.22H260l.23,15.78c0,1.29,1.73,2.58,3.09,2.58l39.23.34c1.36,0,3.06-1.25,3.06-2.54l0-16.16h19.11L325,167c0,1.29,2.19,2.41,3.55,2.41l22.68.05Z"/><path class="cls-2" d="M252.64,272.62v25.24a2.52,2.52,0,1,1-5-.07V272.62a2.54,2.54,0,0,1,2.21-2.6,2.88,2.88,0,0,1,.41,0A2.52,2.52,0,0,1,252.64,272.62Z"/><path class="cls-2" d="M358.14,354.44l-78-130.91a2.53,2.53,0,0,0-2.12-1.17H222.6a1.85,1.85,0,0,0-.47,0,2.52,2.52,0,0,0-1.65,1.17l-78,130.91a2.51,2.51,0,0,0,.79,3.46,2.44,2.44,0,0,0,1.33.4H356a2.52,2.52,0,0,0,2.51-2.54A2.37,2.37,0,0,0,358.14,354.44Zm-105.58-7.57V328.43a2.3,2.3,0,0,0-2.18-2.4,1.51,1.51,0,0,0-.37,0,2.32,2.32,0,0,0-2,2.38v18.44h-89.2L226.5,231.58H248v13.84a2.3,2.3,0,0,0,2.25,2.33,2.27,2.27,0,0,0,2.3-2.27v-13.9h21.53l67.69,115.29Z"/></svg>