<svg id="Layer_1" data-name="Layer 1" xmlns="http://www.w3.org/2000/svg" viewBox="0 0 500 500"><defs><style>.cls-1,.cls-2{fill:#2d98d4;}.cls-1{opacity:0.19;}</style></defs><title>dashboards</title><circle class="cls-1" cx="250" cy="250" r="167.19"/><path class="cls-2" d="M250,50C139.54,50,50,139.54,50,250s89.54,200,200,200,200-89.53,200-200S360.47,50,250,50Zm0,385.49C147.55,435.49,64.51,352.44,64.51,250A185.48,185.48,0,0,1,250,64.51c102.44,0,185.49,83,185.49,185.49S352.44,435.49,250,435.49Z"/><path class="cls-2" d="M369.75,213.35h0l-1.27-2.93-.11-.2h0a43.8,43.8,0,0,0-6.23-9.61l.09,0L359.78,198l-.12-.11h0A44.15,44.15,0,0,0,349.1,190l.23-.1-4.27-1.81-.1,0h0a44,44,0,0,0-16.61-3.23h-1.72v9.83A36.27,36.27,0,1,0,363.05,231v0h9.63v-1.72A44,44,0,0,0,369.75,213.35Zm-39.68-3V198.06l14.87-6.26a40.62,40.62,0,0,1,11.27,7.5ZM358.8,202a40.82,40.82,0,0,1,6.41,9.54l-35.14,14.8V214Zm7.77,12.7a40.37,40.37,0,0,1,2.64,12.82H336.13Zm-36.5-20.32v-6a40.63,40.63,0,0,1,10.17,1.72Zm29.54,36.58v0a32.83,32.83,0,1,1-33-32.83v32.79Z"/><rect class="cls-2" x="332.17" y="268.05" width="5.99" height="82.4" rx="2.07" transform="translate(644.42 -25.9) rotate(90)"/><rect class="cls-2" x="332.17" y="247.44" width="5.99" height="82.4" rx="2.07" transform="translate(623.8 -46.52) rotate(90)"/><rect class="cls-2" x="255.68" y="191.48" width="5.99" height="123.66" rx="2.07" transform="translate(517.35 506.63) rotate(-180)"/><rect class="cls-2" x="211.67" y="234.34" width="5.99" height="80.81" rx="2.07" transform="translate(429.32 549.49) rotate(180)"/><rect class="cls-2" x="145.64" y="260.77" width="5.99" height="53.51" rx="2.07" transform="translate(297.28 575.04) rotate(-180)"/><rect class="cls-2" x="189.66" y="244.46" width="5.99" height="70.68" rx="2.07" transform="translate(385.31 559.61) rotate(180)"/><rect class="cls-2" x="233.67" y="217.21" width="5.99" height="97.93" rx="2.07" transform="translate(473.33 532.36) rotate(180)"/><rect class="cls-2" x="167.65" y="219.96" width="5.99" height="95.18" rx="2.07" transform="translate(341.29 535.11) rotate(180)"/><rect class="cls-2" x="123.64" y="248.46" width="5.99" height="66.69" rx="2.07" transform="translate(253.26 563.6) rotate(180)"/></svg>