<svg id="Layer_1" data-name="Layer 1" xmlns="http://www.w3.org/2000/svg" viewBox="0 0 500 500"><defs><style>.cls-1,.cls-2{fill:#2d98d4;}.cls-1{opacity:0.19;}</style></defs><title>emergencyfunctions</title><circle class="cls-1" cx="250" cy="250" r="167.19"/><path class="cls-2" d="M250,50C139.54,50,50,139.54,50,250s89.54,200,200,200,200-89.53,200-200S360.47,50,250,50Zm0,385.49C147.55,435.49,64.51,352.44,64.51,250A185.48,185.48,0,0,1,250,64.51c102.44,0,185.49,83,185.49,185.49S352.44,435.49,250,435.49Z"/><path class="cls-2" d="M226,155.4,240.66,158h0l5,.89h0l2-3.47Zm-48,0a4.49,4.49,0,0,0-4.48,4.48v73.65h4.77V165a4.91,4.91,0,0,1,4.9-4.89h20.22l.63-3.56a5.8,5.8,0,0,1,.32-1.1Zm114.66,3.94a4.47,4.47,0,0,0-4.43-3.94h-11.7l10.47,6,5.7,3.29v-4.85A3.12,3.12,0,0,0,292.72,159.34Z"/><path class="cls-2" d="M195.78,203.66l-1,5.89h-5.2a2.87,2.87,0,0,1-2.82-3,3,3,0,0,1,.82-2.08,2.77,2.77,0,0,1,2-.86Z"/><path class="cls-2" d="M206.91,208.88l3.79.67h-6.11a2.85,2.85,0,0,1,1.85-.72A2.59,2.59,0,0,1,206.91,208.88Z"/><path class="cls-2" d="M189.56,217.2h3.84l-1,5.88h-2.8a2.73,2.73,0,0,1-1.9-.75,3.07,3.07,0,0,1-.1-4.28,2.8,2.8,0,0,1,2-.85Z"/><path class="cls-2" d="M190.52,233.53l.48-2.8h-1.45a2.75,2.75,0,0,0-2,.86,3,3,0,0,0-.83,1.94h3.79Z"/><path class="cls-2" d="M243.16,153.71h0l-37.68-6.65a4.47,4.47,0,0,0-5.18,3.63l-.83,4.71-.82,4.66-7.7,43.61-1,5.88-1.38,7.85h0l-.87,4.91h0l-2,11.2h4.83l.48-2.8,1.35-7.65,1-5.88,1.36-7.65,1-5.88,7.69-43.61.63-3.56a5.82,5.82,0,0,1,.33-1.1,4.93,4.93,0,0,1,5.36-2.86L226,155.4h0L240.66,158h0l5,.89,2-3.47.47-.82ZM314,166.2l-13.53-2.39h0l-7.69-1.35h0l-5.69-1,5.7,3.29,6.07,3.51,9.26,1.64a4.89,4.89,0,0,1,4,5.67l-.05.3h0l4.37,2.54.87-4.89h0l.37-2.13A4.46,4.46,0,0,0,314,166.2Z"/><path class="cls-2" d="M223.06,198l-3.12,5.43-5-.88-6.71-1.19a3,3,0,0,1,.54-5.84,2.42,2.42,0,0,1,.47,0l8.84,1.55Z"/><path class="cls-2" d="M215.87,210.47l-3.13,5.42-5-.88-1.87-.33a2.87,2.87,0,0,1-2.26-3.39,3,3,0,0,1,.95-1.74,2.88,2.88,0,0,1,1.85-.71,3.57,3.57,0,0,1,.47,0l3.79.67.2,0Z"/><path class="cls-2" d="M209.49,223.09h-.9l-3.05,5.28-2-.35a2.79,2.79,0,0,1-2.16-2,2.76,2.76,0,0,1-.1-1.43,2.83,2.83,0,0,1,.77-1.54,2.66,2.66,0,0,1,1.54-.87h0a2.52,2.52,0,0,1,.48,0,2.63,2.63,0,0,1,.49,0l4.1.73Z"/><path class="cls-2" d="M308.09,169.88l-9.26-1.64L312,175.85l.05-.3A4.89,4.89,0,0,0,308.09,169.88Zm-62.44-11-5-.89-1.21,2.08-10.05,17.42-2.69,4.66-.13.2-3.39,5.9-5.13,8.87-3.14,5.43-.64,1.13-3.4,5.88,0,0L207.76,215l-1.27,2.19-2.89,5h0l-.51.86-1.71,3-2.69,4.67-1.61,2.8h5.5l1.61-2.8,1.36-2.36,3.07-5.29.07-.14,3.3-5.74.77-1.31,3.12-5.43.54-.91,3.41-5.88.13-.24,3.13-5.43,5.64-9.76,2.57-4.46.84-1.44,2.29-4L245,160.06l.68-1.19,2-3.47Zm106.77,34.94-35.14-20.3h0l-16.79-9.69h0l-7.73-4.47-6.83-3.94L257,138.71a4.47,4.47,0,0,0-6.11,1.64l-7.69,13.36-1,1.69L240.68,158l-1.21,2.08-10.05,17.42-2.69,4.66-.13.2-3.39,5.9-5.13,8.87-3.14,5.43-.64,1.13-3.4,5.88,0,0L207.76,215l-1.27,2.19-2.89,5h0l-.51.86-1.71,3-2.69,4.67-1.61,2.8h5.5l1.61-2.8,1.36-2.36,3.07-5.29.07-.14,3.3-5.74.77-1.31,3.12-5.43.54-.91,3.41-5.88.13-.24,3.13-5.43,5.64-9.76,2.57-4.46.84-1.44,2.29-4L245,160.06l.68-1.19,2-3.47.48-.82,4.32-7.47a4.89,4.89,0,0,1,6.68-1.78l17.45,10.07,10.47,6,5.7,3.29,6.07,3.51L312,175.85h0l4.37,2.54,29.21,16.85a4.89,4.89,0,0,1,1.79,6.68l-28.75,49.79h5.5l29.9-51.8A4.45,4.45,0,0,0,352.42,193.81ZM245.65,158.87l-5-.89-1.21,2.08-10.05,17.42-2.69,4.66-.13.2-3.39,5.9-5.13,8.87-3.14,5.43-.64,1.13-3.4,5.88,0,0L207.76,215l-1.27,2.19-2.89,5h0l-.51.86-1.71,3-2.69,4.67-1.61,2.8h5.5l1.61-2.8,1.36-2.36,3.07-5.29.07-.14,3.3-5.74.77-1.31,3.12-5.43.54-.91,3.41-5.88.13-.24,3.13-5.43,5.64-9.76,2.57-4.46.84-1.44,2.29-4L245,160.06l.68-1.19,2-3.47Zm62.44,11-9.26-1.64L312,175.85l.05-.3A4.89,4.89,0,0,0,308.09,169.88Z"/><path class="cls-2" d="M279.44,200.13,252.71,184.7l-3.54-2h0L248.1,182a2.72,2.72,0,0,0-1.34-.36,2.62,2.62,0,0,0-1.3.33h0a2.89,2.89,0,0,0-1.25,1.18,2.93,2.93,0,0,0-.42,1.51,2.82,2.82,0,0,0,1.38,2.45l22.48,13,3.61,2.08h0l6.58,3.79,8.37,4.83,5.94,3.44,4.77,2.75L307.25,223l4.38,2.54,9.11,5.25a2.94,2.94,0,0,0,2.93-5.1l-10.95-6.32-4.39-2.54-7.74-4.46-3.67-2.12-4.77-2.76-3.91-2.25v0l-4.47-2.58Z"/><path class="cls-2" d="M317.87,241.36a2.87,2.87,0,0,1-3.9,1.14l-4.83-2.8-4.4-2.53-7.82-4.52-4.77-2.76-10.66-6.14v0l-7.25-4.18-7.63-4.41h0L264,213.66,250.78,206l-3.54-2h0l-6.64-3.83-2.19-1.27a2.75,2.75,0,0,1-1.37-2.68,3,3,0,0,1,2.95-2.79,2.77,2.77,0,0,1,1.35.37l7.92,4.58h0l3.09,1.79L262.54,206l1.64.94,11.63,6.71,7.6,4.41.12.05,8.62,5,4.77,2.75.5.3h0l8.41,4.84,4.38,2.54,6.68,3.86A2.86,2.86,0,0,1,317.87,241.36Z"/><path class="cls-2" d="M287.59,251.72H275.81l-3.71-2.14h0l-5.1-2.95L257.17,241l-.39-.23-13.25-7.65-5.7-3.29-4.5-2.59-8.46-4.88a2.63,2.63,0,0,1-1-1,2.79,2.79,0,0,1-.39-1.81,2.74,2.74,0,0,1,.39-1.2,3,3,0,0,1,2.55-1.51,2.66,2.66,0,0,1,1.36.38l4.05,2.33,8,4.62,5.24,3,9.67,5.59.53.29,13.25,7.65,5.57,3.22,4.61,2.67Z"/><path class="cls-2" d="M228.26,233.08l.77.45H217.49a2.58,2.58,0,0,1-.35-.45,2.9,2.9,0,0,1,0-3,3,3,0,0,1,2.55-1.49,2.7,2.7,0,0,1,1.37.36Z"/><path class="cls-2" d="M311.51,251.72h-8.65l-.61-.36-5.33-3.08-4.77-2.74-15.35-8.87h0l-6.19-3.58-8.7-5v0h0l-1.47-.84-13.24-7.65-4.63-2.68-5.56-3.2-5.33-3.08a2.76,2.76,0,0,1-1.32-1.85,3,3,0,0,1,.35-2.11,2.61,2.61,0,0,1,.47-.61,2.89,2.89,0,0,1,2.08-.9,2.82,2.82,0,0,1,1.37.37l.91.53,9.08,5.24,4.17,2.41,10.19,5.88.54.31,12.7,7.34,6.64,3.83,3.19,1.86,10.15,5.85,1.55.9h0l3.19,1.84,6.41,3.7,4.39,2.54,2.42,1.4A2.73,2.73,0,0,1,311.51,251.72Z"/><path class="cls-2" d="M320.78,202.78a3,3,0,0,1-4,1.08l-1.18-.68-4.4-2.54-14.26-8.23-4.77-2.75-3.68-2.12-9.83-5.67-8.19-4.73A3,3,0,1,1,273.4,172l18.75,10.83,4.77,2.76,15.35,8.86,4.39,2.54,3,1.75A2.94,2.94,0,0,1,320.78,202.78Z"/><path class="cls-2" d="M346,257.53a7.21,7.21,0,0,0-.1-1.23l0-.43h-.07a7.43,7.43,0,0,0-7.24-5.78H263.77a2.17,2.17,0,0,1-.95-.22l-30.64-16.15a7.26,7.26,0,0,0-3.45-.86H163.12a7.43,7.43,0,0,0-7.42,7.43v118.4a8.44,8.44,0,0,0,8.42,8.44H337.55a8.44,8.44,0,0,0,8.43-8.44V258.57l0-.48A5.33,5.33,0,0,0,346,257.53Zm-5.4,3.74v97.42a3,3,0,0,1-3,3H164.12a3,3,0,0,1-3-3V261.27h.79l-.74-3.29a1.77,1.77,0,0,1-.05-.45V240.29a2,2,0,0,1,2-2h65.61a2,2,0,0,1,.94.24l30.63,16.14a7.51,7.51,0,0,0,3.47.85h74.78a2,2,0,0,1,2,2,1.8,1.8,0,0,1-.06.45l-.62,3.29Z"/></svg>