<svg id="Layer_1" data-name="Layer 1" xmlns="http://www.w3.org/2000/svg" viewBox="0 0 500 500"><defs><style>.cls-1,.cls-2{fill:#2d98d4;}.cls-1{opacity:0.19;}</style></defs><title>eventactions</title><circle class="cls-1" cx="250" cy="250" r="167.19"/><path class="cls-2" d="M250,50C139.54,50,50,139.54,50,250s89.54,200,200,200,200-89.53,200-200S360.47,50,250,50Zm0,385.49C147.55,435.49,64.51,352.44,64.51,250A185.48,185.48,0,0,1,250,64.51c102.44,0,185.49,83,185.49,185.49S352.44,435.49,250,435.49Z"/><path class="cls-2" d="M246.86,212.58a5.14,5.14,0,0,1-3.63-1.52c-4.1-3.87-8.2-7.85-12.29-11.71s-8.32-8-12.41-11.94a4.64,4.64,0,0,1-1.17-5.39,5.46,5.46,0,0,1,4.91-3.39,4.8,4.8,0,0,1,3.51,1.52c7.15,6.67,14.4,13.7,20.84,20,15.34-17.09,31.73-35.24,48-53.5a4.76,4.76,0,0,1,3.63-1.64,5.23,5.23,0,0,1,4.68,3.16,5,5,0,0,1-.94,5.5c-12.52,13.94-25.05,27.87-37.22,41.44l-11.94,13.23c-.36.47-.82.94-1.17,1.41s-.82.82-1.18,1.29A5.14,5.14,0,0,1,246.86,212.58Z"/><path class="cls-2" d="M289.12,186.71v38.51a10.45,10.45,0,0,1-10.42,10.42H207.05a10.44,10.44,0,0,1-10.41-10.42V153.58a10.44,10.44,0,0,1,10.41-10.42H278.7a11,11,0,0,1,2,.23l-8.08,8.78H207.05a1.35,1.35,0,0,0-1.4,1.41v71.64a1.34,1.34,0,0,0,1.4,1.4H278.7a1.34,1.34,0,0,0,1.4-1.4v-28.8Z"/><path class="cls-2" d="M278.86,264.34h-72a10.3,10.3,0,0,0-10.27,10.28v71.94a10.3,10.3,0,0,0,10.27,10.28h72a10.31,10.31,0,0,0,10.27-10.28V274.62A10.31,10.31,0,0,0,278.86,264.34Zm.74,80.56a2.35,2.35,0,0,1-2.34,2.34H208.51a2.35,2.35,0,0,1-2.35-2.34V276.28a2.35,2.35,0,0,1,2.35-2.34h68.75a2.34,2.34,0,0,1,2.34,2.34Z"/></svg>