<svg id="Layer_1" data-name="Layer 1" xmlns="http://www.w3.org/2000/svg" viewBox="0 0 500 500"><defs><style>.cls-1,.cls-2{fill:#2d98d4;}.cls-1{opacity:0.19;}</style></defs><title>focalpeople</title><circle class="cls-1" cx="250" cy="250" r="167.19"/><path class="cls-2" d="M250,50C139.54,50,50,139.54,50,250s89.54,200,200,200,200-89.53,200-200S360.47,50,250,50Zm0,385.49C147.55,435.49,64.51,352.44,64.51,250A185.48,185.48,0,0,1,250,64.51c102.44,0,185.49,83,185.49,185.49S352.44,435.49,250,435.49Z"/><path class="cls-2" d="M343.8,176.92H156.2a4.35,4.35,0,0,0-4.36,4.37V318.71a4.37,4.37,0,0,0,4.36,4.37H343.8a4.38,4.38,0,0,0,4.36-4.37V181.29A4.36,4.36,0,0,0,343.8,176.92Zm-3.14,133.9a4.39,4.39,0,0,1-4.41,4.4H163.72a4.39,4.39,0,0,1-4.4-4.4V189.16a4.4,4.4,0,0,1,4.4-4.41H336.25a4.4,4.4,0,0,1,4.41,4.41Z"/><path class="cls-2" d="M234,213.68H188.18a4.36,4.36,0,1,0,0,8.72H234a4.36,4.36,0,1,0,0-8.72Z"/><path class="cls-2" d="M227.45,244.22H188.18a4.36,4.36,0,0,0,0,8.72h39.27a4.36,4.36,0,0,0,0-8.72Z"/><path class="cls-2" d="M216.54,274.76H188.18a4.36,4.36,0,0,0,0,8.72h28.36a4.36,4.36,0,0,0,0-8.72Z"/><path class="cls-2" d="M296.7,252.16a24.77,24.77,0,1,0-36.25,0A37.81,37.81,0,0,0,241,285a4.36,4.36,0,1,0,8.72,0,29,29,0,0,1,18.92-27,24.63,24.63,0,0,0,19.95,0,28.94,28.94,0,0,1,18.88,27,4.37,4.37,0,0,0,8.73,0A37.78,37.78,0,0,0,296.7,252.16Zm-25.14-2.39a4.23,4.23,0,0,0-1.11-.59,16,16,0,1,1,15.76.27h0a15.93,15.93,0,0,1-14.64.31Z"/></svg>