<svg id="Layer_1" data-name="Layer 1" xmlns="http://www.w3.org/2000/svg" viewBox="0 0 500 500"><defs><style>.cls-1,.cls-2{fill:#2d98d4;}.cls-1{opacity:0.19;}</style></defs><title>settings</title><circle class="cls-1" cx="250" cy="250" r="167.19"/><path class="cls-2" d="M250,50C139.54,50,50,139.54,50,250s89.54,200,200,200,200-89.53,200-200S360.47,50,250,50Zm0,385.49C147.55,435.49,64.51,352.44,64.51,250A185.48,185.48,0,0,1,250,64.51c102.44,0,185.49,83,185.49,185.49S352.44,435.49,250,435.49Z"/><path class="cls-2" d="M202,196.17a11,11,0,0,1,.46-3.48l.48-1.66-23.34-20.1a4.08,4.08,0,0,0-5.56.21l-7.32,7.3a4.09,4.09,0,0,0-.2,5.57l20.07,23.22,1.6-.36a14.49,14.49,0,0,1,3.75-.41L227.44,242l10.2-10.21Zm-6.57,6.07a5.76,5.76,0,0,0-4.09-1.26,16.37,16.37,0,0,0-2.73.25l-16.31-18.87a1.35,1.35,0,0,1,.07-1.85l3.73-3.73a1.35,1.35,0,0,1,1.85-.07l18.85,16.23c-.45,2.28-.56,5.18,1.11,6.84l32,32-2.49,2.49Z"/><path class="cls-2" d="M326.58,305l-50.37-50.66L250,280.59l50.55,50.47a12.81,12.81,0,0,0,18.13,0l7.92-7.91a12.78,12.78,0,0,0,0-18.13Zm-3.85,14.27-8,7.95a7.37,7.37,0,0,1-10.39,0L257.7,280.59l18.5-18.5,46.55,46.81a7.35,7.35,0,0,1,0,10.39Z"/><path class="cls-2" d="M331.19,189h0a2.73,2.73,0,0,0-4.39-.75l-21.32,21.31a10.89,10.89,0,1,1-15.42-15.37l21.54-21.1a2.73,2.73,0,0,0-.76-4.42h0A39.79,39.79,0,0,0,294.56,165,41,41,0,0,0,254,205.56,39.74,39.74,0,0,0,257,220l-87.28,87.12a16.34,16.34,0,1,0,23.11,23.1l1.92-1.92,0,0,85.35-85.36a39.94,39.94,0,0,0,14.51,2.95,41.06,41.06,0,0,0,40.53-40.63A40,40,0,0,0,331.19,189Zm-36.6,51.37a34.54,34.54,0,0,1-14-3.21l-1.74-.8-89.93,89.93-.66.7a10.9,10.9,0,0,1-14.71-.64,10.92,10.92,0,0,1,0-15.41L263.5,221.2l-.8-1.72a34.38,34.38,0,0,1-3.2-13.94,35.54,35.54,0,0,1,35.05-35.11,34.34,34.34,0,0,1,10.23,1.72l-18.56,18.18a16.34,16.34,0,1,0,23.12,23.11L327.76,195a34.3,34.3,0,0,1,1.88,10.26A35.55,35.55,0,0,1,294.59,240.4Z"/></svg>