<svg id="Layer_1" data-name="Layer 1" xmlns="http://www.w3.org/2000/svg" viewBox="0 0 500 500"><defs><style>.cls-1,.cls-2,.cls-3{fill:#2d98d4;}.cls-1{opacity:0.19;}.cls-3{fill-rule:evenodd;}</style></defs><circle class="cls-1" cx="250" cy="250" r="167.19"/><path class="cls-2" d="M250,50C139.54,50,50,139.54,50,250s89.54,200,200,200,200-89.53,200-200S360.47,50,250,50Zm0,385.49C147.55,435.49,64.51,352.44,64.51,250A185.48,185.48,0,0,1,250,64.51c102.44,0,185.49,83,185.49,185.49S352.44,435.49,250,435.49Z"/><path class="cls-3" d="M156,205.74v14.8h188.1v-14.8Zm185,11.12H159v-7.45H341Z"/><path class="cls-3" d="M249.54,138l-102.7,60.77v4.3H353.16v-3.76ZM155.3,198.53l94.85-56,94.55,56Z"/><path class="cls-3" d="M331,239V224.49H300.71V239h4.2v71.26h-4.2v14.53H331V310.26h-3.92V239Zm-4.54,82.37H304.63v-8.18h21.81Zm-17.8-12.78V239.94h14.41v68.65Zm17.8-72.69H304.63V228h21.81Z"/><path class="cls-3" d="M265.14,239V224.49H234.86V239h4.21v71.26h-4.21v14.53h30.28V310.26h-3.92V239Zm-4.55,82.37H238.78v-8.18h21.81ZM242.8,308.59V239.94h14.4v68.65Zm17.79-72.69H238.78V228h21.81Z"/><path class="cls-3" d="M199.29,239V224.49H169V239h4.2v71.26H169v14.53h30.27V310.26h-3.92V239Zm-4.54,82.37H172.94v-8.18h21.81ZM177,308.59V239.94h14.41v68.65Zm17.8-72.69H172.94V228h21.81Z"/><path class="cls-3" d="M156,329.32v15.06h188.1V329.32ZM341,340.5H159v-7.31H341Z"/><path class="cls-3" d="M145.3,346.93V362H354.7V346.93Zm205.92,11.45H148.78v-7.85H351.22Z"/></svg>