<svg id="Layer_1" data-name="Layer 1" xmlns="http://www.w3.org/2000/svg" viewBox="0 0 500 500"><defs><style>.cls-1,.cls-2,.cls-3,.cls-4,.cls-5,.cls-6{fill:#2d98d4;}.cls-1{opacity:0.19;}.cls-3{fill-rule:evenodd;}.cls-4{opacity:0.4;}.cls-4,.cls-5,.cls-6{isolation:isolate;}.cls-5{opacity:0.6;}.cls-6{opacity:0.8;}</style></defs><circle class="cls-1" cx="249.75" cy="249.84" r="167.19"/><path class="cls-2" d="M249.75,49.84c-110.46,0-200,89.54-200,200s89.54,200,200,200,200-89.54,200-200S360.21,49.84,249.75,49.84Zm0,385.49c-102.46,0-185.5-83.05-185.5-185.49a185.5,185.5,0,0,1,371,0C435.24,352.28,352.19,435.33,249.75,435.33Z"/><path class="cls-3" d="M249.27,120.92l-105,62.14v4.4h211v-3.85ZM152.92,182.8l97-57.22,96.67,57.22Z"/><path class="cls-3" d="M142.69,328.54v15.39H356.8V328.54Zm210.55,11.71h-207v-8h207Z"/><rect class="cls-4" x="167.52" y="187.46" width="164.45" height="35.29"/><rect class="cls-5" x="167.52" y="222.28" width="164.45" height="35.29"/><rect class="cls-6" x="167.52" y="257.77" width="164.45" height="35.29"/><rect class="cls-2" x="167.52" y="293.24" width="164.45" height="35.29"/></svg>