<svg id="Layer_1" data-name="Layer 1" xmlns="http://www.w3.org/2000/svg" viewBox="0 0 500 500"><defs><style>.cls-1,.cls-2{fill:#2d98d4;}.cls-1{opacity:0.19;}</style></defs><circle class="cls-1" cx="250" cy="250" r="167.19"/><path class="cls-2" d="M250,50C139.54,50,50,139.54,50,250s89.54,200,200,200,200-89.53,200-200S360.47,50,250,50Zm0,385.49C147.55,435.49,64.51,352.44,64.51,250A185.48,185.48,0,0,1,250,64.51c102.44,0,185.49,83,185.49,185.49S352.44,435.49,250,435.49Z"/><path class="cls-2" d="M362.52,236.58V169.22h-225v67.36H246.82V252h-77.3a3.17,3.17,0,0,0-3.16,3.18v21h-21a3.17,3.17,0,0,0-3.16,3.16V327.6a3.17,3.17,0,0,0,3.16,3.18h48.28a3.18,3.18,0,0,0,3.18-3.18V279.32a3.17,3.17,0,0,0-3.18-3.16h-21V258.35h74.14v17.81h-21a3.18,3.18,0,0,0-3.18,3.16V327.6a3.19,3.19,0,0,0,3.18,3.18h48.28a3.16,3.16,0,0,0,3.15-3.18V279.32a3.16,3.16,0,0,0-3.15-3.16h-21V258.35H327.3v17.81h-21a3.17,3.17,0,0,0-3.16,3.16V327.6a3.17,3.17,0,0,0,3.16,3.18h48.3a3.17,3.17,0,0,0,3.15-3.18V279.32a3.16,3.16,0,0,0-3.15-3.16h-21v-21a3.17,3.17,0,0,0-3.15-3.18h-77.3V236.58Zm-172,45.92v41.94H148.55V282.5Zm160.94,0v41.94H309.48V282.5Zm-80.46,0v41.94H229V282.5ZM143,174.71H357v56.38H143Z"/><path class="cls-2" d="M201.59,203.05a17.85,17.85,0,0,1-1.11,6.56,13.68,13.68,0,0,1-3,4.75,12.45,12.45,0,0,1-4.59,2.87,16.57,16.57,0,0,1-5.73,1,16.17,16.17,0,0,1-5.63-1,12.87,12.87,0,0,1-4.61-2.87,13.53,13.53,0,0,1-3.11-4.75,17.64,17.64,0,0,1-1.13-6.56,16.93,16.93,0,0,1,1.18-6.57,14,14,0,0,1,3.16-4.77,13.08,13.08,0,0,1,4.62-2.89,16,16,0,0,1,5.52-1,16.31,16.31,0,0,1,5.62,1,12.82,12.82,0,0,1,4.62,2.89,13.85,13.85,0,0,1,3.11,4.77A17.73,17.73,0,0,1,201.59,203.05Zm-22.2,0a13.25,13.25,0,0,0,.52,3.86,8.8,8.8,0,0,0,1.51,3,6.74,6.74,0,0,0,2.42,1.91,8.27,8.27,0,0,0,6.52,0,6.72,6.72,0,0,0,2.44-1.91,9,9,0,0,0,1.51-3,13.25,13.25,0,0,0,.52-3.86,13.51,13.51,0,0,0-.52-3.89,9,9,0,0,0-1.51-3,6.59,6.59,0,0,0-2.44-1.9,7.59,7.59,0,0,0-3.25-.68,7.28,7.28,0,0,0-3.27.7,6.79,6.79,0,0,0-2.42,1.93,8.72,8.72,0,0,0-1.51,3A13.26,13.26,0,0,0,179.39,203.05Z"/><path class="cls-2" d="M226.17,191.63c.34,1.15.7,2.44,1.11,3.88s.84,2.94,1.3,4.47.93,3.08,1.4,4.62.94,3,1.39,4.28c.36-1.43.73-3,1.11-4.66s.74-3.41,1.08-5.2.67-3.58,1-5.35.62-3.49.91-5.15h6.8q-1.48,7.3-3.4,14.82t-4.16,14.27h-6q-1.47-4-2.85-8.46t-2.72-8.87c-.9,3-1.79,5.92-2.69,8.87s-1.84,5.77-2.81,8.46h-6q-2.24-6.75-4.15-14.27t-3.39-14.82h7.09c.28,1.66.59,3.37.93,5.15s.69,3.56,1.05,5.35.74,3.52,1.12,5.2.77,3.23,1.16,4.66c.5-1.37,1-2.83,1.47-4.36s.94-3.08,1.39-4.62.86-3,1.24-4.45.72-2.7,1-3.82Z"/><path class="cls-2" d="M265.93,217.61q-2.82-5-6.09-9.86a97.62,97.62,0,0,0-7-9.19v19.05h-6.46V188.52h5.33c.92.93,1.95,2.06,3.06,3.4s2.26,2.78,3.42,4.31,2.32,3.1,3.47,4.74,2.22,3.21,3.23,4.72V188.52h6.51v29.09Z"/><path class="cls-2" d="M278.14,217.61V188.52h19.64V194H284.69v5.71h11.62v5.37H284.69v7h14.06v5.5Z"/><path class="cls-2" d="M312.09,188.19q6.56,0,10,2.33c2.33,1.55,3.49,4,3.49,7.24a8.15,8.15,0,0,1-1.41,5,9.26,9.26,0,0,1-4.05,3c.59.73,1.2,1.56,1.85,2.5s1.28,1.92,1.91,2.94,1.24,2.08,1.82,3.19,1.14,2.19,1.64,3.25h-7.32l-1.62-2.9c-.55-1-1.11-1.93-1.69-2.85s-1.14-1.8-1.7-2.62a27.46,27.46,0,0,0-1.69-2.25h-3.23v10.62h-6.55V188.94a39.09,39.09,0,0,1,4.43-.58C309.53,188.25,310.89,188.19,312.09,188.19Zm.38,5.58c-.48,0-.9,0-1.28,0l-1.07.09v7.89H312a11.12,11.12,0,0,0,5.29-.93,3.33,3.33,0,0,0,1.59-3.14,3.22,3.22,0,0,0-1.62-3.05A10,10,0,0,0,312.47,193.77Z"/></svg>