<svg id="Layer_1" data-name="Layer 1" xmlns="http://www.w3.org/2000/svg" viewBox="0 0 500 500"><defs><style>.cls-1,.cls-2{fill:#2d98d4;}.cls-1{opacity:0.19;}</style></defs><circle class="cls-1" cx="250" cy="250" r="167.19"/><path class="cls-2" d="M250,50C139.54,50,50,139.54,50,250s89.54,200,200,200,200-89.53,200-200S360.47,50,250,50Zm0,385.49C147.55,435.49,64.51,352.44,64.51,250A185.48,185.48,0,0,1,250,64.51c102.44,0,185.49,83,185.49,185.49S352.44,435.49,250,435.49Z"/><path class="cls-2" d="M317.34,235h53.1a2.78,2.78,0,1,0,0-5.56h-53.1a2.78,2.78,0,1,0,0,5.56Z"/><path class="cls-2" d="M370.44,251.8H328.2a2.79,2.79,0,0,0,0,5.57h42.24a2.79,2.79,0,1,0,0-5.57Z"/><path class="cls-2" d="M370.44,274.15H338.31a2.79,2.79,0,0,0,0,5.57h32.13a2.79,2.79,0,1,0,0-5.57Z"/><path class="cls-2" d="M254.8,328.14l0-2.27-2.07.94a83.41,83.41,0,0,1-34.74,7.5A84.31,84.31,0,1,1,281,194a83.52,83.52,0,0,1,6,7.51l1.76,2.49,2.33-8.71-.43-.56c-1.59-2.07-3.25-4.07-4.94-5.94A91.26,91.26,0,1,0,218,341.27a90.57,90.57,0,0,0,35.2-7.06l1.61-.7,0-1.68C254.8,330.6,254.77,329.37,254.8,328.14Z"/><circle class="cls-2" cx="219.67" cy="175.42" r="4.38"/><circle class="cls-2" cx="219.67" cy="322.74" r="4.38"/><circle class="cls-2" cx="146.01" cy="249.08" r="4.38"/><path class="cls-2" d="M269.76,191.71a4.35,4.35,0,0,0-3.09,1.25,4.44,4.44,0,1,0,3.09-1.25Z"/><path class="cls-2" d="M160.6,293.13a4.38,4.38,0,1,0,6.18,0A4.5,4.5,0,0,0,160.6,293.13Z"/><path class="cls-2" d="M172.68,198.26a4.38,4.38,0,0,0,0-6.19,4.51,4.51,0,0,0-6.19,0,4.38,4.38,0,0,0,6.19,6.19Z"/><ellipse class="cls-2" cx="287.71" cy="290.7" rx="5.19" ry="5.37"/><path class="cls-2" d="M282.53,256.33l0,.41L284,280.9a3.85,3.85,0,0,0,2.35,3.6,3.63,3.63,0,0,0,1.42.28,3.48,3.48,0,0,0,1.38-.28,3.79,3.79,0,0,0,2.36-3.52l1.41-24a3.6,3.6,0,0,0,0-.53,5.19,5.19,0,1,0-10.37-.09Z"/><path class="cls-2" d="M293,213.74h0a6,6,0,0,0-10.62,0l-52.51,95.38a6.55,6.55,0,0,0,0,6.34,6,6,0,0,0,5.32,3.21h105a6,6,0,0,0,5.31-3.21,6.5,6.5,0,0,0,0-6.34Zm48.51,99.39a1.5,1.5,0,0,1-1.32.82h-105a1.5,1.5,0,0,1-1.33-.82,1.76,1.76,0,0,1,0-1.71l52.48-95.37a1.54,1.54,0,0,1,1.34-.82,1.52,1.52,0,0,1,1.32.82l52.5,95.37A1.79,1.79,0,0,1,341.53,313.13Z"/></svg>