<svg id="Layer_1" data-name="Layer 1" xmlns="http://www.w3.org/2000/svg" viewBox="0 0 500 500"><defs><style>.cls-1,.cls-2{fill:#2d98d4;}.cls-1{opacity:0.19;}</style></defs><title>eventindicators</title><circle class="cls-1" cx="250" cy="250" r="167.19"/><path class="cls-2" d="M250,50C139.54,50,50,139.54,50,250s89.54,200,200,200,200-89.53,200-200S360.47,50,250,50Zm0,385.49C147.55,435.49,64.51,352.44,64.51,250A185.48,185.48,0,0,1,250,64.51c102.44,0,185.49,83,185.49,185.49S352.44,435.49,250,435.49Z"/><path class="cls-2" d="M264,274.5c-2.48-2.49-6.21-4.66-11-7.35s-10.47-5.59-16-8.32c-10.93-5.45-21-10.1-21-10.1a4.38,4.38,0,0,0-6.24,4.25,4.19,4.19,0,0,0,.4,1.59s4.65,10.09,10.1,21c2,4,4.17,8.21,6.24,12,.73,1.35,1.45,2.65,2.14,3.89,2.7,4.79,4.8,8.44,7.29,10.93a19.79,19.79,0,0,0,33.79-14.82A19.66,19.66,0,0,0,264,274.5Zm-6.25,21.78a10.92,10.92,0,0,1-15.54,0,63,63,0,0,1-5.65-8.63l-.25-.44c-2.58-4.56-5.43-10.14-8.11-15.53-2.49-5-2.84-5.88-4.61-9.62,3.73,1.77,4.59,2.13,9.55,4.6,5.39,2.69,11,5.61,15.53,8.18a66.48,66.48,0,0,1,9.08,5.85,11,11,0,0,1,0,15.59Zm89-8.63a96.75,96.75,0,0,0-193.5,0c0,.29,0,.58,0,.87a4.41,4.41,0,0,0,4.4,4.4h19.79a4.4,4.4,0,0,0,4.46-4.34,4.08,4.08,0,0,0-.09-.93,4.4,4.4,0,0,0-4.24-3.53H162.45a87.87,87.87,0,0,1,22.47-54.49l7,7a4.4,4.4,0,1,0,6.31-6.14.68.68,0,0,1-.12-.12l-7-7a87,87,0,0,1,54.5-22.67V216a4.4,4.4,0,1,0,8.8.12V200.7a87,87,0,0,1,54.5,22.67l-7,7a4.4,4.4,0,0,0,6.06,6.37l.13-.11,7-7a87.82,87.82,0,0,1,22.48,54.49h-15a4.38,4.38,0,0,0-4.37,3.53,3.5,3.5,0,0,0-.09.8,4.4,4.4,0,0,0,4.33,4.47h19.92a4.41,4.41,0,0,0,4.4-4.4C346.76,288.23,346.76,287.94,346.75,287.65Z"/></svg>