<svg id="Layer_1" data-name="Layer 1" xmlns="http://www.w3.org/2000/svg" viewBox="0 0 500 500"><defs><style>.cls-1,.cls-2,.cls-3,.cls-4,.cls-5,.cls-6{fill:#2d98d4;}.cls-1{opacity:0.19;}.cls-3{opacity:0.2;}.cls-4{opacity:0.4;}.cls-5{opacity:0.6;}.cls-6{opacity:0.8;}</style></defs><title>eventlevels</title><circle class="cls-1" cx="250" cy="250" r="167.19"/><path class="cls-2" d="M250,50C139.54,50,50,139.54,50,250s89.54,200,200,200,200-89.53,200-200S360.47,50,250,50Zm0,385.49C147.55,435.49,64.51,352.44,64.51,250A185.48,185.48,0,0,1,250,64.51c102.44,0,185.49,83,185.49,185.49S352.44,435.49,250,435.49Z"/><rect class="cls-3" x="203.96" y="153.5" width="92.09" height="38.58"/><rect class="cls-4" x="203.96" y="192.28" width="92.09" height="38.58"/><rect class="cls-5" x="203.96" y="230.35" width="92.09" height="38.58"/><rect class="cls-6" x="203.96" y="269.14" width="92.09" height="38.58"/><rect class="cls-2" x="203.96" y="307.92" width="92.09" height="38.58"/></svg>