<svg id="Layer_1" data-name="Layer 1" xmlns="http://www.w3.org/2000/svg" viewBox="0 0 500 500"><defs><style>.cls-1,.cls-2{fill:#2d98d4;}.cls-1{opacity:0.19;}</style></defs><title>eventcertainty</title><circle class="cls-1" cx="250" cy="250" r="167.19"/><path class="cls-2" d="M250,50C139.54,50,50,139.54,50,250s89.54,200,200,200,200-89.53,200-200S360.47,50,250,50Zm0,385.49C147.55,435.49,64.51,352.44,64.51,250A185.48,185.48,0,0,1,250,64.51c102.44,0,185.49,83,185.49,185.49S352.44,435.49,250,435.49Z"/><path class="cls-2" d="M290.87,206.18a12.08,12.08,0,0,0-8,2.67c-2.12,1.77-3.19,3.68-3.19,5.74a4.45,4.45,0,0,0,1.16,3,3.55,3.55,0,0,0,2.72,1.29,4.32,4.32,0,0,0,1.76-.35,28.1,28.1,0,0,0,2.44-1.89c3-2.57,5.57-3.85,7.57-3.85a7.29,7.29,0,0,1,5.88,2.93,12.27,12.27,0,0,1,2.38,8,17.28,17.28,0,0,1-4.38,11.45q-4.44,5.25-17,9.85-4.26,1.54-5.45,4.26Q275,253.16,273.84,267h4q.93-6.78,2.16-8.28t9-4.79q10.2-4.26,14-9A26.11,26.11,0,0,0,308.89,228q0-9.44-5.26-15.62A16.18,16.18,0,0,0,290.87,206.18Z"/><path class="cls-2" d="M274.59,275a5.23,5.23,0,0,0-4.51,2.46,13.05,13.05,0,0,0-2.31,7.7,7.29,7.29,0,0,0,1.66,4.94,5.2,5.2,0,0,0,4.1,1.92,5.86,5.86,0,0,0,4.88-2.59,11.69,11.69,0,0,0,1.94-7.14,8.06,8.06,0,0,0-1.66-5.22A5.07,5.07,0,0,0,274.59,275Z"/><path class="cls-2" d="M228.39,276.74a5.08,5.08,0,0,0-4.35-1.5,5.24,5.24,0,0,0-4.13,3,13.13,13.13,0,0,0-1.26,8A7.35,7.35,0,0,0,221,290.9a5.22,5.22,0,0,0,4.33,1.35,5.86,5.86,0,0,0,4.48-3.23,11.66,11.66,0,0,0,1-7.34A8,8,0,0,0,228.39,276.74Z"/><path class="cls-2" d="M230.25,204.35a25.54,25.54,0,0,0-5.78,2.06,8.25,8.25,0,0,0-3.3,2.21,3,3,0,0,0-.31,1.95q1.39,23.18,1.86,56.8l3.6-.49,2.9-35.28q1.93-20.59,2.38-23.34a9.08,9.08,0,0,0,.15-2.64C231.62,204.65,231.12,204.23,230.25,204.35Z"/><path class="cls-2" d="M286.48,178.86H224.29A70.05,70.05,0,0,0,164,284.6a244.84,244.84,0,0,0-24.67,17c-13.45,10.82-12.14,13.84-11.51,15.29,1,2.26,3.27,4.23,11.52,4.23a99.78,99.78,0,0,0,12.85-1,301,301,0,0,0,31.78-6.25c2.91-.73,5.82-1.53,8.7-2.38A69.72,69.72,0,0,0,224.29,319h62.19a70.09,70.09,0,0,0,0-140.18Zm0,134.18H224.29a63.69,63.69,0,0,1-23-4.27l-8-3.75q-3.9,1.2-7.83,2.25c-1,.27-2,.53-3,.78-21.5,5.43-42.85,8.32-48.34,6.68,2.39-3.15,11.11-11.52,33.11-25.11,1.64-1,3.35-2.05,5.15-3.12q-1.77-2.43-3.3-5a64.06,64.06,0,0,1,55.2-96.62h62.19a64.09,64.09,0,0,1,0,128.18Z"/></svg>