<svg id="Layer_1" data-name="Layer 1" xmlns="http://www.w3.org/2000/svg" viewBox="0 0 500 500"><defs><style>.cls-1,.cls-2{fill:#2d98d4;}.cls-1{opacity:0.19;}</style></defs><title>eventquestions</title><circle class="cls-1" cx="250" cy="250" r="167.19"/><path class="cls-2" d="M250,50C139.54,50,50,139.54,50,250s89.54,200,200,200,200-89.53,200-200S360.47,50,250,50Zm0,385.49C147.55,435.49,64.51,352.44,64.51,250A185.48,185.48,0,0,1,250,64.51c102.44,0,185.49,83,185.49,185.49S352.44,435.49,250,435.49Z"/><path class="cls-2" d="M218.93,202.37a56.18,56.18,0,0,1,6-4.59A42.36,42.36,0,0,1,232,194a43.41,43.41,0,0,1,8.22-2.54,46.65,46.65,0,0,1,9.59-.93,39.93,39.93,0,0,1,12.77,1.94,28.64,28.64,0,0,1,9.87,5.52,24.47,24.47,0,0,1,6.37,8.66A27.6,27.6,0,0,1,281.07,218a28.73,28.73,0,0,1-1.77,10.6,29.41,29.41,0,0,1-4.48,7.78A35.38,35.38,0,0,1,269,242.1l-6,4.56a45.79,45.79,0,0,0-4.88,4.19,8.27,8.27,0,0,0-2.46,4.63l-1.85,11.77H240.21l-1.37-13.14a3.17,3.17,0,0,1-.08-.69v-.68a10.72,10.72,0,0,1,1.77-6.16,25,25,0,0,1,4.43-4.92c1.78-1.53,3.68-3,5.73-4.47a52.35,52.35,0,0,0,5.72-4.72,23.67,23.67,0,0,0,4.43-5.76,15.5,15.5,0,0,0,1.77-7.58,11.9,11.9,0,0,0-1.09-5.19,11.71,11.71,0,0,0-3-4,13.53,13.53,0,0,0-4.63-2.53,18.66,18.66,0,0,0-5.84-.89,26.05,26.05,0,0,0-7.78,1,28.23,28.23,0,0,0-5.4,2.26q-2.22,1.24-3.75,2.25a5.16,5.16,0,0,1-2.74,1,4.41,4.41,0,0,1-4.19-2.42Zm15.23,95a12.39,12.39,0,0,1,.93-4.76,11.52,11.52,0,0,1,2.58-3.87,12.59,12.59,0,0,1,3.91-2.57,12,12,0,0,1,4.83-1,11.89,11.89,0,0,1,4.76,1,12.29,12.29,0,0,1,3.87,2.57,12.49,12.49,0,0,1,2.58,3.87,12.05,12.05,0,0,1,1,4.76,11.88,11.88,0,0,1-1,4.79A12.42,12.42,0,0,1,255,306a11.73,11.73,0,0,1-3.87,2.54,12.39,12.39,0,0,1-4.76.93,12.52,12.52,0,0,1-4.83-.93,12,12,0,0,1-3.91-2.54,11.45,11.45,0,0,1-2.58-3.83A12.21,12.21,0,0,1,234.16,297.39Z"/></svg>