<svg id="Layer_1" data-name="Layer 1" xmlns="http://www.w3.org/2000/svg" viewBox="0 0 500 500"><defs><style>.cls-1,.cls-2{fill:#2d98d4;}.cls-1{opacity:0.19;}</style></defs><circle class="cls-1" cx="250" cy="250" r="167.19"/><path class="cls-2" d="M250,50C139.54,50,50,139.54,50,250s89.54,200,200,200,200-89.53,200-200S360.47,50,250,50Zm0,385.49C147.55,435.49,64.51,352.44,64.51,250A185.48,185.48,0,0,1,250,64.51c102.44,0,185.49,83,185.49,185.49S352.44,435.49,250,435.49Z"/><path class="cls-2" d="M294.48,178.86H232.29A70.05,70.05,0,0,0,172,284.6a244.84,244.84,0,0,0-24.67,17c-13.45,10.82-12.14,13.84-11.51,15.29,1,2.26,3.27,4.23,11.52,4.23a99.78,99.78,0,0,0,12.85-1,301,301,0,0,0,31.78-6.25c2.91-.73,5.82-1.53,8.7-2.38A69.72,69.72,0,0,0,232.29,319h62.19a70.09,70.09,0,0,0,0-140.18Zm0,134.18H232.29a63.69,63.69,0,0,1-23-4.27l-8-3.75q-3.9,1.2-7.83,2.25c-1,.27-2,.53-3,.78-21.5,5.43-42.85,8.32-48.34,6.68,2.39-3.15,11.11-11.52,33.11-25.11,1.64-1,3.35-2.05,5.15-3.12q-1.77-2.43-3.3-5a64.06,64.06,0,0,1,55.2-96.62h62.19a64.09,64.09,0,0,1,0,128.18Z"/><rect class="cls-2" x="209.94" y="226.81" width="105.94" height="6.88" rx="1.2"/><rect class="cls-2" x="210.74" y="246.71" width="105.94" height="6.88" rx="1.2"/><rect class="cls-2" x="209.14" y="266.61" width="105.94" height="6.88" rx="1.2"/></svg>