<svg id="Layer_1" data-name="Layer 1" xmlns="http://www.w3.org/2000/svg" viewBox="0 0 500 500"><defs><style>.cls-1,.cls-2,.cls-3{fill:#2d98d4;}.cls-1{opacity:0.19;}.cls-3{stroke:#2d98d4;stroke-miterlimit:10;stroke-width:0.5px;}</style></defs><circle class="cls-1" cx="250" cy="250" r="167.19"/><path class="cls-2" d="M250,50C139.54,50,50,139.54,50,250s89.54,200,200,200,200-89.53,200-200S360.47,50,250,50Zm0,385.49C147.55,435.49,64.51,352.44,64.51,250A185.48,185.48,0,0,1,250,64.51c102.44,0,185.49,83,185.49,185.49S352.44,435.49,250,435.49Z"/><path class="cls-2" d="M345.21,156.46H321.86V140.9a5.2,5.2,0,0,0-5.11-5.27h-.17a5.19,5.19,0,0,0-5.1,5.27v15.56h-98.6V140.9a5.19,5.19,0,0,0-5.1-5.27h-.65a5.19,5.19,0,0,0-4.63,5.27v15.56H179.15A15.66,15.66,0,0,0,163.58,172V348.47A15.64,15.64,0,0,0,179.15,364h96a38.35,38.35,0,0,0,19.14-5.27h.09a5.13,5.13,0,0,0,1.86-.8l62.26-41.53a5.11,5.11,0,0,0,2.27-4.29V172A15.66,15.66,0,0,0,345.21,156.46Zm-32.36,178a38.22,38.22,0,0,0,1.23-9.32v-7.78H338.4ZM350.39,307H308.88a5.2,5.2,0,0,0-5,3.74l-.2,9.25v5.17a28.37,28.37,0,0,1-28.55,28.53h-96a5.06,5.06,0,0,1-5.18-5.18V218.73H350.39Zm0-98.61H174V172a5.07,5.07,0,0,1,5.18-5.2H202.5v10.38a5.19,5.19,0,1,0,10.38.14V166.84h98.6v10.38a5.19,5.19,0,1,0,10.38.14V166.84h23.35a5.07,5.07,0,0,1,5.18,5.2Z"/><path class="cls-3" d="M204.88,262.35a11,11,0,0,0-2.95-2c-1.18-.58-2.57-1.16-4.16-1.75-.77-.27-1.47-.53-2.11-.78A10.12,10.12,0,0,1,194,257a3.82,3.82,0,0,1-1.13-1,2.4,2.4,0,0,1-.4-1.42,2.3,2.3,0,0,1,1.09-2.1,6.9,6.9,0,0,1,3.56-.69,12.37,12.37,0,0,1,3.79.51,19.36,19.36,0,0,1,2.86,1.17l2-5.45a18.85,18.85,0,0,0-3.72-1.46,19.2,19.2,0,0,0-5.36-.66,15.9,15.9,0,0,0-4.7.64,10.25,10.25,0,0,0-3.54,1.84,8,8,0,0,0-2.26,2.9,8.84,8.84,0,0,0-.8,3.83,7.9,7.9,0,0,0,.75,3.61,8,8,0,0,0,1.95,2.53,11,11,0,0,0,2.71,1.73c1,.46,2,.86,3,1.22a20.05,20.05,0,0,1,4.87,2.15,3,3,0,0,1,1.42,2.5,3.57,3.57,0,0,1-.22,1.29,2.21,2.21,0,0,1-.8,1,4.35,4.35,0,0,1-1.53.67,10.07,10.07,0,0,1-2.41.24,17.51,17.51,0,0,1-4.94-.6,16.7,16.7,0,0,1-3.39-1.35l-1.95,5.5q.61.35,1.53.75a15.07,15.07,0,0,0,2.17.75,22.61,22.61,0,0,0,2.9.6,24.1,24.1,0,0,0,3.68.25c4,0,7.07-.79,9.08-2.38a8,8,0,0,0,3-6.67,10.92,10.92,0,0,0-.58-3.76A7.16,7.16,0,0,0,204.88,262.35Z"/><polygon class="cls-3" points="234.42 246.52 208.98 246.52 208.98 252.42 218.24 252.42 218.24 277.24 225.15 277.24 225.15 252.42 234.42 252.42 234.42 246.52"/><path class="cls-3" d="M256.88,260.13c-1-2.48-2-4.84-3-7.07s-2-4.41-3-6.54h-6.56q-1.56,3.19-3,6.54t-2.93,7.07c-1,2.48-2,5.13-3,7.93s-2.13,5.87-3.29,9.18h7.18c.34-1.06.7-2.16,1.09-3.28l1.17-3.37h12l1.18,3.36c.39,1.12.76,2.22,1.1,3.29h7.4q-1.73-5-3.29-9.18C258.89,265.26,257.87,262.61,256.88,260.13Zm-13.76,5c.48-1.32,1-2.59,1.43-3.8s.89-2.32,1.27-3.33.72-1.89,1-2.66.52-1.37.67-1.82c.19.44.43,1,.73,1.81s.64,1.65,1,2.66.82,2.11,1.26,3.33.89,2.48,1.36,3.81Z"/><polygon class="cls-3" points="260.87 252.42 270.14 252.42 270.14 277.24 277.05 277.24 277.05 252.42 286.31 252.42 286.31 246.52 260.87 246.52 260.87 252.42"/><path class="cls-3" d="M308.51,265.05q0,3.72-1.57,5.27a5.56,5.56,0,0,1-4.1,1.55,6.9,6.9,0,0,1-2.28-.35,4.17,4.17,0,0,1-1.77-1.17,5.86,5.86,0,0,1-1.16-2.13,10.45,10.45,0,0,1-.42-3.17V246.52H290.3v19.1a15.83,15.83,0,0,0,.73,4.95,10.12,10.12,0,0,0,2.26,3.85,10.42,10.42,0,0,0,3.88,2.53,15.57,15.57,0,0,0,5.58.91,16.4,16.4,0,0,0,5.68-.89,10.41,10.41,0,0,0,3.94-2.5,10.24,10.24,0,0,0,2.3-3.88,15.42,15.42,0,0,0,.76-5v-19.1h-6.92Z"/><path class="cls-3" d="M342,265.05a7.16,7.16,0,0,0-1.75-2.7,10.89,10.89,0,0,0-2.94-2c-1.19-.58-2.57-1.16-4.17-1.75-.77-.27-1.47-.53-2.11-.78a10.12,10.12,0,0,1-1.68-.84,4,4,0,0,1-1.13-1,2.4,2.4,0,0,1-.4-1.42,2.3,2.3,0,0,1,1.09-2.1,6.9,6.9,0,0,1,3.56-.69,12.37,12.37,0,0,1,3.79.51,19.36,19.36,0,0,1,2.86,1.17l2-5.45a18.82,18.82,0,0,0-9.09-2.12,15.9,15.9,0,0,0-4.7.64,10.34,10.34,0,0,0-3.54,1.84,8,8,0,0,0-2.26,2.9,9,9,0,0,0-.8,3.83,7.9,7.9,0,0,0,.75,3.61,8.35,8.35,0,0,0,1.95,2.53,11,11,0,0,0,2.71,1.73c1,.46,2,.86,3,1.22a20.16,20.16,0,0,1,4.88,2.15,3,3,0,0,1,1.41,2.5,3.57,3.57,0,0,1-.22,1.29,2.21,2.21,0,0,1-.8,1,4.38,4.38,0,0,1-1.52.67,10.16,10.16,0,0,1-2.42.24,17.51,17.51,0,0,1-4.94-.6,16.7,16.7,0,0,1-3.39-1.35l-1.95,5.5q.61.35,1.53.75a15.07,15.07,0,0,0,2.17.75,22.61,22.61,0,0,0,2.9.6,24.1,24.1,0,0,0,3.68.25q6.07,0,9.09-2.38a8,8,0,0,0,3-6.67A10.69,10.69,0,0,0,342,265.05Z"/></svg>