<svg id="Layer_1" data-name="Layer 1" xmlns="http://www.w3.org/2000/svg" viewBox="0 0 500 500"><defs><style>.cls-1,.cls-2{fill:#2d98d4;}.cls-1{opacity:0.19;}</style></defs><title>eventseverity</title><circle class="cls-1" cx="250" cy="250" r="167.19"/><path class="cls-2" d="M250,50C139.54,50,50,139.54,50,250s89.54,200,200,200,200-89.53,200-200S360.47,50,250,50Zm0,385.49C147.55,435.49,64.51,352.44,64.51,250A185.48,185.48,0,0,1,250,64.51c102.44,0,185.49,83,185.49,185.49S352.44,435.49,250,435.49Z"/><path class="cls-2" d="M338.84,210.12l-83.49-75.84a8,8,0,0,0-10.71,0l-18.83,17.1-2.61,2.37h0L218,158.49l-.52,2.16-1.85,7.66.14-.13-.24,1-2.6,10.8-.09.34-.57,2.4-3.85,15.93,45-1-2.83,47-10-31.25-35.83,10.55-13.41-24.33-3.09-5.61-.19-.36.09-.08-.86-1.55-2-3.7-.25.22h0l-1.18,1.08-3.35,3-19.32,17.55a8.11,8.11,0,0,0-2.61,5.94V354.44h74.92v-52.2a6.84,6.84,0,0,1,6.73-6.73h19.6a6.84,6.84,0,0,1,6.73,6.73v52.2h74.92V216.06A8.11,8.11,0,0,0,338.84,210.12Zm-3.62,138.09H272.76v-46a13,13,0,0,0-13-13H240.15a13,13,0,0,0-12.91,13v46H164.78V216.06a1.76,1.76,0,0,1,.58-1.33l18.21-16.55.26-.22,3.09,5.61,14.87,27,.13.22,34.86-10.25L254.57,276l5.05-84,0-.35-43.79,1L220.6,173l2.6-10.8,25.59-23.25a1.88,1.88,0,0,1,2.37,0l83.48,75.88a1.65,1.65,0,0,1,.58,1.29Z"/></svg>