<svg id="Layer_1" data-name="Layer 1" xmlns="http://www.w3.org/2000/svg" viewBox="0 0 500 500"><defs><style>.cls-1,.cls-2{fill:#2d98d4;}.cls-1{opacity:0.19;}</style></defs><title>eventtypes</title><circle class="cls-1" cx="250" cy="250" r="167.19"/><path class="cls-2" d="M250,50C139.54,50,50,139.54,50,250s89.54,200,200,200,200-89.53,200-200S360.47,50,250,50Zm0,385.49C147.55,435.49,64.51,352.44,64.51,250A185.48,185.48,0,0,1,250,64.51c102.44,0,185.49,83,185.49,185.49S352.44,435.49,250,435.49Z"/><path class="cls-2" d="M328.62,238.54l-10.35-2.77V218.12H258.54L286.7,113a4.33,4.33,0,0,0-7.61-3.76L194.82,218.12H181.74V235l-13.43,17.34a5.77,5.77,0,0,0,3.07,9.11l10.36,2.77v17.65h59.73L213.3,387a4.33,4.33,0,0,0,7.61,3.77l84.27-108.85h13.09V265l13.42-17.33A5.77,5.77,0,0,0,328.62,238.54ZM272.4,132.46l-22.75,84.91-.2.75H205.74ZM178.19,253.52l3.55-4.56v5.51Zm49,113.25,22.75-84.89h43.32ZM312.5,276.1h-125V223.9h125v52.2Zm5.77-26.4v-4.82l3.1.83Z"/><polygon class="cls-2" points="198.24 239.13 207.69 239.13 207.69 261.41 207.69 265.64 213.52 265.64 213.52 262.97 213.52 239.13 222.93 239.13 222.93 234.34 198.24 234.34 198.24 239.13"/><path class="cls-2" d="M245.57,234.76a2.87,2.87,0,0,0-.71.88l-5.7,10.46c-.33.61-.6,1.19-.85,1.75s-.45,1.1-.63,1.64c-.21-.53-.44-1.06-.68-1.63s-.54-1.14-.87-1.76l-5.73-10.46a2.84,2.84,0,0,0-.75-.92,1.77,1.77,0,0,0-1.19-.38h-5.14l11.41,19.14v12.16h5.82V253.48l11.38-19.14h-5.15A1.81,1.81,0,0,0,245.57,234.76Z"/><path class="cls-2" d="M274.57,237.14a10.37,10.37,0,0,0-3.78-2.06,17.89,17.89,0,0,0-5.44-.74H255.17v31.3H261v-11h4.37a17,17,0,0,0,5.33-.76,10.69,10.69,0,0,0,3.79-2.12,8.78,8.78,0,0,0,2.27-3.25,11.29,11.29,0,0,0,.76-4.17,11,11,0,0,0-.72-4A8,8,0,0,0,274.57,237.14Zm-3.29,9.58a4.62,4.62,0,0,1-1.16,1.82,5.14,5.14,0,0,1-2,1.14,8.43,8.43,0,0,1-2.8.41H261V238.85h4.37a9,9,0,0,1,2.8.39,4.93,4.93,0,0,1,2,1.08,4.3,4.3,0,0,1,1.16,1.73,6.34,6.34,0,0,1,.39,2.28A7,7,0,0,1,271.28,246.72Z"/><polygon class="cls-2" points="282.02 235.15 282.02 265.64 301.76 265.64 301.76 261 287.89 261 287.89 252.14 298.82 252.14 298.82 247.66 287.89 247.66 287.89 238.97 296.25 238.97 301.76 238.97 301.76 234.34 282.02 234.34 282.02 235.15"/></svg>