<svg id="Layer_1" data-name="Layer 1" xmlns="http://www.w3.org/2000/svg" viewBox="0 0 500 500"><defs><style>.cls-1,.cls-2{fill:#2d98d4;}.cls-1{opacity:0.19;}</style></defs><circle class="cls-1" cx="250" cy="250" r="167.19"/><path class="cls-2" d="M250,50C139.54,50,50,139.54,50,250s89.54,200,200,200,200-89.53,200-200S360.47,50,250,50Zm0,385.49C147.55,435.49,64.51,352.44,64.51,250A185.48,185.48,0,0,1,250,64.51c102.44,0,185.49,83,185.49,185.49S352.44,435.49,250,435.49Z"/><path class="cls-2" d="M159.89,210.37a47.14,47.14,0,0,1,5-3.82,36.92,36.92,0,0,1,5.87-3.15,36.46,36.46,0,0,1,6.84-2.11,39.3,39.3,0,0,1,8-.77,33.08,33.08,0,0,1,10.63,1.61,23.86,23.86,0,0,1,8.21,4.59,20.57,20.57,0,0,1,5.3,7.21,23,23,0,0,1,1.87,9.45,24,24,0,0,1-1.47,8.82,24.35,24.35,0,0,1-3.72,6.47,29.87,29.87,0,0,1-4.86,4.76l-5,3.79a39,39,0,0,0-4.05,3.48,7,7,0,0,0-2,3.86l-1.54,9.79H177.59l-1.14-10.93a3.38,3.38,0,0,1-.07-.57v-.57a8.87,8.87,0,0,1,1.48-5.13,20.64,20.64,0,0,1,3.69-4.09q2.2-1.91,4.76-3.72a44.08,44.08,0,0,0,4.76-3.92,19.78,19.78,0,0,0,3.68-4.8,12.78,12.78,0,0,0,1.48-6.3,9.85,9.85,0,0,0-.91-4.32,9.75,9.75,0,0,0-2.51-3.29A11.15,11.15,0,0,0,189,214.6a15.47,15.47,0,0,0-4.86-.74,21.67,21.67,0,0,0-6.47.84,23.62,23.62,0,0,0-4.49,1.88c-1.23.69-2.27,1.32-3.12,1.87a4.28,4.28,0,0,1-2.28.84,3.65,3.65,0,0,1-3.48-2Zm12.67,79.05a10.37,10.37,0,0,1,.77-3.95,9.58,9.58,0,0,1,2.15-3.22,10.64,10.64,0,0,1,3.25-2.15,10.19,10.19,0,0,1,4-.8,10,10,0,0,1,4,.8,10.38,10.38,0,0,1,3.22,2.15,10.18,10.18,0,0,1,2.14,3.22,10.13,10.13,0,0,1,0,7.94,10.16,10.16,0,0,1-2.14,3.19,9.79,9.79,0,0,1-3.22,2.11,10.39,10.39,0,0,1-4,.77,10.54,10.54,0,0,1-4-.77,10,10,0,0,1-3.25-2.11,9.55,9.55,0,0,1-2.15-3.19A10.28,10.28,0,0,1,172.56,289.42Z"/><path class="cls-2" d="M253.35,186.91h12.88V313.09H253.35Z"/><path class="cls-2" d="M319.79,288.89a10.21,10.21,0,0,1,.78-4,9.41,9.41,0,0,1,2.14-3.22,10.56,10.56,0,0,1,3.25-2.14,10,10,0,0,1,4-.81,9.87,9.87,0,0,1,3.95.81,10.07,10.07,0,0,1,3.22,2.14,10.38,10.38,0,0,1,2.15,3.22,10.28,10.28,0,0,1,0,7.95,10.31,10.31,0,0,1-2.15,3.18,9.53,9.53,0,0,1-3.22,2.11A10.19,10.19,0,0,1,330,299a10.37,10.37,0,0,1-4-.78,10,10,0,0,1-3.25-2.11,9.34,9.34,0,0,1-2.14-3.18A10.14,10.14,0,0,1,319.79,288.89ZM338,201.05v38.36a117.51,117.51,0,0,1-.6,12q-.6,5.88-1.61,12.44H324.56q-1-6.57-1.61-12.44a114.68,114.68,0,0,1-.61-12V201.05Z"/></svg>