<svg id="Layer_1" data-name="Layer 1" xmlns="http://www.w3.org/2000/svg" viewBox="0 0 500 500"><defs><style>.cls-1,.cls-2{fill:#2d98d4;}.cls-1{opacity:0.19;}</style></defs><title>eventgroups</title><circle class="cls-1" cx="250" cy="250" r="167.19"/><path class="cls-2" d="M250,50C139.54,50,50,139.54,50,250s89.54,200,200,200,200-89.53,200-200S360.47,50,250,50Zm0,385.49C147.55,435.49,64.51,352.44,64.51,250A185.48,185.48,0,0,1,250,64.51c102.44,0,185.49,83,185.49,185.49S352.44,435.49,250,435.49Z"/><path class="cls-2" d="M365.33,212.36A22.9,22.9,0,0,0,332,192a100.05,100.05,0,0,0-70.81-36.22,22.92,22.92,0,0,0-45.5,3.91,23.17,23.17,0,0,0,.32,3.66,100.69,100.69,0,0,0-54.71,56.39,23.4,23.4,0,0,0-3.67-.32A22.93,22.93,0,0,0,155,265.09,100,100,0,0,0,186.8,329.2a22.91,22.91,0,0,0,39.86,22.61A99.89,99.89,0,0,0,310.4,338.9a22.91,22.91,0,1,0,31.23-33.51A99.58,99.58,0,0,0,352.28,233,22.91,22.91,0,0,0,365.33,212.36Zm-15.1,43.32a94.85,94.85,0,0,1-12.37,46.91,22.91,22.91,0,0,0-30.53,32.73,95.17,95.17,0,0,1-78.73,12.19,22.91,22.91,0,0,0-39.09-22.16,95.32,95.32,0,0,1-29.81-60.21,22.92,22.92,0,0,0,6.11-44.22,96,96,0,0,1,51.39-53,22.9,22.9,0,0,0,44.28-7.43A95.41,95.41,0,0,1,328,194.52a22.9,22.9,0,0,0,19.85,40.09A95.62,95.62,0,0,1,350.23,255.68Z"/></svg>