<svg id="Layer_1" data-name="Layer 1" xmlns="http://www.w3.org/2000/svg" viewBox="0 0 500 500"><defs><style>.cls-1,.cls-2{fill:#2d98d4;}.cls-1{opacity:0.19;}</style></defs><title>eventtopics</title><circle class="cls-1" cx="250" cy="250" r="167.19"/><path class="cls-2" d="M250,50C139.54,50,50,139.54,50,250s89.54,200,200,200,200-89.53,200-200S360.47,50,250,50Zm0,385.49C147.55,435.49,64.51,352.44,64.51,250A185.48,185.48,0,0,1,250,64.51c102.44,0,185.49,83,185.49,185.49S352.44,435.49,250,435.49Z"/><path class="cls-2" d="M348.86,179.51l-6.5-3.77-46.15-26.65.52-2.13-7.7-2L252.79,124,247,134l-64.8-16.87L138.43,292.92h0a7.22,7.22,0,0,0,.38,4.37l33.72,81.37a6.65,6.65,0,0,0,4.48,4,6.28,6.28,0,0,0,2.27.16,7.1,7.1,0,0,0,3.46-.48l83.8-33.75a7.15,7.15,0,0,0,3.4-2.86l0,0L361.7,186.92ZM187.14,125.9l56.13,14.6L165.41,275.38l-4,6.86-.35.6,0,0a7.15,7.15,0,0,0-.79,4.38l.57,4L156.38,290l-9.51-2.47ZM145.32,294.72l9.29,2.4,7.39,1.93,7.75,54.58Zm47,75.87-12.1,4.87-.13-1-.29-2.05-1.12-7.84-2.57-18.2-3-21.16-3.42-24.2-.94-6.62-1.11-7.81,23.72,13.69,20.11,11.62L250,334.17l7.08,4.1,6.37,3.67Zm75-34.93-6.5-3.75-22.48-13L218.3,307.33l-47.18-27.24.62-1,78.88-136.62,3.75-6.49,1.1-1.9,6.89,4L285.9,151.6l2.27,1.3,6.18,3.57,44.35,25.61,6.5,3.77,6.5,3.75Z"/><path class="cls-2" d="M207.44,328.34a14.43,14.43,0,0,0-14.85.26,14.49,14.49,0,0,0-4.44,20.15,14.54,14.54,0,0,0,4.85,4.59,14.49,14.49,0,0,0,17.38-2.26,14.07,14.07,0,0,0,2.34-3A14.46,14.46,0,0,0,207.44,328.34Zm.2,16.78a8.57,8.57,0,0,1-11.71,3.14,8.37,8.37,0,0,1-2.37-2,8.47,8.47,0,0,1-1.83-6.44,8.29,8.29,0,0,1,1.07-3.22,7.07,7.07,0,0,1,1.14-1.54,8.64,8.64,0,0,1,6.15-2.76,8.57,8.57,0,0,1,7.55,12.86Z"/></svg>