<svg id="Layer_1" data-name="Layer 1" xmlns="http://www.w3.org/2000/svg" viewBox="0 0 500 500"><defs><style>.cls-1,.cls-2{fill:#2d98d4;}.cls-1{opacity:0.19;}.cls-3{fill:#fff;}</style></defs><circle class="cls-1" cx="250" cy="250" r="167.19"/><path class="cls-2" d="M308.78,152a31,31,0,0,0-57.3,4.2,31.13,31.13,0,0,0,1.57,23.68l14,27.66,2.33,4.56h23q1.09-2.1,2.18-4.28a1,1,0,0,0,.14-.28c5.74-11.15,11.79-22.9,14.11-27.47A31.3,31.3,0,0,0,308.78,152Zm-14.67,27.37c-15,11.06-31.12.93-31.12-13.21a18,18,0,0,1,17.91-17.91C295.07,148.27,305.2,164.36,294.11,179.39Z"/><path class="cls-2" d="M241.93,177.63a.68.68,0,0,0-.86-.64l-30.15,9.43a.85.85,0,0,1-.39,0l-71.05-22a.67.67,0,0,0-.87.62v47.11h7.31v-38a.66.66,0,0,1,.84-.62l16.18,5.12a.64.64,0,0,1,.44.65l-.61,28.33-.08,4.56h6.43l.12-4.56.56-26.21a.63.63,0,0,1,.84-.58l37.2,11.53a.62.62,0,0,1,.45.62v19.2h5.76V192.69a.62.62,0,0,1,.45-.61l27.16-8.54a.67.67,0,0,0,.44-.67C241.93,181.1,241.93,179.37,241.93,177.63ZM345.87,287.87v32.44a.61.61,0,0,1-.81.62,320.05,320.05,0,0,0-34-8.29.64.64,0,0,1-.53-.64V287.87h-6.63v22.59a.65.65,0,0,1-.76.64,159.27,159.27,0,0,0-19.2-1.84.67.67,0,0,1-.62-.65V287.87h-6.41V308.3a.68.68,0,0,1-.7.68c-8.06-.56-14.25-3-18.33-7.48a24.4,24.4,0,0,1-1.77-2.21l-.22-.22a24.22,24.22,0,0,1-3.56-10.19c0-.37-.08-.7-.11-1h-6.05c0,.31,0,.64.06,1a30.06,30.06,0,0,0,2.32,9.82.63.63,0,0,1-.3.84,16.06,16.06,0,0,0-4.51,3.28c-7.7,7.7-10.81,23.65-9.32,47.05a.68.68,0,0,1-.45.65l-18.37,5.79a.66.66,0,0,1-.84-.64v-67.8h-6.21v68.7h-.22L168,344.16a.66.66,0,0,1-.42-.84l20.55-54.22a2,2,0,0,0,.08-.22,2.86,2.86,0,0,0,.17-1h-10.3l2.07,1,.39.19a.67.67,0,0,1,.31.81L161.4,341.39a.62.62,0,0,1-.81.39l-14.23-4.53a.66.66,0,0,1-.44-.62V287.87h-7.31v53a.67.67,0,0,0,.48.62l71.44,22.14a.85.85,0,0,0,.39,0l68.41-21.33a.47.47,0,0,1,.4,0l71.07,22a.63.63,0,0,0,.84-.61V287.87Zm-68.78,48.76a.65.65,0,0,1-.47.62L241.4,348.14a.66.66,0,0,1-.84-.62c-1.17-26.11,3.84-36.11,7.34-40.06a7.6,7.6,0,0,1,4.2-2.65c.44.44.67.89,1.09,1.34,5.43,5.85,13.18,9.15,23.29,9.68a.67.67,0,0,1,.61.65Zm69,19.94h-.23L284,337.25a.66.66,0,0,1-.44-.62V316.76a.64.64,0,0,1,.67-.65,171.26,171.26,0,0,1,22.56,2.41,312.69,312.69,0,0,1,38.91,9.38.63.63,0,0,1,.45.62Zm5.07-169.37-33.37-10v2.44a32.69,32.69,0,0,1-.14,3.67.65.65,0,0,0,.42.7l27.35,8.53a.63.63,0,0,1,.44.62v17.41a.64.64,0,0,1-.14.42l-1,1.15h6.88V187.85A.67.67,0,0,0,351.17,187.2Z"/><path class="cls-2" d="M279.12,347.42l24.35,7.92A2.74,2.74,0,0,1,305,358.6h0a2.24,2.24,0,0,1-2.77,1.85l-22.55-7.34a2,2,0,0,0-1.2,0l-36.95,12a2.23,2.23,0,0,1-2.77-1.85h0a2.73,2.73,0,0,1,1.57-3.26l38.75-12.6Z"/><path class="cls-2" d="M210.86,181.3l24.35-7.92a2.74,2.74,0,0,0,1.56-3.26h0a2.23,2.23,0,0,0-2.76-1.85l-22.55,7.34a2,2,0,0,1-1.2,0l-37-12a2.23,2.23,0,0,0-2.76,1.85h0a2.73,2.73,0,0,0,1.57,3.26l38.75,12.6Z"/><path class="cls-2" d="M361.39,283.28v24.27A2.43,2.43,0,0,1,359,310h-.28a2.43,2.43,0,0,1-2.43-2.43V283.28Z"/><rect class="cls-2" x="356.24" y="315.14" width="5.15" height="21.19" rx="0.87"/><rect class="cls-2" x="356.24" y="340.94" width="5.15" height="10.63" rx="0.87"/><path class="cls-2" d="M250,50C139.54,50,50,139.54,50,250s89.54,200,200,200,200-89.53,200-200S360.47,50,250,50Zm0,385.49C147.55,435.49,64.51,352.44,64.51,250A185.48,185.48,0,0,1,250,64.51c102.44,0,185.49,83,185.49,185.49S352.44,435.49,250,435.49Z"/><rect class="cls-3" x="234.3" y="249.85" width="31.41" height="0.31"/><rect class="cls-3" x="232.31" y="249.85" width="35.38" height="0.31"/><rect class="cls-3" x="233.64" y="247.34" width="32.72" height="5.32"/><rect class="cls-3" x="233.64" y="249.85" width="32.72" height="0.31"/><path class="cls-2" d="M112.83,209.34v81.32H387.17V209.34Zm268.74,75.72H118.43V214.94H381.57Z"/><path class="cls-2" d="M201.3,232.59v6.7H190.77v28.22h-7.86V239.29H172.38v-6.7Z"/><path class="cls-2" d="M220.84,246.91q2.11-3.56,4-7.13c1.28-2.38,2.45-4.78,3.53-7.19h8.67q-2.88,5.64-6,10.93t-6.5,10.64v13.35h-7.86V254.26q-3.42-5.34-6.52-10.68t-6-11h9.12q1.62,3.61,3.48,7.19T220.84,246.91Z"/><path class="cls-2" d="M251.84,232.19q7.82,0,12,2.74c2.79,1.84,4.18,4.83,4.18,9s-1.41,7.23-4.23,9.09-6.85,2.8-12.09,2.8h-2.47v11.69h-7.86V233.09a44.81,44.81,0,0,1,5.44-.7C248.72,232.26,250.4,232.19,251.84,232.19Zm.5,6.7c-.57,0-1.13,0-1.68.05l-1.44.1v10.08h2.47a13.39,13.39,0,0,0,6.15-1.11q2.06-1.11,2.06-4.13a4.87,4.87,0,0,0-.53-2.42,4,4,0,0,0-1.51-1.54,6.86,6.86,0,0,0-2.39-.8A18.76,18.76,0,0,0,252.34,238.89Z"/><path class="cls-2" d="M273.81,267.51V232.59h23.58v6.6H281.67V246h14v6.45h-14v8.42h16.88v6.6Z"/><path class="cls-2" d="M313.87,261.51a11.61,11.61,0,0,0,2.74-.27,5,5,0,0,0,1.74-.76,2.56,2.56,0,0,0,.91-1.13,4,4,0,0,0,.25-1.47A3.38,3.38,0,0,0,317.9,255a23.28,23.28,0,0,0-5.55-2.45q-1.71-.6-3.42-1.38a12.49,12.49,0,0,1-3.07-2,9.17,9.17,0,0,1-2.22-2.87,9,9,0,0,1-.86-4.1,10.06,10.06,0,0,1,.91-4.36,9.12,9.12,0,0,1,2.57-3.3,11.77,11.77,0,0,1,4-2.1,18.35,18.35,0,0,1,5.34-.72,22,22,0,0,1,6.1.75A22.6,22.6,0,0,1,326,234.2l-2.27,6.2a21.16,21.16,0,0,0-3.25-1.33,14,14,0,0,0-4.31-.58,7.88,7.88,0,0,0-4.05.78,2.61,2.61,0,0,0-1.24,2.39,2.69,2.69,0,0,0,.46,1.61,4.48,4.48,0,0,0,1.28,1.19,11.85,11.85,0,0,0,1.92,1c.72.28,1.52.58,2.39.88q2.72,1,4.74,2a12.43,12.43,0,0,1,3.35,2.29,8.35,8.35,0,0,1,2,3.07,12.58,12.58,0,0,1,.65,4.29,9.11,9.11,0,0,1-3.42,7.58q-3.43,2.7-10.33,2.69a29.25,29.25,0,0,1-4.18-.27,27.77,27.77,0,0,1-3.31-.68,19.21,19.21,0,0,1-2.46-.86,17.69,17.69,0,0,1-1.74-.86l2.21-6.24a19.15,19.15,0,0,0,9.48,2.21Z"/></svg>