<svg id="Layer_1" data-name="Layer 1" xmlns="http://www.w3.org/2000/svg" viewBox="0 0 500 500"><defs><style>.cls-1,.cls-2{fill:#2d98d4;}.cls-1{opacity:0.19;}.cls-3{fill:#2f97d3;}</style></defs><title>notificationtemplate</title><circle class="cls-1" cx="250" cy="250" r="167.19"/><path class="cls-2" d="M250,50C139.54,50,50,139.54,50,250s89.54,200,200,200,200-89.53,200-200S360.47,50,250,50Zm0,385.49C147.55,435.49,64.51,352.44,64.51,250A185.48,185.48,0,0,1,250,64.51c102.44,0,185.49,83,185.49,185.49S352.44,435.49,250,435.49Z"/><path class="cls-2" d="M293.08,181.29l0,0,.13.05Z"/><path class="cls-2" d="M300.62,180.22a21.79,21.79,0,0,0-6.43-3.71,21.5,21.5,0,0,0-7.22-1.3,2.2,2.2,0,0,0-1.54.68,1.92,1.92,0,0,0-.56,1.39,2.1,2.1,0,0,0,2.08,2.1c.54,0,1,0,1.45.06.24,0,.51,0,.78.07l.25,0a18.45,18.45,0,0,1,2.91.71l.18,0,.13,0,0,0,.25.12a2.22,2.22,0,0,1,.9.41l.65.31a21.25,21.25,0,0,1,2.48,1.5l.11.06a1.9,1.9,0,0,1,.59.49c.38.32.72.63,1,.91s.59.59.94,1l.5.57a1.27,1.27,0,0,0,.14.17l0,0,0,.06,0,0a4.22,4.22,0,0,1,.55.8c.05.09.09.17.13.23.28.43.55.87.8,1.32s.41.79.61,1.23a2.93,2.93,0,0,1,.12.31.56.56,0,0,1,0,.12h0l.16.42a20.42,20.42,0,0,1,.82,2.87l.16.86,0,.38c0,.37.07.75.08,1.14a24.26,24.26,0,0,1-.1,3.06l0,.18c0,.11,0,.21-.06.32l-.06.35a15.22,15.22,0,0,1-.37,1.56c-.13.43-.26.87-.43,1.31,0,.1-.08.21-.13.34s-.07.16-.1.25l0,.06a2.4,2.4,0,0,1-.11.23,19.13,19.13,0,0,1-1.38,2.52c-.14.22-.3.43-.44.63l-.3.42-.12.15c-.18.22-.37.44-.56.65a18.6,18.6,0,0,1-2,2l-.13.1s-.05,0-.08.07l0,0a3.37,3.37,0,0,1-.57.42l-.12.07c-.5.34-.95.63-1.38.88s-.9.49-1.39.73l-.15.08-.21.11-.15.08h-.1l-.4.15a20,20,0,0,1-3.16.88l-.15,0a2,2,0,0,1-.83.1h-.08c-.61.06-1.24.09-1.85.09a2.24,2.24,0,0,0-1.56.71,1.81,1.81,0,0,0-.54,1.35,2.16,2.16,0,0,0,2.07,2.14h0a21.14,21.14,0,0,0,12.1-3.8,22,22,0,0,0,7.85-10.25A21.35,21.35,0,0,0,300.62,180.22Z"/><path class="cls-2" d="M276.86,161.81a1.81,1.81,0,0,0-.26-1l-.07-.08a2,2,0,0,0-1.61-1h-.24a1.7,1.7,0,0,0-.94.27l-5.07,3.28-5.07,3.28L247.45,177l-1.85,1.2-1.42.91H232.07l-.2,0H210.33a17.79,17.79,0,0,0-18.45,17.91,17.8,17.8,0,0,0,17.82,17.58c.19,0,.37,0,.56,0h1.3l-2.05,12-1,6c-.64,3.68-1.26,7.35-1.88,11l0,.14a4.52,4.52,0,0,0-.11.93,3.82,3.82,0,0,0,3.78,3.58c.08,0,.43,0,.7,0h8.45c.25,0,.5,0,.74,0a3.78,3.78,0,0,0,3.71-2.92c0-.11.07-.43.1-.62l0-.23c0-.18.06-.34.09-.51.18-1,.36-2.11.53-3.17l.87-5.11c.29-1.7.57-3.39.86-5.1q.75-4.35,1.48-8.73c.38-2.24.77-4.47,1.15-6.72l.1-.61h3.15l.2,0h11.94l14.27,9.23,11.42,7.38,3.67,2.38a1.85,1.85,0,0,0,1.95,0,2.16,2.16,0,0,0,1.18-1.87V170.47c0-.94,0-1.89,0-2.84,0-1.85,0-3.76,0-5.63Zm-52.65,56.54-1.32,7.72-3,18.05-.58,0h-8.4c.07-.48.28-2.1.34-2.46.09-.55.17-1.09.26-1.64.57-3.36,1.13-6.72,1.72-10.07l2.6-15.33h9.05Zm5.82-7.9h-21.2a6.4,6.4,0,0,1-1,0l-.44-.06,0-.06-.15,0c-.3,0-.63-.13-1-.22-.57-.16-1.1-.32-1.59-.5a1.31,1.31,0,0,1-.21-.08l-.42-.19-.41-.2a16.68,16.68,0,0,1-1.45-.83c-.27-.17-.51-.33-.75-.51l-.12-.09-.1-.09-.06-.05c-.48-.42-.87-.77-1.22-1.12l-.26-.28a3.45,3.45,0,0,1-.26-.28l-.12-.11a2.45,2.45,0,0,1-.63-.78l0-.06a7.83,7.83,0,0,1-.45-.67c-.24-.4-.57-.94-.86-1.52-.06-.12-.11-.24-.16-.36L197,202h0c0-.1-.09-.2-.12-.26a14.1,14.1,0,0,1-.52-1.75l-.18-.76a1.85,1.85,0,0,1,0-.23l0-.15,0-.12c-.06-.64-.1-1.15-.11-1.62a16.07,16.07,0,0,1,.1-2l0-.29.06-.33,0-.13c.06-.29.13-.59.2-.88s.18-.64.28-.92c0,0,0-.08,0-.14a3.17,3.17,0,0,1,.36-.93.25.25,0,0,0,0-.07l.09-.18a11.42,11.42,0,0,1,.54-1,17,17,0,0,1,1-1.53l.1-.15a2,2,0,0,1,.2-.21,10.57,10.57,0,0,1,.76-.83c.42-.44.88-.84,1.32-1.22l.18-.15.17-.11,0,0,.9-.59a17.2,17.2,0,0,1,1.65-.89l.24-.1.11,0,.19-.07,1-.33a18.88,18.88,0,0,1,2-.46h.15l.26,0c.43-.05.84-.07,1.24-.08H230Zm42.63,12.75c0,1,0,1.91,0,2.88l0,1.85-2.07-1.34-4.22-2.73-7-4.51L254.21,216l-5.15-3.34c-.91-.59-1.79-1.17-2.67-1.72l-.12-.08a2.69,2.69,0,0,0-.72-.36,5.16,5.16,0,0,0-1.21-.08H234.27v-27.1h9.1A5,5,0,0,0,246,183c.45-.26.87-.54,1.33-.84.28-.19.56-.38.85-.56l4.88-3.16,4.9-3.17,11.41-7.39,1.83-1.17,1.49-.95Z"/><path class="cls-2" d="M292.55,197.05l0,.11c0,.1,0,.19-.07.29s0,.17-.05.25a2.27,2.27,0,0,1-.6,1.33l-.07.1-.1.14-.09.12a1.37,1.37,0,0,0-.16.18l-.24.26-.41.38-.16.12-.17.13a2.61,2.61,0,0,1-1.33.62l-.25.07a2,2,0,0,1-1.08.14h-.08a2.21,2.21,0,0,0-1.55.7,1.81,1.81,0,0,0-.54,1.36,2.13,2.13,0,0,0,2.08,2.13,9.11,9.11,0,1,0,0-18.21,2.17,2.17,0,0,0-1.52.68,1.82,1.82,0,0,0-.56,1.38,2.14,2.14,0,0,0,2.1,2.12h.39l.26,0h.11l.2,0c.13,0,.27.06.42.11a2.35,2.35,0,0,1,1.35.62l0,0h.08l.29.29a4,4,0,0,1,.37.35,4.62,4.62,0,0,1,.35.38l.1.11.08.14.09.13a2.21,2.21,0,0,1,.59,1.32c.05.18.09.35.13.53l0,.25a1.93,1.93,0,0,0,0,.24c0,.12,0,.23,0,.35s0,.41,0,.62Z"/><path class="cls-3" d="M332.88,128.72H167.11a6,6,0,0,0-6,6V365.29a6,6,0,0,0,6,6H332.88a6,6,0,0,0,6-6V134.7A6,6,0,0,0,332.88,128.72Zm.92,229.74a8.19,8.19,0,0,1-8.18,8.17H174.37a8.19,8.19,0,0,1-8.17-8.17V141.54a8.19,8.19,0,0,1,8.17-8.17H325.62a8.19,8.19,0,0,1,8.18,8.17Z"/><path class="cls-3" d="M297.73,285.4h0a2.68,2.68,0,0,1-2.9,2.4H205.17a2.68,2.68,0,0,1-2.9-2.4h0a2.69,2.69,0,0,1,2.9-2.4h89.66A2.69,2.69,0,0,1,297.73,285.4Z"/><path class="cls-3" d="M297.73,310.15h0a2.69,2.69,0,0,1-2.9,2.4H205.17a2.69,2.69,0,0,1-2.9-2.4h0a2.69,2.69,0,0,1,2.9-2.4h89.66A2.69,2.69,0,0,1,297.73,310.15Z"/><path class="cls-3" d="M297.73,334.46h0a2.69,2.69,0,0,1-2.9,2.4H205.17a2.69,2.69,0,0,1-2.9-2.4h0a2.68,2.68,0,0,1,2.9-2.4h89.66A2.68,2.68,0,0,1,297.73,334.46Z"/></svg>