<svg id="Layer_1" data-name="Layer 1" xmlns="http://www.w3.org/2000/svg" viewBox="0 0 500 500"><defs><style>.cls-1,.cls-2{fill:#2d98d4;}.cls-1{opacity:0.19;}</style></defs><title>roles</title><circle class="cls-1" cx="250" cy="250" r="167.19"/><path class="cls-2" d="M250,50C139.54,50,50,139.54,50,250s89.54,200,200,200,200-89.53,200-200S360.47,50,250,50Zm0,385.49C147.55,435.49,64.51,352.44,64.51,250A185.48,185.48,0,0,1,250,64.51c102.44,0,185.49,83,185.49,185.49S352.44,435.49,250,435.49Z"/><path class="cls-2" d="M254.68,244.39l3.47-3.75a44.42,44.42,0,1,0-65,.05l3.49,3.75-4.48,2.47a70.1,70.1,0,0,0-35.33,51,68.51,68.51,0,0,0-.69,9.65,4.52,4.52,0,0,0,4.52,4.51,4.42,4.42,0,0,0,4.09-2.63,4.17,4.17,0,0,0,.43-1.88A60.57,60.57,0,0,1,204.79,251l1.51-.55,1.47.64a44.41,44.41,0,0,0,17.86,3.76,43.7,43.7,0,0,0,17.91-3.8l1.48-.66,1.52.55a59.37,59.37,0,0,1,11.84,5.94c1.85-2.27,3.82-4.62,6-6.86-1.72-1.17-3.46-2.24-5.2-3.2ZM243,241.29l-.77.76h-.67a35.19,35.19,0,0,1-31.33.22l-.35-.17-.31-.23a4.13,4.13,0,0,0-1.11-.6l-.36-.13-.33-.19a35.34,35.34,0,1,1,35.23.33Z"/><path class="cls-2" d="M294.45,276.05h0a14.86,14.86,0,1,0,19.23,8.47A14.89,14.89,0,0,0,294.44,276.06Zm9.12,23.43a10.27,10.27,0,1,1,5.81-13.28A10.28,10.28,0,0,1,303.57,299.48Z"/><path class="cls-2" d="M333.05,279.76a34.29,34.29,0,0,0-1.77-4.79c6.32-7.67,6-8.16,5.53-8.9A43.44,43.44,0,0,0,326,254.58a.82.82,0,0,0-.38-.2l0,0-.59-.44a1.32,1.32,0,0,0-1.2-.11c-.25.1-1,.41-7.14,5.37a36.09,36.09,0,0,0-5.47-2.46c-.44-9.4-.65-9.44-1.64-9.66A43.25,43.25,0,0,0,293,246.5a1.17,1.17,0,0,0-.2.05h0l-.34.05a.71.71,0,0,0-.23.06c-.7.28-1.1.43-2.21,9.59-.88.27-1.75.57-2.59.89l-.48.19c-.83.32-1.68.69-2.51,1.09-7-6-7.4-5.85-8.12-5.56a.67.67,0,0,0-.21.1l-.29.19,0,0-.18.1a43.57,43.57,0,0,0-11.87,11.61c-.57.83-.69,1,5.34,8.23a34.42,34.42,0,0,0-2.37,5.5c-7.87.48-8.64.78-8.89.88a1.24,1.24,0,0,0-.81.89c0,.25-.09.48-.14.73v.07a.91.91,0,0,0-.14.34,43.88,43.88,0,0,0-.2,15.79c.16.87.26,1.45,10.1,2.83a33.66,33.66,0,0,0,1.93,4.72c-6.46,7.46-6.26,7.78-5.74,8.6l.1.15a1,1,0,0,0,.14.32,43.53,43.53,0,0,0,11,11.58,1.42,1.42,0,0,0,1.41.1c1.47-.57,6.19-4,8.09-5.45a33.78,33.78,0,0,0,5.07,2.14c.58,10.18.82,10.3,1.79,10.51a.89.89,0,0,0,.26.09,43.37,43.37,0,0,0,16.49.36,1,1,0,0,0,.49-.2,1.4,1.4,0,0,0,.41-.46.48.48,0,0,0,.08-.18,2,2,0,0,0,.08-.22,93.78,93.78,0,0,0,1.51-9.73c.75-.23,1.51-.5,2.24-.79l.46-.18c.74-.29,1.48-.6,2.19-.92a94.7,94.7,0,0,0,7.69,6.15l.23.12.13.05a1.34,1.34,0,0,0,.65.07,1.43,1.43,0,0,0,.28-.07l.2-.11a43.14,43.14,0,0,0,11.89-11.39,1,1,0,0,0,.15-.26c.58-.83.66-1.09-5.79-9a35.48,35.48,0,0,0,2.31-5c2.34-.23,8.17-.87,9.64-1.44a1.44,1.44,0,0,0,1-1,43.48,43.48,0,0,0,.29-16,1,1,0,0,0-.1-.33l0-.19C342.93,281.26,342.86,280.89,333.05,279.76Zm4.47,17.3c-1.48.37-6,.9-8.67,1.17a1,1,0,0,0-.9.71,29.69,29.69,0,0,1-2.55,5.52,1.07,1.07,0,0,0,.09,1.22c2.56,3.11,4.63,5.77,5.34,6.8a38,38,0,0,1-9.62,9.26c-1.31-.89-4.83-3.85-6.93-5.67a1,1,0,0,0-1.09-.19l-.09,0c-.79.4-1.63.76-2.48,1.1l-.11,0-.1.05-.1,0-.11,0c-.85.33-1.71.62-2.56.87a1.06,1.06,0,0,0-.76.91c-.33,2.72-.9,7.2-1.28,8.86a37.93,37.93,0,0,1-13.35-.32c-.18-1.22-.44-4.54-.66-8.62a1.07,1.07,0,0,0-.76-1,29.71,29.71,0,0,1-5.61-2.35,1.07,1.07,0,0,0-1.14.08c-2.19,1.64-5.83,4.27-7.18,5a38.3,38.3,0,0,1-9-9.54.66.66,0,0,0-.05-.15c.59-.87,2.32-3,5.26-6.42a1.08,1.08,0,0,0,.14-1.19,29.65,29.65,0,0,1-2.17-5.28,1.07,1.07,0,0,0-.87-.75,83,83,0,0,1-8.23-1.45,38.49,38.49,0,0,1,.19-13,1.06,1.06,0,0,0,.14-.33l.06-.31c1.05-.15,3.66-.38,7.82-.63a1.06,1.06,0,0,0,1-.75,29.35,29.35,0,0,1,2.58-6,1.07,1.07,0,0,0-.11-1.21c-2-2.36-4.11-5-4.88-6.1a38.28,38.28,0,0,1,9.81-9.48l.09,0c1,.67,3.42,2.65,6.15,5a1.07,1.07,0,0,0,1.18.14,29.24,29.24,0,0,1,2.76-1.24l.44-.17a28.37,28.37,0,0,1,2.87-.95,1.06,1.06,0,0,0,.77-.91c.37-3,.88-6.58,1.17-7.83l.09,0a38.31,38.31,0,0,1,13.63.36c.17,1.32.38,4.73.52,7.8a1.09,1.09,0,0,0,.75,1,30.17,30.17,0,0,1,5.95,2.68,1.06,1.06,0,0,0,1.22-.1c3.24-2.63,5.32-4.23,6.18-4.81l.25.18a.86.86,0,0,0,.32.15,37.92,37.92,0,0,1,8.92,9.44,76.76,76.76,0,0,1-5.08,6.63,1.05,1.05,0,0,0-.13,1.14,31.16,31.16,0,0,1,2,5.36,1.08,1.08,0,0,0,.91.79c4.44.5,7.19.93,8.2,1.16a.69.69,0,0,0,.07.15A38.41,38.41,0,0,1,337.52,297.06Z"/><path class="cls-2" d="M294.45,276.05h0a14.86,14.86,0,1,0,19.23,8.47A14.89,14.89,0,0,0,294.44,276.06Zm9.12,23.43a10.27,10.27,0,1,1,5.81-13.28A10.28,10.28,0,0,1,303.57,299.48Z"/><path class="cls-2" d="M294.45,276.05h0a14.86,14.86,0,1,0,19.23,8.47A14.89,14.89,0,0,0,294.44,276.06Zm9.12,23.43a10.27,10.27,0,1,1,5.81-13.28A10.28,10.28,0,0,1,303.57,299.48Z"/></svg>