<svg id="Layer_1" data-name="Layer 1" xmlns="http://www.w3.org/2000/svg" viewBox="0 0 500 500"><defs><style>.cls-1,.cls-2{fill:#2d98d4;}.cls-1{opacity:0.19;}</style></defs><title>stakeholdergroups</title><circle class="cls-1" cx="250" cy="250" r="167.19"/><path class="cls-2" d="M250,50C139.54,50,50,139.54,50,250s89.54,200,200,200,200-89.53,200-200S360.47,50,250,50Zm0,385.49C147.55,435.49,64.51,352.44,64.51,250A185.48,185.48,0,0,1,250,64.51c102.44,0,185.49,83,185.49,185.49S352.44,435.49,250,435.49Z"/><path class="cls-2" d="M270.8,321.24c-1.19-.56-2.42-1.07-3.68-1.53a27,27,0,1,0-35.37-.07c-1.1.39-2.19.84-3.27,1.32a55.48,55.48,0,0,0-32.26,43.77l-.34,2.62H302.82l-.36-2.63A55.78,55.78,0,0,0,270.8,321.24Zm-69,41c3.4-17.62,16.14-32.52,32.7-38.11,1.06-.37,2.07-.67,3.09-.93l6.49-1.66-5.76-3.43a21.92,21.92,0,1,1,33.11-18.84,21.74,21.74,0,0,1-10.82,18.88l-5.8,3.4,6.48,1.7c1.29.34,2.43.69,3.49,1.08,16.23,5.72,28.75,20.54,32.12,37.91Z"/><path class="cls-2" d="M298,223.08c-.7.87-1.36,1.77-2,2.68a56.53,56.53,0,0,0-9.78,25.2l-.32,2.61H392.77l-.33-2.63c-2.66-20.57-16.47-38.09-35.35-45a27,27,0,1,0-35.38-.07,52.71,52.71,0,0,0-15.95,9.25,5.09,5.09,0,0,1-1.59,1.39A56.14,56.14,0,0,0,298,223.08Zm3.49,3.92a48.65,48.65,0,0,1,26.09-17.6l6.48-1.67-5.75-3.42a21.93,21.93,0,1,1,22.29,0l-5.79,3.4,6.48,1.7c17.77,4.69,32,20.29,35.62,39H291.75a51.15,51.15,0,0,1,7.75-18.74c.62-.92,1.26-1.82,1.94-2.7Z"/><path class="cls-2" d="M213.83,251.17h0A56.28,56.28,0,0,0,204,225.87c-.64-.9-1.3-1.79-2-2.65a53.72,53.72,0,0,0-23.48-17.07,27,27,0,1,0-35.36-.08c-19,6.86-32.9,24.41-35.55,45.09l-.33,2.63H214.15Zm-100.12-3c3.75-18.34,17.84-33.6,35.33-38.15l7.54-1.93-6.69-4a21.24,21.24,0,0,1-10.51-18.43,21.47,21.47,0,1,1,42.93,0,21.23,21.23,0,0,1-10.6,18.48l-6.75,4,7.55,2a48.36,48.36,0,0,1,25.67,17.45c.67.87,1.32,1.77,1.94,2.71a50.88,50.88,0,0,1,7.56,17.94Z"/><path class="cls-2" d="M203.52,325.44l1,.77.23-1.25a5.33,5.33,0,0,1,1.65-3l.71-.63-.75-.58a71.36,71.36,0,0,1-28-54.59l0-.9-.89.14a5.87,5.87,0,0,1-3.42-.41l-1.15-.55,0,1.27A76.71,76.71,0,0,0,203.52,325.44Z"/><path class="cls-2" d="M322.49,265l-.9-.16,0,.92a71.23,71.23,0,0,1-28.89,55.67l-.55.41.34.6a6.12,6.12,0,0,1,.69,3.77l-.24,1.78,1.47-1a77.45,77.45,0,0,0,32.68-61.65l0-1.27-1.15.55A5.89,5.89,0,0,1,322.49,265Z"/><path class="cls-2" d="M202.57,208.92l.33,1.18.93-.79a71.34,71.34,0,0,1,92.13-.17l.75.63.46-.87a4.66,4.66,0,0,1,2.49-2.26l1.23-.48-1-.85a76.82,76.82,0,0,0-99.25-.44l-.78.65.82.59A5,5,0,0,1,202.57,208.92Z"/></svg>