<svg id="Layer_1" data-name="Layer 1" xmlns="http://www.w3.org/2000/svg" viewBox="0 0 500 500"><defs><style>.cls-1,.cls-2{fill:#2d98d4;}.cls-1{opacity:0.19;}</style></defs><circle class="cls-1" cx="250" cy="250" r="167.19"/><path class="cls-2" d="M250,50C139.54,50,50,139.54,50,250s89.54,200,200,200,200-89.53,200-200S360.47,50,250,50Zm0,385.49C147.55,435.49,64.51,352.44,64.51,250A185.48,185.48,0,0,1,250,64.51c102.44,0,185.49,83,185.49,185.49S352.44,435.49,250,435.49Z"/><path class="cls-2" d="M390.08,322.77c-1.48-25.63-18.43-47.59-41.45-54.06a28.45,28.45,0,0,0,5.68-42.94c-.49-.54-1-1.06-1.52-1.56s-1-.9-1.51-1.33l-.55,4.77h-1.62a19.6,19.6,0,0,1,1.77,1.76c.41.47.81,1,1.2,1.47a23.3,23.3,0,0,1,4.61,14,22.58,22.58,0,0,1-16.95,22.18,21.92,21.92,0,0,1-10.22,0l-.1,0a22.62,22.62,0,0,1-16.71-22.13A23.23,23.23,0,0,1,317,231.29a16.19,16.19,0,0,1,1.35-1.74,19.64,19.64,0,0,1,1.68-1.73l-4.33,0a1.57,1.57,0,0,1-.32-.09l-.25-2.09c-.51.55-1,1.14-1.48,1.75a22.53,22.53,0,0,0-1.31,1.84,28.39,28.39,0,0,0-4.61,15.62,28.07,28.07,0,0,0,12.88,23.77,52.61,52.61,0,0,0-16.78,8.05c-4.88-21.13-20.36-37.94-39.93-43.43A27.92,27.92,0,0,0,276.71,213a29,29,0,0,0,.23-3.62c0-15.4-12.08-27.91-26.95-27.91s-26.9,12.51-26.9,27.91a33.34,33.34,0,0,0,.22,3.62A28,28,0,0,0,236,233.19c-19.66,5.45-35.19,22.3-40.08,43.51a53,53,0,0,0-16.61-8,27.89,27.89,0,0,0,12.6-19.18,27.47,27.47,0,0,0,.4-4.66,28.2,28.2,0,0,0-11.67-23,25.86,25.86,0,0,0-9.16-4.21,22.42,22.42,0,0,0-3.29-.59,26.64,26.64,0,0,0-2.85-.15,24.93,24.93,0,0,0-3.13.19,24.16,24.16,0,0,0-3.31.62,27.12,27.12,0,0,0-4,1.39.13.13,0,0,0-.07,0,28,28,0,0,0-16.38,25.68,28.54,28.54,0,0,0,.39,4.66,27.86,27.86,0,0,0,12.5,19.11c-22,6.1-38.47,26.15-41.33,50.46l-.07.65.63.14c1.4.31,2.63.62,3.78.95l.8.22.08-.84c2.82-25.74,22.21-45.83,46.13-47.78a25.69,25.69,0,0,0,7.89,0A48.1,48.1,0,0,1,195.1,283c.7.55,1.41,1.18,2.24,1.92a56.07,56.07,0,0,1,18.13,39.06l0,1,.9-.34a18,18,0,0,1,3.73-1l.62-.1,0-.66a61.35,61.35,0,0,0-20.19-42.36C205,256.65,223.58,238.83,246,237a26.18,26.18,0,0,0,7.87,0c22.32,1.86,40.91,19.66,45.34,43.36a61,61,0,0,0-19.89,38.7l-.07.65.64.14c1.39.31,2.63.62,3.77.95l.8.22.09-.84A55.72,55.72,0,0,1,301.09,286c1.22-1.15,2.38-2.17,3.55-3.1a47.8,47.8,0,0,1,26-10.48,25.69,25.69,0,0,0,7.89,0c25.13,2.13,45,24.24,46.27,51.46l0,1,.9-.36a18,18,0,0,1,3.72-1l.62-.1ZM160.16,267l-.1,0a22.42,22.42,0,0,1-16.25-17.47,21.69,21.69,0,0,1-.43-3.45H140A25.91,25.91,0,0,1,159,221.4l.06,1.55a20.19,20.19,0,0,1,3.3-.72l-.07-1.47a23.47,23.47,0,0,1,5.64,0l-.06,1.43a18.8,18.8,0,0,1,3.29.66l.07-1.45a25.94,25.94,0,0,1,19.06,24.68h-3a21.69,21.69,0,0,1-.43,3.45,22.35,22.35,0,0,1-16.48,17.52A21.92,21.92,0,0,1,160.16,267Zm84.69-35.45-.1,0A22.46,22.46,0,0,1,228.3,213a24.57,24.57,0,0,1-.28-3.45h-3.51a4.67,4.67,0,0,1,0-.52,2.12,2.12,0,0,1,0-.5,26.08,26.08,0,0,1,5.79-15c.5-.62,1-1.23,1.58-1.8a23.78,23.78,0,0,1,2.75-2.47,24,24,0,0,1,5-3,9.72,9.72,0,0,1,1-.41,10.22,10.22,0,0,1,1-.37l1-.33a4.07,4.07,0,0,1,.5-.13,22.75,22.75,0,0,1,3.79-.78c.47-.05.93-.1,1.4-.12s.87-.05,1.3-.05h.18c13.37,0,24.34,10.85,25.14,24.51a.1.1,0,0,1-.07,0,2.61,2.61,0,0,1,0,.48c0,.15,0,.31,0,.48H272a22.94,22.94,0,0,1-.29,3.45,22.37,22.37,0,0,1-16.66,18.56A21.84,21.84,0,0,1,244.85,231.57Z"/><path class="cls-2" d="M193.63,246.08a29.76,29.76,0,0,0-13-24.18,27.44,27.44,0,0,0-9.17-4v-.19l.29-6.13H158.56l.3,6.2v.12a27.49,27.49,0,0,0-4,1.27.13.13,0,0,0-.07,0,29.53,29.53,0,0,0-18.12,26.89h-1.59v3.45h60.14v-3.45ZM162.06,215h6.17l-.08,2.09,0,.19a29.68,29.68,0,0,0-6,0v-.15ZM140,246.08A25.91,25.91,0,0,1,159,221.4l.06,1.55,1.08,23.13Zm26.81,0H163.5l-1.11-23.85-.07-1.47a23.47,23.47,0,0,1,5.64,0l-.06,1.43Zm3.33,0,1.08-23.23.07-1.45a25.94,25.94,0,0,1,19.06,24.68Z"/><path class="cls-2" d="M278.17,209.59c0-.69-.06-1.36-.13-2-.1-1.07-.22-2.11-.4-3.15-.07-.38-.15-.74-.23-1.1a33.43,33.43,0,0,0-1.45-4.58c-.17-.41-.33-.81-.53-1.2s-.35-.73-.54-1.09-.36-.71-.56-1.07-.4-.69-.62-1l-.63-1c-.45-.64-.9-1.28-1.38-1.88,0,0,0,0,0,0-.5-.63-1-1.23-1.54-1.8q-.4-.44-.84-.84c-.28-.28-.56-.56-.86-.82-.58-.53-1.2-1-1.82-1.52s-1.26-.93-1.93-1.34a25.57,25.57,0,0,0-3.86-2.07c-.42-.19-.85-.37-1.26-.52l-.15-.07-1.2-.41-1.12-.35a11.34,11.34,0,0,0-1.11-.29l.3-6.32H243.1l.3,6.32c-12.52,2.93-21.92,14.41-22.2,28.2h-1.59V213h60.14v-3.45Zm-25.4-31.07-.1,2.28a29.68,29.68,0,0,0-6,0l-.11-2.28Zm22.06,30.59c0,.15,0,.31,0,.48H224.51a4.67,4.67,0,0,1,0-.52,2.12,2.12,0,0,1,0-.5,26.08,26.08,0,0,1,5.79-15c.5-.62,1-1.23,1.58-1.8a23.78,23.78,0,0,1,2.75-2.47,24,24,0,0,1,5-3,9.72,9.72,0,0,1,1-.41,10.22,10.22,0,0,1,1-.37l1-.33a4.07,4.07,0,0,1,.5-.13,22.75,22.75,0,0,1,3.79-.78c.47-.05.93-.1,1.4-.12s.87-.05,1.3-.05h.18c13.37,0,24.34,10.85,25.14,24.51a.1.1,0,0,1-.07,0A2.61,2.61,0,0,1,274.83,209.11Z"/><path class="cls-2" d="M339.39,217.86a1.22,1.22,0,0,1-.75,1.12,1.07,1.07,0,0,1-.46.11h-3.76V223a1.45,1.45,0,0,1-.25.74.81.81,0,0,1-.12.14,1.18,1.18,0,0,1-.83.35h0a1.08,1.08,0,0,1-.81-.38h0A1.26,1.26,0,0,1,332,223v-3.9h-3.81a1.23,1.23,0,0,1-1.2-1.18,1.25,1.25,0,0,1,1.15-1.31H332v-3.9a1.24,1.24,0,0,1,1.08-1.26l.15,0a1.27,1.27,0,0,1,1.19,1.28v3.9h3.77a1.11,1.11,0,0,1,.85.38A1.18,1.18,0,0,1,339.39,217.86Z"/><path class="cls-2" d="M353.42,202.74H312.64a3.32,3.32,0,0,0-3.13,3.45l2.62,22a2.75,2.75,0,0,0,.25,1.07,3.72,3.72,0,0,0,3.36,2H317l33.82-.14a2.93,2.93,0,0,0,1.22-.26,3.4,3.4,0,0,0,2-3l.25-2.08,2.23-19.37v-.21A3.3,3.3,0,0,0,353.42,202.74Zm-33.35,25.08-4.33,0a1.57,1.57,0,0,1-.32-.09l-.25-2.09-2.29-19.47h40.33l-1.93,16.69-.55,4.77h-1.62Z"/></svg>