<svg id="Layer_1" data-name="Layer 1" xmlns="http://www.w3.org/2000/svg" viewBox="0 0 500 500"><defs><style>.cls-1,.cls-2{fill:#2d98d4;}.cls-1{opacity:0.19;}</style></defs><title>units</title><circle class="cls-1" cx="250" cy="250" r="167.19"/><path class="cls-2" d="M250,50C139.54,50,50,139.54,50,250s89.54,200,200,200,200-89.53,200-200S360.47,50,250,50Zm0,385.49C147.55,435.49,64.51,352.44,64.51,250A185.48,185.48,0,0,1,250,64.51c102.44,0,185.49,83,185.49,185.49S352.44,435.49,250,435.49Z"/><path class="cls-2" d="M169.17,162.08a2.17,2.17,0,0,0-.65-1.56,2.24,2.24,0,0,0-1.56-.66H130.18a2.23,2.23,0,0,0-2.21,2.22v98.37h0v77.47a2.26,2.26,0,0,0,2.21,2.21H167a2.21,2.21,0,0,0,2.21-2.21V262h0ZM157.45,269.9h7.29v7.28H148.12a2.21,2.21,0,0,0,0,4.42h16.62v7.28H158.7a2.21,2.21,0,1,0,0,4.42h6v7.28h-6a2.21,2.21,0,0,0,0,4.42h6v7.28h-6a2.21,2.21,0,0,0,0,4.42h6V324h-6a2.21,2.21,0,0,0,0,4.42h6v7.31H132.4V254h0V164.29h32.35v7.37l-.22,0h-8.26a2.21,2.21,0,1,0,0,4.42h8.26a1.42,1.42,0,0,0,.22,0v7.35c-.08,0-.14,0-.22,0h-8.25a2.21,2.21,0,1,0,0,4.42h8.25a1.43,1.43,0,0,0,.22,0v7.37a1.74,1.74,0,0,0-.22-.05h-8.25a2.21,2.21,0,1,0,0,4.42h8.25a1.43,1.43,0,0,0,.22,0v7.36c-.08,0-.15,0-.22,0h-8.25a2.21,2.21,0,1,0,0,4.42h8.25a1.42,1.42,0,0,0,.22-.05v7.32H146.87a2.22,2.22,0,0,0,0,4.43h17.87v7.28h-7.29a2.21,2.21,0,0,0,0,4.42h7.29v7.28h-7.29a2.21,2.21,0,1,0,0,4.42h7.29v5.14h0v2.13h-7.29a2.21,2.21,0,0,0-2.21,2.21.76.76,0,0,0,0,.16.7.7,0,0,0,0,.14,2.22,2.22,0,0,0,2.21,2.22h7.29v3.69h0v3.58h-7.29a2.21,2.21,0,0,0,0,4.42Z"/><path class="cls-2" d="M371.84,336.64a2.69,2.69,0,0,0-.55-.82h0L194.66,161.47h0l-.16-.1a2.53,2.53,0,0,0-.65-.43,2.57,2.57,0,0,0-.77-.15c-.06,0-.12,0-.19,0h0a2.55,2.55,0,0,0-1.79.74h0c-.05,0-.06.1-.11.15a2.77,2.77,0,0,0-.43.66,2.69,2.69,0,0,0-.14.74,1.42,1.42,0,0,0-.05.22V337.61a2.53,2.53,0,0,0,2.53,2.53H369.51a2.66,2.66,0,0,0,1-.2,2.73,2.73,0,0,0,.83-.55h0s.05-.08.08-.11a3,3,0,0,0,.46-.71,2.19,2.19,0,0,0,.14-.71,2.21,2.21,0,0,0,0-.25h0A2.65,2.65,0,0,0,371.84,336.64ZM310,326.75a2.52,2.52,0,0,0-2.53,2.52v5.82H294.33v-5.82a2.53,2.53,0,0,0-5.05,0v5.82H276.13v-5.82a2.53,2.53,0,0,0-5.05,0v5.82H257.93v-5.82a2.52,2.52,0,0,0-5,0v5.82H239.74v-5.82a2.52,2.52,0,0,0-5,0v5.82H221.55v-5.82a2.53,2.53,0,0,0-5.05,0v5.82H195.4v-19.6h5.81a2.53,2.53,0,1,0,0-5.05H195.4V297.3h5.81a2.53,2.53,0,1,0,0-5.05H195.4V279.09h5.82a2.52,2.52,0,1,0,0-5H195.4V260.9h5.81a2.53,2.53,0,1,0,0-5H195.4V242.71h5.81a2.53,2.53,0,1,0,0-5.05H195.4V224.52h5.81a2.53,2.53,0,0,0,0-5.05h-5.82V169.29l168,165.8H312.52v-5.82A2.52,2.52,0,0,0,310,326.75Z"/><path class="cls-2" d="M297.91,304.62a2,2,0,0,0,.61-.41h0s0-.06.06-.08a1.94,1.94,0,0,0,.34-.52,1.61,1.61,0,0,0,.1-.53,1.16,1.16,0,0,0,0-.18h0a1.91,1.91,0,0,0-.14-.71,1.94,1.94,0,0,0-.41-.6h0l-72.84-71.91h0a1.05,1.05,0,0,0-.11-.07,1.6,1.6,0,0,0-.49-.32,1.68,1.68,0,0,0-.54-.11c-.06,0-.11,0-.16,0h0a1.76,1.76,0,0,0-.71.14,1.9,1.9,0,0,0-.61.4h0s-.05.08-.08.11a2,2,0,0,0-.32.49,1.66,1.66,0,0,0-.1.54,1.24,1.24,0,0,0,0,.16v71.92a1.87,1.87,0,0,0,1.87,1.87H297.2A2,2,0,0,0,297.91,304.62Zm-71.7-69.17L292.65,301H226.21Z"/></svg>