<svg id="Layer_1" data-name="Layer 1" xmlns="http://www.w3.org/2000/svg" viewBox="0 0 500 500"><defs><style>.cls-1,.cls-2{fill:#2d98d4;}.cls-1{opacity:0.19;}</style></defs><circle class="cls-1" cx="250" cy="250" r="167.19"/><path class="cls-2" d="M250,50C139.54,50,50,139.54,50,250s89.54,200,200,200,200-89.53,200-200S360.47,50,250,50Zm0,385.49C147.55,435.49,64.51,352.44,64.51,250A185.48,185.48,0,0,1,250,64.51c102.44,0,185.49,83,185.49,185.49S352.44,435.49,250,435.49Z"/><path class="cls-2" d="M260.53,230.8l2.86,8.29,2.17,6.34s0,.08.05.11V230.8Zm16.17,11V249a10.13,10.13,0,0,1-.31,2.72c2,.82,4.17,1.77,6.37,2.71a15.83,15.83,0,0,0,.71-4.89v-4.85Zm-16.17-11,2.86,8.29,2.17,6.34s0,.08.05.11V230.8Zm0,0,2.86,8.29,2.17,6.34s0,.08.05.11V230.8Zm16.17,11V249a10.13,10.13,0,0,1-.31,2.72c2,.82,4.17,1.77,6.37,2.71a15.83,15.83,0,0,0,.71-4.89v-4.85ZM304.1,254a6.14,6.14,0,0,0-1.06-.74c-.05.2-.11.4-.17.6a2.26,2.26,0,0,1-.77,1,5.61,5.61,0,0,1-1.51.65,10.34,10.34,0,0,1-2.38.23,17,17,0,0,1-8.17-1.91L288.93,257c1.43.57,2.74,1.14,3.91,1.63.77.31,1.49.66,2.12.88s.91.4,1.28.58.8.34,1,.4l.46.25h-.06a4.51,4.51,0,0,1,1,.77q5.66-.08,8.49-2.31c.23-.17.43-.37.63-.54A13.53,13.53,0,0,0,304.1,254Zm0,0a6.14,6.14,0,0,0-1.06-.74c-.05.2-.11.4-.17.6a2.26,2.26,0,0,1-.77,1,5.61,5.61,0,0,1-1.51.65,10.34,10.34,0,0,1-2.38.23,17,17,0,0,1-8.17-1.91L288.93,257c1.43.57,2.74,1.14,3.91,1.63.77.31,1.49.66,2.12.88s.91.4,1.28.58.8.34,1,.4l.46.25h-.06a4.51,4.51,0,0,1,1,.77q5.66-.08,8.49-2.31c.23-.17.43-.37.63-.54A13.53,13.53,0,0,0,304.1,254ZM276.7,249a10.13,10.13,0,0,1-.31,2.72c2,.82,4.17,1.77,6.37,2.71a15.83,15.83,0,0,0,.71-4.89v-4.85l-6.77-2.89Zm-13.31-9.88,2.17,6.34s0,.08.05.11V230.8h-5.08Zm125.54-14.46a14.06,14.06,0,0,0-2.54-1.66c-.8-.43-.4-.26-.63-.37a10.45,10.45,0,0,1-1-.37c-.83-.34-2.09-.92-3.49-1.52-2.8-1.17-6.43-2.71-10.08-4.25-6.4-2.69-11.23-4.75-12.78-5.4l-2.88-8.32-9.17-26.68a10.51,10.51,0,0,0-3.49-4.89,14.73,14.73,0,0,0-8.91-2.8H204.67a14,14,0,0,0-13.83,13.83v.89H162.27a13.9,13.9,0,0,0-13.86,13.8v.88H119.87a13.87,13.87,0,0,0-9.51,3.83,13.67,13.67,0,0,0-4.35,10v87.71a11.8,11.8,0,0,0,.09,1.46,13.91,13.91,0,0,0,13.77,12.4h9.74a13.57,13.57,0,0,0,.38,1.49,23,23,0,0,0,44.77-1.49h65.65a9.05,9.05,0,0,0,.38,1.49,23,23,0,0,0,44.77-1.49h7.25A23.06,23.06,0,0,0,328,298.49h7.25a22.77,22.77,0,0,0,12.57,3.74,23,23,0,0,0,22.58-18.46h9.74A14,14,0,0,0,394,269.91v-34.6A13.76,13.76,0,0,0,388.93,224.63Zm-224,89.46a13.85,13.85,0,0,1-12.74,8.31,10.77,10.77,0,0,1-2.15-.17,13.7,13.7,0,0,1-11.6-12.17,9.46,9.46,0,0,1-.11-1.52,13.78,13.78,0,0,1,13.86-13.83h.68a14.27,14.27,0,0,1,8.12,3.12,6.22,6.22,0,0,1,.65.63,13.59,13.59,0,0,1,4.4,10.08A14.24,14.24,0,0,1,164.93,314.09Zm110.74.08A13.78,13.78,0,0,1,263,322.4a11,11,0,0,1-2.15-.17,13.76,13.76,0,0,1-11.63-12.17,15,15,0,0,1-.08-1.52,13.87,13.87,0,0,1,22.63-10.71,4.75,4.75,0,0,1,.71.66,13.47,13.47,0,0,1,4.34,10.05A14.3,14.3,0,0,1,275.67,314.17Zm42.4-14.71a13.66,13.66,0,0,1-11.74,8.2,13.7,13.7,0,0,0,2.83-8.35v-18.8a12.52,12.52,0,0,1,3.14,1.35,10.09,10.09,0,0,1,1.86,1.25c.25.2.48.43.74.66a13.74,13.74,0,0,1,4.34,10.09A14.1,14.1,0,0,1,318.07,299.46Zm42.43-14.72A13.7,13.7,0,0,1,348.73,293a13.66,13.66,0,0,0,2.86-8.37V265.83a13.1,13.1,0,0,1,5,2.57,13.72,13.72,0,0,1,5.08,10.74A14.58,14.58,0,0,1,360.5,284.74Zm24.26-14.83a2.61,2.61,0,0,1-.12.83,4.43,4.43,0,0,1-4.51,3.8h-9.74a23.49,23.49,0,0,0-4.18-9.23c-.34-.48-.74-.94-1.14-1.4a23.25,23.25,0,0,0-13.48-7.51V250a13.82,13.82,0,0,0-5.06-10.69,16.46,16.46,0,0,0-2.54-1.65c-.83-.4-.4-.23-.66-.37s-.57-.18-1-.38c-.83-.34-2.09-.88-3.49-1.51-1-.43-2.08-.89-3.25-1.37l-6.83-2.86c-.17-.08-.37-.14-.55-.23v10l7,3,.35.15c.65.25,1.25.51,1.77.74s.94.37,1.31.54l1,.43.43.23H340a4.48,4.48,0,0,1,2.29,4v34.6a3.58,3.58,0,0,1-.09.83,4.39,4.39,0,0,1-4,3.77,3.08,3.08,0,0,1-.54,0H328a23,23,0,0,0-3-7.37,19.39,19.39,0,0,0-1.22-1.83c-.35-.49-.75-1-1.12-1.4a23.28,23.28,0,0,0-4.71-4.09c-.2-.11-.4-.25-.6-.37H299.93v25.14a2.49,2.49,0,0,1-.12.83,4.37,4.37,0,0,1-4,3.75,1.87,1.87,0,0,1-.54.05h-9.74a23.62,23.62,0,0,0-4.17-9.23,15.15,15.15,0,0,0-1.15-1.37,24.91,24.91,0,0,0-4.71-4.11A22.67,22.67,0,0,0,263,285.49a17,17,0,0,0-2.75.2c-.37.05-.8.08-1.2.17a22.19,22.19,0,0,0-8.6,3.37,23.62,23.62,0,0,0-5.17,4.66s0,0,0,.05a20.59,20.59,0,0,0-2.94,4.55,17.06,17.06,0,0,0-1.34,3.4,16.19,16.19,0,0,0-.55,2.05H174.76a23.62,23.62,0,0,0-4.17-9.23,15.15,15.15,0,0,0-1.15-1.37,24.91,24.91,0,0,0-4.71-4.11,22.85,22.85,0,0,0-6.8-3,22.25,22.25,0,0,0-5.74-.74,16.25,16.25,0,0,0-2.75.2c-.34.05-.65.08-1,.11a23,23,0,0,0-14,8.09s0,0,0,.05a22.67,22.67,0,0,0-4.83,10h-9.74a4.52,4.52,0,0,1-4.63-4.63V211.6a4.51,4.51,0,0,1,4.63-4.6H249.13a5.84,5.84,0,0,1,1.43.17,3.64,3.64,0,0,1,2.25,1.34l.43,1.26,2.66,7.66h9.74L263,209.77l-1.48-4.31a10.51,10.51,0,0,0-3.49-4.89,14.73,14.73,0,0,0-8.91-2.8H157.67v-.88a4.49,4.49,0,0,1,4.6-4.6H291.56a6.46,6.46,0,0,1,1.4.17,3.41,3.41,0,0,1,2.25,1.34l5.55,16,2.65,7.66h9.72l-2.66-7.66-6.54-19a10.36,10.36,0,0,0-3.46-4.91,14.89,14.89,0,0,0-8.91-2.77H200.07v-.89a4.53,4.53,0,0,1,4.6-4.63H334a7.78,7.78,0,0,1,1.43.17,3.78,3.78,0,0,1,2.25,1.37l10.57,30.58,2.18,6.34a4.64,4.64,0,0,0,2.57,2.74s7.28,3.09,14.63,6.23c3.62,1.54,7.28,3.06,10.08,4.23.77.31,1.49.63,2.12.88.48.23.91.4,1.28.58s.8.34,1,.4l.46.25h-.06a4.46,4.46,0,0,1,2.29,4ZM303,253.29c-.05.2-.11.4-.17.6a2.26,2.26,0,0,1-.77,1,5.61,5.61,0,0,1-1.51.65,10.34,10.34,0,0,1-2.38.23,17,17,0,0,1-8.17-1.91L288.93,257c1.43.57,2.74,1.14,3.91,1.63.77.31,1.49.66,2.12.88s.91.4,1.28.58.8.34,1,.4l.46.25h-.06a4.51,4.51,0,0,1,1,.77q5.66-.08,8.49-2.31c.23-.17.43-.37.63-.54A13.53,13.53,0,0,0,304.1,254,6.14,6.14,0,0,0,303,253.29ZM276.7,249a10.13,10.13,0,0,1-.31,2.72c2,.82,4.17,1.77,6.37,2.71a15.83,15.83,0,0,0,.71-4.89v-4.85l-6.77-2.89Zm-13.31-9.88,2.17,6.34s0,.08.05.11V230.8h-5.08Zm-2.86-8.29,2.86,8.29,2.17,6.34s0,.08.05.11V230.8Zm16.17,11V249a10.13,10.13,0,0,1-.31,2.72c2,.82,4.17,1.77,6.37,2.71a15.83,15.83,0,0,0,.71-4.89v-4.85ZM304.1,254a6.14,6.14,0,0,0-1.06-.74c-.05.2-.11.4-.17.6a2.26,2.26,0,0,1-.77,1,5.61,5.61,0,0,1-1.51.65,10.34,10.34,0,0,1-2.38.23,17,17,0,0,1-8.17-1.91L288.93,257c1.43.57,2.74,1.14,3.91,1.63.77.31,1.49.66,2.12.88s.91.4,1.28.58.8.34,1,.4l.46.25h-.06a4.51,4.51,0,0,1,1,.77q5.66-.08,8.49-2.31c.23-.17.43-.37.63-.54A13.53,13.53,0,0,0,304.1,254Zm-27.4-12.26V249a10.13,10.13,0,0,1-.31,2.72c2,.82,4.17,1.77,6.37,2.71a15.83,15.83,0,0,0,.71-4.89v-4.85ZM304.1,254a6.14,6.14,0,0,0-1.06-.74c-.05.2-.11.4-.17.6a2.26,2.26,0,0,1-.77,1,5.61,5.61,0,0,1-1.51.65,10.34,10.34,0,0,1-2.38.23,17,17,0,0,1-8.17-1.91L288.93,257c1.43.57,2.74,1.14,3.91,1.63.77.31,1.49.66,2.12.88s.91.4,1.28.58.8.34,1,.4l.46.25h-.06a4.51,4.51,0,0,1,1,.77q5.66-.08,8.49-2.31c.23-.17.43-.37.63-.54A13.53,13.53,0,0,0,304.1,254ZM260.53,230.8l2.86,8.29,2.17,6.34s0,.08.05.11V230.8Z"/><path class="cls-2" d="M129.9,209.77v72.09H335.59V209.77Zm198.31,64.4h-191V217.43h191Z"/><path class="cls-2" d="M176.76,249a7,7,0,0,0-1.72-2.66,10.65,10.65,0,0,0-2.88-2,40.29,40.29,0,0,0-4.09-1.71c-.74-.29-1.43-.52-2.06-.77a10.57,10.57,0,0,1-1.65-.83,4,4,0,0,1-1.12-1,2.41,2.41,0,0,1-.4-1.37,2.31,2.31,0,0,1,1.09-2.09,7,7,0,0,1,3.48-.65,12.93,12.93,0,0,1,3.72.48,17.2,17.2,0,0,1,2.8,1.17l2-5.37a19.42,19.42,0,0,0-3.66-1.43,18.92,18.92,0,0,0-5.25-.65,16.1,16.1,0,0,0-4.6.62,9.81,9.81,0,0,0-3.49,1.83,8.35,8.35,0,0,0-2.23,2.83,9,9,0,0,0-.77,3.77,8.05,8.05,0,0,0,.74,3.55,7.84,7.84,0,0,0,1.92,2.48,11.32,11.32,0,0,0,2.65,1.69c1,.45,2,.85,2.95,1.2a19.84,19.84,0,0,1,4.8,2.11,2.88,2.88,0,0,1,1.37,2.43,3.76,3.76,0,0,1-.2,1.29,2.6,2.6,0,0,1-.8,1,5.32,5.32,0,0,1-1.49.65,10.49,10.49,0,0,1-2.37.23,17,17,0,0,1-4.86-.6,16.41,16.41,0,0,1-3.31-1.31l-1.91,5.4a14.48,14.48,0,0,0,1.48.74,17.18,17.18,0,0,0,2.14.72,24.4,24.4,0,0,0,2.83.6,23.83,23.83,0,0,0,3.63.22q6,0,8.92-2.31a7.83,7.83,0,0,0,2.94-6.54A10,10,0,0,0,176.76,249Z"/><path class="cls-2" d="M179.07,230.8v5.77h9.09v24.34h6.77V236.57H204V230.8Z"/><path class="cls-2" d="M229,251.91c-1-2.74-2-5.34-3-7.77s-1.94-4.74-2.88-6.94-1.95-4.31-2.95-6.4h-6.42c-1,2.09-2,4.23-2.95,6.4s-1.88,4.51-2.85,6.94-2,5-3,7.77-2.09,5.78-3.23,9h7.05c.32-1,.69-2.11,1.06-3.22s.77-2.2,1.14-3.29h11.78c.37,1.09.77,2.2,1.14,3.29s.74,2.17,1.08,3.22h7.26C231.13,257.69,230.07,254.69,229,251.91ZM212.56,249c.48-1.29.94-2.54,1.4-3.71s.88-2.29,1.25-3.29.69-1.86,1-2.6.52-1.34.66-1.77c.17.43.4,1,.72,1.74s.62,1.63,1,2.63.8,2.09,1.23,3.26.86,2.43,1.35,3.74Z"/><path class="cls-2" d="M230,230.8v5.77h9.08v24.34h6.77V236.57h9.09V230.8Z"/><path class="cls-2" d="M276.7,230.8V249a10.13,10.13,0,0,1-.31,2.72,4.78,4.78,0,0,1-1.23,2.45,5.55,5.55,0,0,1-4,1.52,7,7,0,0,1-2.23-.35,4,4,0,0,1-1.74-1.14,5.51,5.51,0,0,1-1.12-2.11,9.88,9.88,0,0,1-.43-3.09V230.8h-6.77v18.71a15.21,15.21,0,0,0,.72,4.86,9.86,9.86,0,0,0,6,6.26,14.83,14.83,0,0,0,5.45.88,16.31,16.31,0,0,0,5.57-.85,10.09,10.09,0,0,0,3.89-2.46,10.42,10.42,0,0,0,2.26-3.8,15.83,15.83,0,0,0,.71-4.89V230.8Z"/><path class="cls-2" d="M309.53,249a6.83,6.83,0,0,0-1.72-2.66,10.83,10.83,0,0,0-2.91-2,38.45,38.45,0,0,0-4.09-1.71c-.74-.29-1.42-.52-2.05-.77a10.7,10.7,0,0,1-1.66-.83,4.34,4.34,0,0,1-1.09-1,2.2,2.2,0,0,1-.4-1.37,2.31,2.31,0,0,1,1.06-2.09,7.17,7.17,0,0,1,3.52-.65,13.05,13.05,0,0,1,3.71.48,18.39,18.39,0,0,1,2.8,1.17l1.94-5.37a18.29,18.29,0,0,0-8.91-2.08,16.41,16.41,0,0,0-4.6.62,10.17,10.17,0,0,0-3.49,1.83,8,8,0,0,0-2.2,2.83,9,9,0,0,0-.8,3.77,7.92,7.92,0,0,0,.75,3.55,8.6,8.6,0,0,0,1.91,2.48,12.78,12.78,0,0,0,2.66,1.69c1,.45,2,.85,3,1.2a19.15,19.15,0,0,1,4.77,2.11,2.91,2.91,0,0,1,1.4,2.43,4.49,4.49,0,0,1-.06.66v0c-.05.2-.11.4-.17.6a2.26,2.26,0,0,1-.77,1,5.61,5.61,0,0,1-1.51.65,10.34,10.34,0,0,1-2.38.23,17,17,0,0,1-8.17-1.91L288.93,257l-.8,2.23a15.33,15.33,0,0,0,1.51.74,16.26,16.26,0,0,0,2.12.72,22.28,22.28,0,0,0,6.45.82h.43q5.66-.08,8.49-2.31c.23-.17.43-.37.63-.54a8,8,0,0,0,2.34-6A10.68,10.68,0,0,0,309.53,249Z"/></svg>