<svg id="Layer_1" data-name="Layer 1" xmlns="http://www.w3.org/2000/svg" viewBox="0 0 500 500"><defs><style>.cls-1,.cls-2{fill:#2d98d4;}.cls-1{opacity:0.19;}</style></defs><circle class="cls-1" cx="250" cy="250" r="167.19"/><path class="cls-2" d="M250,50C139.54,50,50,139.54,50,250s89.54,200,200,200,200-89.53,200-200S360.47,50,250,50Zm0,385.49C147.55,435.49,64.51,352.44,64.51,250A185.48,185.48,0,0,1,250,64.51c102.44,0,185.49,83,185.49,185.49S352.44,435.49,250,435.49Z"/><path class="cls-2" d="M388.35,223.59a14.46,14.46,0,0,0-2.53-1.72,4.65,4.65,0,0,1-.63-.39,10.7,10.7,0,0,1-1-.37l-3.46-1.59c-2.78-1.21-6.4-2.8-10-4.41-6.37-2.8-11.17-4.94-12.71-5.63l-2.86-8.63L346,173.09a10.84,10.84,0,0,0-3.47-5.1,14.17,14.17,0,0,0-8.87-2.9H204.87a13.44,13.44,0,0,0-9.48,4,14.62,14.62,0,0,0-4.3,10.4v.93H162.62a13.51,13.51,0,0,0-9.45,4,14.65,14.65,0,0,0-4.32,10.41v.92H120.4a13.59,13.59,0,0,0-9.48,4,14.67,14.67,0,0,0-4.3,10.41v91.25c0,.5,0,1,0,1.53h0c.73,7.21,6.62,12.89,13.7,12.89h9.71c.1.5.23,1.06.35,1.53,2.66,10.2,11.58,17.67,22.13,17.67,11.1,0,20.35-8.24,22.5-19.2h65.35a14.87,14.87,0,0,0,.38,1.53c2.63,10.2,11.56,17.67,22.12,17.67,11.08,0,20.36-8.24,22.48-19.2h7.21a22,22,0,0,0,12.54,3.91c11.1,0,20.35-8.24,22.47-19.2h7.23a22.08,22.08,0,0,0,12.54,3.91c11.08,0,20.36-8.24,22.48-19.2h9.68c7.56,0,13.81-6.5,13.81-14.42v-36A14.55,14.55,0,0,0,388.35,223.59Zm-230.3-28.84a4.61,4.61,0,0,1,4.57-4.81H291.36a6.12,6.12,0,0,1,1.42.18,3.7,3.7,0,0,1,2.25,1.4L300.46,208l0,.08H262.92l0-.08-1.41-4.28a10.86,10.86,0,0,0-3.47-5.09,14.16,14.16,0,0,0-8.87-2.91H158.05ZM312.8,216h14.61v58.63H316.19l-.13-.08H299.71v.08H130.54V216H312.8ZM165.28,316.66a13.76,13.76,0,0,1-12.69,8.67,11.4,11.4,0,0,1-2.13-.19,14,14,0,0,1-11.58-12.65,12.08,12.08,0,0,1-.1-1.58c0-8,6.15-14.4,13.81-14.4h.68a13.57,13.57,0,0,1,8.06,3.25,4.89,4.89,0,0,1,.66.63,14.54,14.54,0,0,1,4.4,10.52A15,15,0,0,1,165.28,316.66Zm110.28.08a13.69,13.69,0,0,1-12.62,8.59,11.51,11.51,0,0,1-2.14-.19,14,14,0,0,1-11.58-12.65c-.05-.53-.08-1.06-.08-1.58a14.63,14.63,0,0,1,4.3-10.49,13.5,13.5,0,0,1,9.5-3.91,13.22,13.22,0,0,1,8.7,3.22,7.94,7.94,0,0,1,.73.69,14.49,14.49,0,0,1,4.33,10.49A15.37,15.37,0,0,1,275.56,316.74Zm24-14.58a4.4,4.4,0,0,1-4,3.89,1.77,1.77,0,0,1-.53.05h-9.68a24.83,24.83,0,0,0-4.17-9.59,17.27,17.27,0,0,0-1.14-1.45,25.28,25.28,0,0,0-4.7-4.25,21.94,21.94,0,0,0-12.47-3.89,18.87,18.87,0,0,0-2.73.19c-.4.05-.8.1-1.21.18a21.28,21.28,0,0,0-8.54,3.52,23.21,23.21,0,0,0-5.19,4.86s0,0,0,.05a23.65,23.65,0,0,0-2.94,4.7A23.22,23.22,0,0,0,241,304c-.2.69-.38,1.4-.53,2.14H175.09a24.83,24.83,0,0,0-4.17-9.59c-.36-.5-.74-1-1.14-1.45a25.93,25.93,0,0,0-4.7-4.25,22.44,22.44,0,0,0-6.75-3.12,20.76,20.76,0,0,0-5.74-.77,18.48,18.48,0,0,0-2.73.19l-1,.13a22.62,22.62,0,0,0-14,8.43s0,0,0,.05a24,24,0,0,0-4.8,10.38H120.4a4.6,4.6,0,0,1-4.6-4.81V210a4.61,4.61,0,0,1,4.6-4.78H249.14a5.77,5.77,0,0,1,1.42.16,3.45,3.45,0,0,1,2.22,1.4l.38,1.13,0,.08H123v74.48H299.71v18.78A3.1,3.1,0,0,1,299.6,302.16Zm18.18-.71a13.62,13.62,0,0,1-11.7,8.53,14.53,14.53,0,0,0,2.83-8.69V282.51h1.94a11.62,11.62,0,0,1,3,1.93,7.71,7.71,0,0,1,.73.69A14.51,14.51,0,0,1,319,295.61,15.25,15.25,0,0,1,317.78,301.45ZM342,286a3.1,3.1,0,0,1-.1.87,4.41,4.41,0,0,1-4,3.88,1.66,1.66,0,0,1-.55.06h-9.69a24.54,24.54,0,0,0-3.31-8.3H335V243.74a7.71,7.71,0,0,1,.73.32c.46.18.89.39,1.27.55s.93.4,1.29.58.78.35,1,.43.3.18.43.26h-.05A4.72,4.72,0,0,1,342,250Zm18.08.16a13.7,13.7,0,0,1-11.71,8.53,14.73,14.73,0,0,0,2.83-8.69V266.45a13,13,0,0,1,5,2.7,14.45,14.45,0,0,1,5.06,11.17A15.43,15.43,0,0,1,360,286.16Zm24.14-15.45a3.23,3.23,0,0,1-.1.87,4.44,4.44,0,0,1-4.5,3.93h-9.68a24.72,24.72,0,0,0-4.17-9.58c-.36-.51-.74-1-1.14-1.46a22.8,22.8,0,0,0-13.43-7.81V250a14.63,14.63,0,0,0-5-11.12,14.25,14.25,0,0,0-2.55-1.72c-.78-.45-.38-.26-.63-.39s-.58-.16-1-.37c-.83-.37-2.07-1-3.46-1.59-.86-.37-1.77-.76-2.76-1.21l-.73-.32V208H310.17l0-.08-6.45-19.57a10.78,10.78,0,0,0-3.46-5.1,14.14,14.14,0,0,0-8.88-2.9H200.27v-.93a4.62,4.62,0,0,1,4.6-4.8H333.61a6.17,6.17,0,0,1,1.41.18,3.53,3.53,0,0,1,2.23,1.4l10.54,31.83,2.18,6.6a4.77,4.77,0,0,0,2.55,2.85s7.26,3.2,14.56,6.47c3.64,1.62,7.26,3.2,10,4.42.78.31,1.49.66,2.1.92s.93.4,1.31.58.76.34,1,.42l.45.27h-.05a4.68,4.68,0,0,1,2.25,4.12Z"/><polygon class="cls-2" points="158.88 235.18 168.39 235.18 168.39 261.81 175.49 261.81 175.49 235.18 185 235.18 185 228.84 158.88 228.84 158.88 235.18"/><path class="cls-2" d="M206.29,235.63c-1.14,2.25-2.38,4.49-3.64,6.74-1.27-2.25-2.48-4.49-3.59-6.74s-2.18-4.51-3.14-6.79h-8.24c1.74,3.57,3.54,7,5.38,10.38s3.85,6.71,5.92,10.07v12.52h7.08v-12.6c2.07-3.38,4-6.71,5.89-10s3.64-6.76,5.36-10.33h-7.84C208.51,231.12,207.45,233.39,206.29,235.63Z"/><path class="cls-2" d="M241.48,231.06c-2.53-1.74-6.14-2.59-10.85-2.59-1.29,0-2.8.06-4.55.19a38.4,38.4,0,0,0-4.9.66v32.49h7.1v-11h2.23q7.1,0,10.92-2.65t3.82-8.58C245.25,235.61,244,232.78,241.48,231.06Zm-5.41,12.34a12,12,0,0,1-5.56,1h-2.23V235c.36-.06.79-.08,1.29-.11s1-.05,1.52-.05a18.77,18.77,0,0,1,2.83.21,6,6,0,0,1,2.15.76,3.47,3.47,0,0,1,1.36,1.46,4.71,4.71,0,0,1,.49,2.27C237.92,241.39,237.31,242.71,236.07,243.4Z"/><polygon class="cls-2" points="257.58 247.62 270.2 247.62 270.2 241.55 257.58 241.55 257.58 235.08 271.79 235.08 271.79 228.84 250.48 228.84 250.48 261.81 272.83 261.81 272.83 255.57 257.58 255.57 257.58 247.62"/><path class="cls-2" d="M296.7,245.83a11.42,11.42,0,0,0-3-2.17c-1.21-.61-2.63-1.24-4.27-1.87-.78-.29-1.52-.59-2.15-.85a8.35,8.35,0,0,1-1.74-.9,4.32,4.32,0,0,1-1.17-1.11,2.92,2.92,0,0,1-.4-1.53,2.5,2.5,0,0,1,1.11-2.24,6.76,6.76,0,0,1,3.67-.74,12.75,12.75,0,0,1,3.89.53,18.44,18.44,0,0,1,2.93,1.26l2.05-5.83a18.24,18.24,0,0,0-3.82-1.59,19,19,0,0,0-5.51-.71,16.43,16.43,0,0,0-4.83.68,11.19,11.19,0,0,0-3.64,2,9,9,0,0,0-2.3,3.11,9.91,9.91,0,0,0-.83,4.12,8.57,8.57,0,0,0,.78,3.86,4.23,4.23,0,0,0,.25.47,7.78,7.78,0,0,0,1.75,2.25,10.87,10.87,0,0,0,2.78,1.85c1,.5,2.05.92,3.08,1.32a19.63,19.63,0,0,1,5,2.3,3.19,3.19,0,0,1,1.47,2.69,4,4,0,0,1-.23,1.37,2.36,2.36,0,0,1-.84,1.09,4,4,0,0,1-1.56.68,9.1,9.1,0,0,1-2.48.27c-.53,0-1,0-1.52,0a15.75,15.75,0,0,1-3.56-.61,16,16,0,0,1-3.47-1.45l-2,5.89a11.51,11.51,0,0,0,1.56.82,17.84,17.84,0,0,0,2.23.82,25,25,0,0,0,6.75.9c3.64,0,6.5-.66,8.52-2a6.24,6.24,0,0,0,.81-.59,8.66,8.66,0,0,0,3.08-7.13,21.9,21.9,0,0,0-.58-4A7.82,7.82,0,0,0,296.7,245.83Z"/></svg>