<svg id="Layer_1" data-name="Layer 1" xmlns="http://www.w3.org/2000/svg" viewBox="0 0 500 500"><defs><style>.cls-1,.cls-2{fill:#2d98d4;}.cls-1{opacity:0.19;}</style></defs><circle class="cls-1" cx="250" cy="250" r="167.19"/><path class="cls-2" d="M250,50C139.54,50,50,139.54,50,250s89.54,200,200,200,200-89.53,200-200S360.47,50,250,50Zm0,385.49C147.55,435.49,64.51,352.44,64.51,250A185.48,185.48,0,0,1,250,64.51c102.44,0,185.49,83,185.49,185.49S352.44,435.49,250,435.49Z"/><path class="cls-2" d="M389,224.63a16.14,16.14,0,0,0-2.55-1.66c-.82-.43-.4-.26-.65-.37s-.57-.17-1-.37c-.83-.34-2.09-.92-3.49-1.52-2.77-1.17-6.4-2.71-10.08-4.25-6.4-2.69-11.23-4.75-12.78-5.4l-2.85-8.32-9.2-26.68a10.37,10.37,0,0,0-3.49-4.89,14.69,14.69,0,0,0-8.91-2.8H204.7a14,14,0,0,0-13.86,13.83v.89H162.27a13.9,13.9,0,0,0-13.83,13.8v.88H119.87a13.92,13.92,0,0,0-9.51,3.83,13.78,13.78,0,0,0-4.35,10v87.71a11.8,11.8,0,0,0,.09,1.46h0a13.89,13.89,0,0,0,13.74,12.4h9.74c.12.49.23,1,.38,1.49a23,23,0,0,0,44.8-1.49h65.62c.12.49.23,1,.38,1.49a23,23,0,0,0,44.8-1.49h7.22A23.06,23.06,0,0,0,328,298.49h7.25a23,23,0,0,0,35.17-14.72h9.72A13.93,13.93,0,0,0,394,269.91v-34.6A13.73,13.73,0,0,0,389,224.63Zm-224,89.46a13.85,13.85,0,0,1-12.74,8.34,13.57,13.57,0,0,1-2.15-.17,13.76,13.76,0,0,1-11.6-12.2,9.49,9.49,0,0,1-.08-1.52,13.77,13.77,0,0,1,13.83-13.83h.68a14.19,14.19,0,0,1,8.12,3.12,4.73,4.73,0,0,1,.65.63,14,14,0,0,1,3.29,15.63Zm110.74.08A13.73,13.73,0,0,1,263,322.43a13.92,13.92,0,0,1-2.17-.17,13.76,13.76,0,0,1-11.6-12.2,9.46,9.46,0,0,1-.11-1.52,13.87,13.87,0,0,1,22.63-10.71,5.41,5.41,0,0,1,.74.66,13.61,13.61,0,0,1,4.31,10.05A14.09,14.09,0,0,1,275.67,314.17Zm42.43-14.71a13.74,13.74,0,0,1-11.77,8.2,13.51,13.51,0,0,0,2.83-8.35v-18.8a13.21,13.21,0,0,1,5,2.6,9.19,9.19,0,0,1,.74.66,13.63,13.63,0,0,1,4.34,10.09A14.62,14.62,0,0,1,318.1,299.46Zm24.26-14.86a2.45,2.45,0,0,1-.12.83,4.38,4.38,0,0,1-4,3.77,2.91,2.91,0,0,1-.51,0H328a22.88,22.88,0,0,0-4.2-9.2c-.35-.49-.72-.94-1.12-1.4a23.28,23.28,0,0,0-4.71-4.09,6.2,6.2,0,0,0-.75-.45,22.46,22.46,0,0,0-6.82-2.75v1.06H299.93v26.91a3.64,3.64,0,0,1-.09.83,4.38,4.38,0,0,1-4,3.75,1.87,1.87,0,0,1-.54.05h-9.71a23.67,23.67,0,0,0-4.2-9.23c-.35-.48-.75-.94-1.12-1.37a25.09,25.09,0,0,0-4.74-4.11A22.66,22.66,0,0,0,263,285.49a16.44,16.44,0,0,0-2.74.2,11.18,11.18,0,0,0-1.2.17,21.83,21.83,0,0,0-8.6,3.37,23.1,23.1,0,0,0-5.2,4.66s0,0,0,.05a23,23,0,0,0-2.94,4.55,17.06,17.06,0,0,0-1.34,3.4,16.19,16.19,0,0,0-.55,2.05H174.79a23.67,23.67,0,0,0-4.2-9.23c-.35-.48-.75-.94-1.12-1.37a25.09,25.09,0,0,0-4.74-4.11,23,23,0,0,0-6.77-3,22.65,22.65,0,0,0-5.77-.74,16.49,16.49,0,0,0-2.75.2c-.31.05-.63.08-.94.11a23,23,0,0,0-14,8.09s0,0,0,.05a23.16,23.16,0,0,0-4.83,10h-9.74a4.5,4.5,0,0,1-4.6-4.63V211.6a4.49,4.49,0,0,1,4.6-4.6H249.13a5.66,5.66,0,0,1,1.43.17,3.45,3.45,0,0,1,2.25,1.34l.66,1.92,1,2.86,1.46,4.2h9.74l-1.46-4.2-1-2.86-1.71-5a10.46,10.46,0,0,0-3.46-4.89,14.82,14.82,0,0,0-8.94-2.8H157.67v-.88a4.51,4.51,0,0,1,4.6-4.6H291.56a7,7,0,0,1,1.43.17,3.6,3.6,0,0,1,2.25,1.34L301,210.43l1,2.86,1.45,4.2h6.95V233.4a.42.42,0,0,0,.14.09l6.68,2.85c2.4,1,5.18,2.17,8,3.35l10.11,4.25,2.12.89c.48.2.91.37,1.28.54s.77.34,1,.43.32.17.46.26h-.06a4.45,4.45,0,0,1,2.29,3.94Zm18.14.14A13.63,13.63,0,0,1,348.73,293a13.66,13.66,0,0,0,2.86-8.37V265.83a13.45,13.45,0,0,1,5,2.57,13.69,13.69,0,0,1,5.05,10.74A14,14,0,0,1,360.5,284.74Zm24.26-14.83a3.64,3.64,0,0,1-.09.83,4.46,4.46,0,0,1-4.54,3.8h-9.72a23.39,23.39,0,0,0-4.2-9.23,13.57,13.57,0,0,0-1.14-1.37,23,23,0,0,0-13.48-7.54V250a13.72,13.72,0,0,0-5.06-10.66,14.15,14.15,0,0,0-2.54-1.68c-.8-.4-.4-.23-.63-.37s-.6-.18-1-.35c-.86-.37-2.09-.91-3.49-1.54l-10.08-4.23c-5.2-2.17-9.38-3.94-11.58-4.91-.51-.2-.91-.4-1.2-.52l-2.88-8.28-1.43-4.17-1-2.86L304,190.77a10.62,10.62,0,0,0-3.49-4.91,14.83,14.83,0,0,0-8.91-2.77H200.1v-.89a4.51,4.51,0,0,1,4.6-4.63H334a7.78,7.78,0,0,1,1.43.17,3.57,3.57,0,0,1,2.25,1.37l10.57,30.58,2.2,6.34a4.55,4.55,0,0,0,2.55,2.74s7.31,3.09,14.63,6.23l10.08,4.23c.8.31,1.52.66,2.12.88s.94.4,1.28.58.8.34,1,.4.31.17.43.25h-.06a4.46,4.46,0,0,1,2.29,4Z"/><path class="cls-2" d="M125.7,210.43V276.6H317.21V210.43Zm6.86,59.11V217.49H310.39v52.05Z"/><path class="cls-2" d="M181.19,251l-.52-8.06c-.2-2.68-.4-5.25-.66-7.74s-.51-4.71-.8-6.71H173c-.54,1-1.14,2.14-1.83,3.54s-1.37,2.94-2.11,4.57-1.49,3.31-2.2,5-1.43,3.31-2.06,4.83c-.63-1.52-1.31-3.12-2.05-4.83s-1.46-3.4-2.2-5-1.46-3.17-2.15-4.57-1.28-2.57-1.8-3.54h-6.48c-.29,2-.55,4.25-.8,6.71s-.46,5.06-.63,7.74-.37,5.37-.54,8.06-.29,5.23-.4,7.63h6.6c.08-2.94.2-6.12.34-9.57s.37-6.92.66-10.43c.51,1.2,1.11,2.57,1.74,4s1.28,3,1.88,4.43,1.26,2.91,1.83,4.25,1.06,2.49,1.49,3.46h4.74c.4-1,.89-2.11,1.46-3.46s1.2-2.77,1.83-4.25,1.25-3,1.88-4.43,1.23-2.83,1.75-4c.28,3.51.51,7,.65,10.43s.26,6.63.35,9.57h6.6C181.47,256.23,181.36,253.71,181.19,251Z"/><path class="cls-2" d="M211.87,249.63c-1-2.77-2-5.34-3-7.8s-1.94-4.74-2.91-6.92-2-4.34-2.92-6.42h-6.43c-1,2.08-2,4.22-2.94,6.42s-1.91,4.49-2.89,6.92-2,5-3,7.8-2.08,5.74-3.22,9h7c.32-1.06.69-2.12,1.06-3.23s.77-2.2,1.14-3.31h11.77c.38,1.11.78,2.2,1.15,3.31s.77,2.17,1.08,3.23h7.26C214,255.37,212.9,252.37,211.87,249.63Zm-16.48-2.92c.48-1.31.94-2.54,1.4-3.74s.88-2.26,1.25-3.26.72-1.85,1-2.6.52-1.37.66-1.8c.17.43.43,1,.71,1.78s.63,1.62,1,2.6.8,2.08,1.23,3.28.89,2.43,1.34,3.74Z"/><path class="cls-2" d="M238.36,249.49a53.34,53.34,0,0,0-7-7.15c2.28-2.28,4.45-4.54,6.54-6.8s4.14-4.6,6.17-7h-8c-1.54,1.71-3.2,3.6-5,5.57s-3.57,3.91-5.31,5.77V228.49H219v30.14h6.77V245.86a32,32,0,0,1,3.14,2.83,39.28,39.28,0,0,1,3,3.31c1,1.14,1.86,2.31,2.69,3.43s1.54,2.2,2.14,3.2h8.08A92.48,92.48,0,0,0,238.36,249.49Z"/><path class="cls-2" d="M255.5,252.91v-7.25h12v-5.55h-12V234.2h13.57v-5.71H248.73v30.14h21.34v-5.72Z"/><path class="cls-2" d="M294.59,246.66a.72.72,0,0,0-.12-.23,7.44,7.44,0,0,0-1.6-2.43,11.32,11.32,0,0,0-2.91-2,42.57,42.57,0,0,0-4.09-1.72c-.74-.25-1.43-.51-2.06-.74a12.67,12.67,0,0,1-1.65-.83,4.66,4.66,0,0,1-1.12-1,2.48,2.48,0,0,1-.37-1.4,2.24,2.24,0,0,1,1.06-2.05,6.71,6.71,0,0,1,3.51-.69,11.72,11.72,0,0,1,3.72.52,17.4,17.4,0,0,1,2.8,1.14l1.94-5.34a18,18,0,0,0-3.66-1.43,18.75,18.75,0,0,0-5.25-.66,15.23,15.23,0,0,0-4.6.63,10.56,10.56,0,0,0-3.49,1.8,8.2,8.2,0,0,0-2.2,2.86,8.47,8.47,0,0,0-.8,3.74,4.06,4.06,0,0,0,.06.86,6.91,6.91,0,0,0,.68,2.68,5.45,5.45,0,0,0,.32.57,8,8,0,0,0,1.6,1.92,10.37,10.37,0,0,0,2.65,1.68,31.5,31.5,0,0,0,2.95,1.2,20.42,20.42,0,0,1,4.8,2.12,2.94,2.94,0,0,1,1.37,2.45,3.58,3.58,0,0,1-.2,1.26,1.65,1.65,0,0,1-.14.26,2,2,0,0,1-.66.71,2.34,2.34,0,0,1-.92.46,3.19,3.19,0,0,1-.57.2,9.14,9.14,0,0,1-2.37.26,17.15,17.15,0,0,1-4.86-.6,17.64,17.64,0,0,1-3.31-1.32l-1.91,5.37a10.6,10.6,0,0,0,1.51.75,16.32,16.32,0,0,0,2.11.74,25.79,25.79,0,0,0,2.86.6,27.47,27.47,0,0,0,3.6.23,16.55,16.55,0,0,0,7.54-1.46,7.72,7.72,0,0,0,1.38-.86,6,6,0,0,0,1-1,7.49,7.49,0,0,0,1.83-4.22,9.13,9.13,0,0,0,.09-1.32A11,11,0,0,0,294.59,246.66Z"/></svg>