<svg id="Layer_1" data-name="Layer 1" xmlns="http://www.w3.org/2000/svg" viewBox="0 0 500 500"><defs><style>.cls-1,.cls-2{fill:#2d98d4;}.cls-1{opacity:0.19;}</style></defs><circle class="cls-1" cx="250" cy="250" r="167.19"/><path class="cls-2" d="M250,50C139.54,50,50,139.54,50,250s89.54,200,200,200,200-89.53,200-200S360.47,50,250,50Zm0,385.49C147.55,435.49,64.51,352.44,64.51,250A185.48,185.48,0,0,1,250,64.51c102.44,0,185.49,83,185.49,185.49S352.44,435.49,250,435.49Z"/><path class="cls-2" d="M388.94,224.63a14.93,14.93,0,0,0-2.55-1.67,2.89,2.89,0,0,1-.64-.37c-.24-.09-.58-.17-1-.36-.83-.35-2.08-.91-3.48-1.52l-10.1-4.24c-6.39-2.7-11.22-4.75-12.76-5.42l-2.87-8.3-9.19-26.68a10.53,10.53,0,0,0-3.48-4.91,14.78,14.78,0,0,0-8.91-2.79H204.68a13.92,13.92,0,0,0-13.84,13.82v.88H162.27a13.92,13.92,0,0,0-13.84,13.82v.88H119.86A13.94,13.94,0,0,0,106,211.59v87.72a14.48,14.48,0,0,0,.08,1.47h0a13.91,13.91,0,0,0,13.75,12.4h9.75a14.36,14.36,0,0,0,.37,1.47,23,23,0,0,0,44.79-1.47h65.64a14.36,14.36,0,0,0,.37,1.47,23,23,0,0,0,44.78-1.47h7.26A23,23,0,0,0,328,298.48h7.25a23,23,0,0,0,35.16-14.7h9.73A13.94,13.94,0,0,0,394,269.91v-34.6A13.75,13.75,0,0,0,388.94,224.63Zm-224,89.45a13.82,13.82,0,0,1-12.74,8.34,11.52,11.52,0,0,1-2.14-.18,13.73,13.73,0,0,1-11.61-12.17,10.88,10.88,0,0,1-.1-1.52,13.79,13.79,0,0,1,13.85-13.85,5,5,0,0,1,.68,0,13.88,13.88,0,0,1,8.11,3.11,5.24,5.24,0,0,1,.66.61,13.57,13.57,0,0,1,4.41,10.1A13.87,13.87,0,0,1,164.92,314.08Zm110.75.08A13.77,13.77,0,0,1,263,322.42a11.74,11.74,0,0,1-2.16-.18,13.73,13.73,0,0,1-11.61-12.17,9.55,9.55,0,0,1-.1-1.52,13.86,13.86,0,0,1,22.62-10.73,7.26,7.26,0,0,1,.73.66,13.64,13.64,0,0,1,4.34,10.07A14.28,14.28,0,0,1,275.67,314.16Zm9.89-10.22a23,23,0,0,0-4.19-9.21,15.26,15.26,0,0,0-1.12-1.4,24.23,24.23,0,0,0-4.73-4.09A22.58,22.58,0,0,0,263,285.49a16.8,16.8,0,0,0-2.75.2c-.39.05-.8.1-1.2.17a22,22,0,0,0-8.6,3.38,22.56,22.56,0,0,0-5.19,4.66s0,0,0,0a22.62,22.62,0,0,0-2.94,4.54,18.78,18.78,0,0,0-1.34,3.4,16.8,16.8,0,0,0-.54,2.06H174.77a23.1,23.1,0,0,0-4.19-9.21,17.27,17.27,0,0,0-1.13-1.4,24.23,24.23,0,0,0-4.73-4.09,22.68,22.68,0,0,0-6.79-3,22.27,22.27,0,0,0-5.75-.74,16.49,16.49,0,0,0-2.75.2c-.32.05-.64.07-1,.12a22.9,22.9,0,0,0-14,8.09s0,0,0,0a22.72,22.72,0,0,0-4.83,10h-9.75a4.51,4.51,0,0,1-4.61-4.63V211.59a4.51,4.51,0,0,1,4.61-4.6H249.13a6.21,6.21,0,0,1,1.42.17,3.5,3.5,0,0,1,2.26,1.35l10.58,30.57,2.18,6.35a4.6,4.6,0,0,0,2.55,2.74s7.3,3.09,14.63,6.23l10.09,4.24,2.11.88c.49.22.93.39,1.3.56s.78.35,1,.42l.44.24h-.05a4.47,4.47,0,0,1,2.28,4v34.6a2.86,2.86,0,0,1-.1.83,4.36,4.36,0,0,1-4,3.75,1.87,1.87,0,0,1-.54.05Zm32.52-4.48a13.71,13.71,0,0,1-11.76,8.21,13.65,13.65,0,0,0,2.84-8.36V280.52a13.34,13.34,0,0,1,5,2.59,8.89,8.89,0,0,1,.73.67,13.64,13.64,0,0,1,4.34,10.07A14.28,14.28,0,0,1,318.08,299.46Zm9.9-10.22a23,23,0,0,0-4.19-9.21,17.27,17.27,0,0,0-1.13-1.4,23.22,23.22,0,0,0-4.7-4.09,22.47,22.47,0,0,0-8.8-3.43v-6.4A13.76,13.76,0,0,0,304.11,254a14.55,14.55,0,0,0-2.55-1.67,3.89,3.89,0,0,1-.63-.36,10.7,10.7,0,0,1-1-.37c-.83-.34-2.08-.91-3.48-1.52l-10.09-4.24c-6.4-2.69-11.22-4.75-12.77-5.41l-2.86-8.31-9.19-26.68a10.5,10.5,0,0,0-3.48-4.9,14.82,14.82,0,0,0-8.92-2.8H157.66v-.88a4.51,4.51,0,0,1,4.61-4.6H291.54a6.07,6.07,0,0,1,1.42.17,3.55,3.55,0,0,1,2.26,1.34l10.58,30.58,2.18,6.35a4.6,4.6,0,0,0,2.55,2.74s7.3,3.09,14.63,6.23l10.09,4.24c.79.31,1.5.63,2.11.88s.93.39,1.3.56.78.34,1,.42l.45.24h-.05a4.49,4.49,0,0,1,2.28,4v34.6a3.25,3.25,0,0,1-.1.83,4.38,4.38,0,0,1-4,3.75,1.87,1.87,0,0,1-.54.05Zm32.51-4.48a13.67,13.67,0,0,1-11.76,8.2,13.6,13.6,0,0,0,2.84-8.35V265.82a13.19,13.19,0,0,1,5,2.59,13.69,13.69,0,0,1,5.07,10.74A14.14,14.14,0,0,1,360.49,284.76Zm24.26-14.85a3.25,3.25,0,0,1-.1.83,4.45,4.45,0,0,1-4.53,3.8h-9.73a23,23,0,0,0-4.19-9.21,13.83,13.83,0,0,0-1.13-1.4,23,23,0,0,0-13.5-7.52V250a13.74,13.74,0,0,0-5-10.68,15.33,15.33,0,0,0-2.55-1.67,4.84,4.84,0,0,1-.64-.36c-.24-.1-.59-.18-1-.37-.84-.35-2.09-.91-3.48-1.52l-10.1-4.24c-6.39-2.69-11.22-4.75-12.76-5.41l-2.87-8.31-9.19-26.68a10.45,10.45,0,0,0-3.48-4.9,14.82,14.82,0,0,0-8.92-2.8H200.08v-.88a4.51,4.51,0,0,1,4.6-4.61H334a6.19,6.19,0,0,1,1.42.18,3.5,3.5,0,0,1,2.25,1.34l10.59,30.58L350.4,216a4.59,4.59,0,0,0,2.54,2.74s7.31,3.09,14.63,6.23c3.65,1.54,7.3,3.06,10.1,4.23.78.32,1.49.64,2.1.89s.94.39,1.3.56.79.34,1,.42l.44.24h0a4.49,4.49,0,0,1,2.28,4Z"/></svg>