<svg id="Layer_1" data-name="Layer 1" xmlns="http://www.w3.org/2000/svg" viewBox="0 0 500 500"><defs><style>.cls-1,.cls-2{fill:#2d98d4;}.cls-1{opacity:0.19;}</style></defs><circle class="cls-1" cx="250" cy="250" r="167.19"/><path class="cls-2" d="M250,50C139.54,50,50,139.54,50,250s89.54,200,200,200,200-89.53,200-200S360.47,50,250,50Zm0,385.49C147.55,435.49,64.51,352.44,64.51,250A185.48,185.48,0,0,1,250,64.51c102.44,0,185.49,83,185.49,185.49S352.44,435.49,250,435.49Z"/><path class="cls-2" d="M271.53,234.54h-4.89V247.2a4.72,4.72,0,0,0,1.46,1l4.26,1.8V237Zm0,0h-4.89V247.2a4.72,4.72,0,0,0,1.46,1l4.26,1.8V237ZM304.1,254a14.06,14.06,0,0,0-2.54-1.66c-.8-.43-.4-.26-.63-.37s-.6-.17-1-.37c-.83-.34-2.09-.92-3.46-1.52l-8.2-3.42a5.43,5.43,0,0,0,.8.91,8.29,8.29,0,0,0,2.26,1.54,24.45,24.45,0,0,0,2.49,1.09,16.46,16.46,0,0,1,4,1.91,2.71,2.71,0,0,1,1.2,2.23,3.54,3.54,0,0,1-.2,1.17,1.93,1.93,0,0,1-.65.89,4,4,0,0,1-1.26.57,6.79,6.79,0,0,1-2,.23,13.17,13.17,0,0,1-4.11-.54,12.77,12.77,0,0,1-2.8-1.2l-.32,1c1.89.77,3.66,1.51,5.17,2.14.77.31,1.49.66,2.09.88s.94.4,1.31.58a9.73,9.73,0,0,0,1,.4c.12.08.29.17.4.25A4.57,4.57,0,0,1,299,262a8.23,8.23,0,0,0,3.37-1.63,7.27,7.27,0,0,0,2.52-5.6A9.74,9.74,0,0,0,304.1,254Zm0,0a14.06,14.06,0,0,0-2.54-1.66c-.8-.43-.4-.26-.63-.37s-.6-.17-1-.37c-.83-.34-2.09-.92-3.46-1.52l-8.2-3.42a5.43,5.43,0,0,0,.8.91,8.29,8.29,0,0,0,2.26,1.54,24.45,24.45,0,0,0,2.49,1.09,16.46,16.46,0,0,1,4,1.91,2.71,2.71,0,0,1,1.2,2.23,3.54,3.54,0,0,1-.2,1.17,1.93,1.93,0,0,1-.65.89,4,4,0,0,1-1.26.57,6.79,6.79,0,0,1-2,.23,13.17,13.17,0,0,1-4.11-.54,12.77,12.77,0,0,1-2.8-1.2l-.32,1c1.89.77,3.66,1.51,5.17,2.14.77.31,1.49.66,2.09.88s.94.4,1.31.58a9.73,9.73,0,0,0,1,.4c.12.08.29.17.4.25A4.57,4.57,0,0,1,299,262a8.23,8.23,0,0,0,3.37-1.63,7.27,7.27,0,0,0,2.52-5.6A9.74,9.74,0,0,0,304.1,254Zm-37.46-19.49V247.2a4.72,4.72,0,0,0,1.46,1l4.26,1.8V237l-.83-2.43Zm122.29-9.91a16.53,16.53,0,0,0-2.54-1.66c-.83-.43-.4-.26-.66-.37s-.57-.17-1-.37c-.83-.34-2.09-.92-3.49-1.52-2.77-1.17-6.4-2.71-10.08-4.25-6.4-2.69-11.23-4.75-12.77-5.4l-2.86-8.32-9.2-26.68a10.25,10.25,0,0,0-3.46-4.89,14.73,14.73,0,0,0-8.91-2.8H204.67a14,14,0,0,0-13.86,13.83v.89H162.27a13.9,13.9,0,0,0-13.86,13.8v.88H119.84a13.92,13.92,0,0,0-9.51,3.83,13.76,13.76,0,0,0-4.32,10v87.71a11.8,11.8,0,0,0,.06,1.46h0a13.89,13.89,0,0,0,13.74,12.4h9.75c.11.49.22,1,.37,1.49a23,23,0,0,0,44.8-1.49h65.63c.11.49.22,1,.37,1.49a23,23,0,0,0,44.8-1.49h7.25A23,23,0,0,0,328,298.49h7.25a23.05,23.05,0,0,0,35.18-14.72h9.71A14,14,0,0,0,394,269.91v-34.6A13.76,13.76,0,0,0,388.93,224.63Zm-224,89.46a13.82,13.82,0,0,1-12.74,8.34,13.48,13.48,0,0,1-2.12-.17,13.79,13.79,0,0,1-11.63-12.2,15,15,0,0,1-.08-1.52,13.77,13.77,0,0,1,13.83-13.83h.68a14.19,14.19,0,0,1,8.12,3.12,3.21,3.21,0,0,1,.65.63A13.51,13.51,0,0,1,166,308.54,13.73,13.73,0,0,1,164.9,314.09Zm110.74.08A13.73,13.73,0,0,1,263,322.43a13.57,13.57,0,0,1-2.15-.17,13.76,13.76,0,0,1-11.63-12.2,9.49,9.49,0,0,1-.08-1.52,13.84,13.84,0,0,1,22.6-10.71,4.88,4.88,0,0,1,.74.66,13.63,13.63,0,0,1,4.34,10.05A13.93,13.93,0,0,1,275.64,314.17Zm42.43-14.71a13.7,13.7,0,0,1-11.77,8.2,13.54,13.54,0,0,0,2.86-8.35v-18.8a13.12,13.12,0,0,1,4.37,2.15,4.1,4.1,0,0,1,.63.45c.23.2.48.43.71.66a13.63,13.63,0,0,1,4.34,10.09A14.08,14.08,0,0,1,318.07,299.46Zm42.4-14.72A13.62,13.62,0,0,1,348.73,293a13.82,13.82,0,0,0,2.83-8.37V265.83a13.45,13.45,0,0,1,5,2.57,13.72,13.72,0,0,1,5.08,10.74A14.06,14.06,0,0,1,360.47,284.74Zm24.26-14.83a3.64,3.64,0,0,1-.09.83,4.44,4.44,0,0,1-4.54,3.8h-9.71a23.67,23.67,0,0,0-4.2-9.23c-.35-.48-.75-.94-1.12-1.37a23.12,23.12,0,0,0-13.51-7.54V250a13.72,13.72,0,0,0-5.06-10.66,14.15,14.15,0,0,0-2.54-1.68c-.8-.4-.37-.23-.63-.37s-.6-.18-1-.35c-.83-.37-2.09-.91-3.49-1.54-1.08-.46-2.31-1-3.63-1.51l-6.45-2.72c-.37-.14-.75-.31-1.09-.46v10l7.54,3.2h0l2.12.89c.48.2.91.37,1.28.54s.8.34,1,.43.32.17.46.26H340a4.45,4.45,0,0,1,2.29,3.94v34.6a2.45,2.45,0,0,1-.12.83,4.34,4.34,0,0,1-4,3.77,3.08,3.08,0,0,1-.54,0H328a23,23,0,0,0-2.46-6.57,23.24,23.24,0,0,0-1.71-2.63c-.35-.49-.75-.94-1.15-1.4a23.19,23.19,0,0,0-4.11-3.69H299.9v24.37a2.49,2.49,0,0,1-.09.83,4.38,4.38,0,0,1-4,3.75,1.87,1.87,0,0,1-.54.05h-9.71a23.53,23.53,0,0,0-4.2-9.23c-.35-.48-.75-.94-1.12-1.37a25.09,25.09,0,0,0-4.74-4.11A22.65,22.65,0,0,0,263,285.49a16.72,16.72,0,0,0-2.75.2c-.4.05-.8.08-1.2.17a21.89,21.89,0,0,0-8.6,3.37,23.1,23.1,0,0,0-5.2,4.66s0,0,0,.05a23,23,0,0,0-2.94,4.55,19.09,19.09,0,0,0-1.34,3.4,14.66,14.66,0,0,0-.54,2.05H174.76a23.53,23.53,0,0,0-4.2-9.23,14.85,14.85,0,0,0-1.12-1.37,25.09,25.09,0,0,0-4.74-4.11,22.91,22.91,0,0,0-12.54-3.74,16.72,16.72,0,0,0-2.75.2c-.31.05-.62.08-.94.11a23,23,0,0,0-14,8.09s0,0,0,.05a23,23,0,0,0-4.82,10h-9.75a4.5,4.5,0,0,1-4.6-4.63V211.6a4.49,4.49,0,0,1,4.6-4.6H249.13a5.42,5.42,0,0,1,1.4.17,3.52,3.52,0,0,1,2.26,1.34l.54,1.58L256,217.8h9.75l-2.63-7.71-1.6-4.63a10.51,10.51,0,0,0-3.49-4.89,14.73,14.73,0,0,0-8.91-2.8H157.64v-.88a4.51,4.51,0,0,1,4.63-4.6H291.53a7,7,0,0,1,1.43.17,3.6,3.6,0,0,1,2.25,1.34l5.63,16.29,2.66,7.71h9.74l-.11-.34-2.54-7.37-6.66-19.32a10.62,10.62,0,0,0-3.49-4.91,14.83,14.83,0,0,0-8.91-2.77H200.07v-.89a4.51,4.51,0,0,1,4.6-4.63H334a7.15,7.15,0,0,1,1.4.17,3.57,3.57,0,0,1,2.25,1.37l10.6,30.58,2.18,6.34a4.5,4.5,0,0,0,2.54,2.74s7.31,3.09,14.63,6.23l10.08,4.23c.8.31,1.52.66,2.12.88s.94.4,1.31.58a9.73,9.73,0,0,0,1,.4c.12.08.29.17.4.25a4.44,4.44,0,0,1,2.26,4Zm-83.17-17.54c-.8-.43-.4-.26-.63-.37s-.6-.17-1-.37c-.83-.34-2.09-.92-3.46-1.52l-8.2-3.42a5.43,5.43,0,0,0,.8.91,8.29,8.29,0,0,0,2.26,1.54,24.45,24.45,0,0,0,2.49,1.09,16.46,16.46,0,0,1,4,1.91,2.71,2.71,0,0,1,1.2,2.23,3.54,3.54,0,0,1-.2,1.17,1.93,1.93,0,0,1-.65.89,4,4,0,0,1-1.26.57,6.79,6.79,0,0,1-2,.23,13.17,13.17,0,0,1-4.11-.54,12.77,12.77,0,0,1-2.8-1.2l-.32,1c1.89.77,3.66,1.51,5.17,2.14.77.31,1.49.66,2.09.88s.94.4,1.31.58a9.73,9.73,0,0,0,1,.4c.12.08.29.17.4.25A4.57,4.57,0,0,1,299,262a8.23,8.23,0,0,0,3.37-1.63,7.27,7.27,0,0,0,2.52-5.6,9.74,9.74,0,0,0-.83-.74A14.06,14.06,0,0,0,301.56,252.37Zm-34.92-17.83V247.2a4.72,4.72,0,0,0,1.46,1l4.26,1.8V237l-.83-2.43Zm4.89,0h-4.89V247.2a4.72,4.72,0,0,0,1.46,1l4.26,1.8V237Zm0,0h-4.89V247.2a4.72,4.72,0,0,0,1.46,1l4.26,1.8V237Z"/><path class="cls-2" d="M124.27,210.09v72.57H335.21V210.09Zm203.4,64.85H131.81V217.8H327.67Z"/><path class="cls-2" d="M182.79,255c-.15-2.46-.29-4.92-.43-7.34s-.35-4.78-.57-7-.43-4.29-.66-6.12H175.9c-.46.89-.94,2-1.54,3.23s-1.17,2.66-1.8,4.14-1.23,3-1.86,4.58-1.2,3-1.71,4.37c-.55-1.37-1.15-2.83-1.75-4.37s-1.23-3.09-1.85-4.58-1.23-2.85-1.8-4.14-1.09-2.34-1.55-3.23h-5.48c-.23,1.83-.46,3.86-.66,6.12s-.4,4.6-.57,7-.29,4.88-.43,7.34-.26,4.74-.34,6.91h5.57c.08-2.65.17-5.57.28-8.71s.32-6.29.58-9.49c.42,1.12.91,2.35,1.45,3.69s1.09,2.68,1.6,4,1.06,2.63,1.55,3.85.91,2.26,1.25,3.15h4c.35-.89.77-1.92,1.26-3.15l1.54-3.85c.52-1.35,1.06-2.69,1.6-4s1-2.57,1.46-3.69c.26,3.2.43,6.37.57,9.49s.2,6.06.29,8.71h5.57C183,259.77,182.93,257.46,182.79,255Z"/><path class="cls-2" d="M211.5,242a13.4,13.4,0,0,0-2.71-4.49,11.12,11.12,0,0,0-4-2.71,13.6,13.6,0,0,0-4.95-.92,13.15,13.15,0,0,0-4.82.92,11,11,0,0,0-4,2.71,13.43,13.43,0,0,0-2.8,4.49,17.13,17.13,0,0,0-1,6.2,17.65,17.65,0,0,0,1,6.17,13,13,0,0,0,2.71,4.46,11.41,11.41,0,0,0,4.06,2.71,13.39,13.39,0,0,0,4.91.92,13.91,13.91,0,0,0,5-.92,11,11,0,0,0,4-2.71,13.2,13.2,0,0,0,2.66-4.46,19.91,19.91,0,0,0,0-12.37Zm-5.37,9.83a8.22,8.22,0,0,1-1.34,2.77,5.61,5.61,0,0,1-2.12,1.8,6.27,6.27,0,0,1-2.86.66,6.08,6.08,0,0,1-2.85-.66,5.54,5.54,0,0,1-2.12-1.8,8,8,0,0,1-1.31-2.77,14.55,14.55,0,0,1,0-7.26,8.06,8.06,0,0,1,1.31-2.8A6.2,6.2,0,0,1,197,240a6.08,6.08,0,0,1,2.85-.66,6.27,6.27,0,0,1,2.86.66,5.81,5.81,0,0,1,2.12,1.77,8.53,8.53,0,0,1,1.34,2.83,14.71,14.71,0,0,1,.46,3.66A14.46,14.46,0,0,1,206.13,251.86Z"/><path class="cls-2" d="M238.56,241.86a10.84,10.84,0,0,0-2.95-4.35A11.59,11.59,0,0,0,231,235a20.42,20.42,0,0,0-5.94-.8c-1,0-2.26.06-3.69.14a28.89,28.89,0,0,0-4.14.54v26.66a26.11,26.11,0,0,0,4.06.57c1.37.09,2.57.15,3.6.15a20.06,20.06,0,0,0,6.08-.86,12.45,12.45,0,0,0,4.63-2.63,11.32,11.32,0,0,0,2.92-4.37,17.21,17.21,0,0,0,1-6.2A17.72,17.72,0,0,0,238.56,241.86Zm-7,12.8c-1.38,1.57-3.52,2.34-6.38,2.34-.48,0-.91,0-1.25,0a8.14,8.14,0,0,1-1-.06V239.6a7.34,7.34,0,0,1,1.18-.09c.42,0,.82,0,1.2,0,2.88,0,5,.74,6.28,2.2s2,3.65,2,6.54A9.23,9.23,0,0,1,231.59,254.66Z"/><path class="cls-2" d="M250.1,256.74v-6.6h10.17v-5H250.1v-5.38h11.46v-5.17h-17.2v27.4h18.05v-5.2Z"/><path class="cls-2" d="M272.36,256.63V234.54h-5.72v27.4h17v-5.31Z"/><path class="cls-2" d="M304.44,251.06a6.39,6.39,0,0,0-1.45-2.4,9.31,9.31,0,0,0-2.43-1.8c-1-.52-2.15-1-3.46-1.57-.66-.23-1.23-.46-1.74-.69a7.31,7.31,0,0,1-1.4-.74,3.72,3.72,0,0,1-.95-1,2.22,2.22,0,0,1-.34-1.25,2.19,2.19,0,0,1,.92-1.89,5.45,5.45,0,0,1,2.94-.6,9.09,9.09,0,0,1,3.14.46,14.44,14.44,0,0,1,2.37,1l1.66-4.86a16,16,0,0,0-3.09-1.29,14.36,14.36,0,0,0-4.42-.6,12.57,12.57,0,0,0-3.92.58,9,9,0,0,0-2.94,1.62,7.43,7.43,0,0,0-1.86,2.6,8.24,8.24,0,0,0-.66,3.43,7.58,7.58,0,0,0,.6,3.2,7.28,7.28,0,0,0,.83,1.35,5.43,5.43,0,0,0,.8.91,8.29,8.29,0,0,0,2.26,1.54,24.45,24.45,0,0,0,2.49,1.09,16.46,16.46,0,0,1,4,1.91,2.71,2.71,0,0,1,1.2,2.23,3.54,3.54,0,0,1-.2,1.17,1.93,1.93,0,0,1-.65.89,4,4,0,0,1-1.26.57,6.79,6.79,0,0,1-2,.23,13.17,13.17,0,0,1-4.11-.54,12.77,12.77,0,0,1-2.8-1.2l-.32,1-1.31,3.91a13.4,13.4,0,0,0,1.28.66,12.74,12.74,0,0,0,1.8.68,21,21,0,0,0,2.4.52,20.09,20.09,0,0,0,3.06.23A15.22,15.22,0,0,0,299,262a8.23,8.23,0,0,0,3.37-1.63,7.27,7.27,0,0,0,2.52-5.6v-.34A10.43,10.43,0,0,0,304.44,251.06Z"/></svg>