<svg id="Layer_1" data-name="Layer 1" xmlns="http://www.w3.org/2000/svg" viewBox="0 0 500 500"><defs><style>.cls-1,.cls-2{fill:#2d98d4;}.cls-1{opacity:0.19;}</style></defs><circle class="cls-1" cx="250" cy="250" r="167.19"/><path class="cls-2" d="M250,50C139.54,50,50,139.54,50,250s89.54,200,200,200,200-89.53,200-200S360.47,50,250,50Zm0,385.49C147.55,435.49,64.51,352.44,64.51,250A185.48,185.48,0,0,1,250,64.51c102.44,0,185.49,83,185.49,185.49S352.44,435.49,250,435.49Z"/><path class="cls-2" d="M379.16,327.47a3.46,3.46,0,0,0,0-.45V307.86a7.55,7.55,0,0,0-2.17-5.35,4.68,4.68,0,0,0-.61-.57A9,9,0,0,0,375,301a1.25,1.25,0,0,1-.37-.21,4.47,4.47,0,0,1-.55-.2c-.46-.19-1.15-.49-1.93-.84l-5.59-2.34c-3.54-1.49-6.22-2.65-7.07-3l-1.58-4.59-5.1-14.78a5.76,5.76,0,0,0-1.92-2.73,8.35,8.35,0,0,0-4.95-1.55H329.1v-30.1h11.95c.06.28.12.57.2.82a12.76,12.76,0,0,0,24.82-.82s8.39,0,8.39,0c2.23-.59,5.13-1.8,4.68-7.68V213.83a7.59,7.59,0,0,0-2.8-5.92,7.44,7.44,0,0,0-1.41-.92,2.32,2.32,0,0,1-.36-.21,3.54,3.54,0,0,1-.55-.2c-.46-.19-1.16-.51-1.92-.84l-5.6-2.34-7.08-3-1.58-4.61L352.76,181a5.92,5.92,0,0,0-1.93-2.73,8.18,8.18,0,0,0-4.94-1.55H329.1V125.07H179.44v39.46h-9.31v31.73H120.81v24.52a8,8,0,0,0,0,.82h0a7.72,7.72,0,0,0,7.62,6.87h5.39c.07.27.13.55.21.8a12.76,12.76,0,0,0,24.82-.8h20.53v42.3H136.18a7.74,7.74,0,0,0-5.27,2.12,7.65,7.65,0,0,0-2.36,4.74,7.16,7.16,0,0,0-.05.8V327a1.53,1.53,0,0,0,0,.43v.11a2.81,2.81,0,0,0,0,.29h0a7.69,7.69,0,0,0,7.34,6.85,1.23,1.23,0,0,0,.27,0h5.4c.06.26.12.55.2.8a12.64,12.64,0,0,0,5.08,7.14c.22.16.45.3.68.44a11.38,11.38,0,0,0,2.2,1,12.19,12.19,0,0,0,3.25.73c.38,0,.76,0,1.14,0s.73,0,1.09,0a11.94,11.94,0,0,0,3.24-.73c.35-.13.68-.27,1-.41a9.59,9.59,0,0,0,1.86-1.08c.34-.24.65-.47,1-.74s.52-.46.78-.72a12.37,12.37,0,0,0,3.35-5.68c.08-.25.14-.54.21-.8h12.79v40.21H329.1V334.72h12c.07.26.13.55.21.8a1.71,1.71,0,0,0,.09.27,12.26,12.26,0,0,0,3.42,5.59l.71.63c.27.22.56.44.86.65s.6.4.9.57a9.94,9.94,0,0,0,.92.47,9.25,9.25,0,0,0,1.22.51,12.25,12.25,0,0,0,3,.65,9.94,9.94,0,0,0,1.23.06,9.49,9.49,0,0,0,1.19-.06,11.33,11.33,0,0,0,2.12-.38,10.08,10.08,0,0,0,2.09-.78,9.94,9.94,0,0,0,.92-.47l.81-.49a1.5,1.5,0,0,0,.25-.19c.24-.17.47-.35.71-.54a10.4,10.4,0,0,0,1.54-1.5l.66-.84a11.84,11.84,0,0,0,1.92-3.88,1.71,1.71,0,0,0,.09-.27c.08-.25.14-.54.21-.8h5.39a2,2,0,0,0,.35,0c1.35,0,2.44,0,2.6,0h0c2.16-.59,5-1.75,4.69-7.14Zm-18.58-86.25a7.62,7.62,0,0,1-7,4.58,6.51,6.51,0,0,1-1.19-.1,7.59,7.59,0,0,1-6.44-6.74,4.85,4.85,0,0,1-.05-.85,7.62,7.62,0,0,1,7.68-7.66,7.5,7.5,0,0,1,4.84,1.72,4.4,4.4,0,0,1,.41.36,7.63,7.63,0,0,1,2.41,5.58A7.79,7.79,0,0,1,360.58,241.22Zm-14.69-59.36a3.15,3.15,0,0,1,.78.09,2,2,0,0,1,1.25.74l5.87,16.94,1.2,3.51a2.5,2.5,0,0,0,1.41,1.52s4.05,1.71,8.1,3.45l5.59,2.35,1.17.49.73.31.55.24a1,1,0,0,1,.22.13,2.48,2.48,0,0,1,1.26,2.2V233a2.24,2.24,0,0,1,0,.46,2.43,2.43,0,0,1-2.22,2.08,1,1,0,0,1-.3,0h-5.38a12.78,12.78,0,0,0-2.33-5.1c-.19-.27-.41-.54-.61-.77a13.85,13.85,0,0,0-2.63-2.27,12.44,12.44,0,0,0-6.93-2.09,9.46,9.46,0,0,0-1.52.11l-.67.1a11.87,11.87,0,0,0-4.76,1.88,12.2,12.2,0,0,0-2.88,2.58l0,0a12.72,12.72,0,0,0-1.63,2.51,11.76,11.76,0,0,0-.74,1.89,7.92,7.92,0,0,0-.3,1.14H304.69a12.76,12.76,0,0,0-2.32-5.1c-.19-.27-.42-.54-.62-.77a13.55,13.55,0,0,0-2.63-2.27,12.17,12.17,0,0,0-3.75-1.67,12.54,12.54,0,0,0-3.2-.42,9.63,9.63,0,0,0-1.52.11c-.17,0-.35.05-.52.08a12.56,12.56,0,0,0-7.77,4.48l0,0a12.78,12.78,0,0,0-2.67,5.54h-5.4a2.49,2.49,0,0,1-2.55-2.57V184.4a2.49,2.49,0,0,1,2.55-2.54h71.62Zm-46,56.25a7.66,7.66,0,0,1-7.69,7.69,6.37,6.37,0,0,1-1.17-.1,7.6,7.6,0,0,1-6.44-6.74,8.08,8.08,0,0,1-.05-.85,7.63,7.63,0,0,1,7.66-7.66h.38a7.58,7.58,0,0,1,4.5,1.73,2.64,2.64,0,0,1,.36.33A7.51,7.51,0,0,1,299.86,238.11ZM153.45,229a7.65,7.65,0,0,1-7.06,4.62,6.59,6.59,0,0,1-1.19-.1,7.59,7.59,0,0,1-6.42-6.74,4.63,4.63,0,0,1-.05-.84,7.62,7.62,0,0,1,7.66-7.67h.38a7.64,7.64,0,0,1,4.49,1.73,2.75,2.75,0,0,1,.37.33,7.77,7.77,0,0,1,1.82,8.66Zm5.46-5.62a13,13,0,0,0-2.33-5.1,8,8,0,0,0-.62-.77,13.49,13.49,0,0,0-2.62-2.27,13.19,13.19,0,0,0-3.75-1.67,12.64,12.64,0,0,0-3.2-.4,9.47,9.47,0,0,0-1.52.1l-.52.07a12.61,12.61,0,0,0-7.77,4.48s0,0,0,0a12.8,12.8,0,0,0-2.68,5.54h-5.39a2.48,2.48,0,0,1-2.55-2.56V201h48.94V169.64h25.21a3.18,3.18,0,0,1,.79.09,1.94,1.94,0,0,1,1.25.75L208,187.41l1.21,3.52a2.48,2.48,0,0,0,1.41,1.51l8.1,3.45,5.59,2.36,1.17.49.72.3.56.24.24.13h0a2.5,2.5,0,0,1,1.27,2.2v19.17a2.06,2.06,0,0,1,0,.45,2.44,2.44,0,0,1-2.21,2.09,1.46,1.46,0,0,1-.3,0h-5.38a13,13,0,0,0-2.33-5.1,8,8,0,0,0-.62-.77,13.26,13.26,0,0,0-2.63-2.27,12.53,12.53,0,0,0-6.93-2.07,9.63,9.63,0,0,0-1.52.1l-.66.09a12.74,12.74,0,0,0-7.65,4.46s0,0,0,0a12.09,12.09,0,0,0-1.63,2.52,9.83,9.83,0,0,0-.75,1.88,9.49,9.49,0,0,0-.3,1.14H158.91Zm56.52,2.56a7.83,7.83,0,0,1-.64,3.11,7.59,7.59,0,0,1-7,4.57,6.7,6.7,0,0,1-1.2-.1,7.61,7.61,0,0,1-6.43-6.74,5.73,5.73,0,0,1-.06-.84,7.69,7.69,0,0,1,12.54-6,4.42,4.42,0,0,1,.41.37A7.58,7.58,0,0,1,215.43,225.9Zm-47.6,50h27.94v17.85H167.83Zm-34.2,2.54a2.48,2.48,0,0,1,2.55-2.54h26.91v17.85H133.63Zm28,55.26a.45.45,0,0,1,0,.11,6.92,6.92,0,0,1-.42,1.36s0,.09-.07.13a8.06,8.06,0,0,1-.88,1.51c-.05.05-.08.11-.13.16a3.82,3.82,0,0,1-.48.51c-.11.11-.2.24-.31.35s-.4.33-.6.49a2.11,2.11,0,0,1-.49.33,5.72,5.72,0,0,1-.8.44l-.52.23a4.28,4.28,0,0,1-.46.17,8.13,8.13,0,0,1-1.11.25,5.94,5.94,0,0,1-1.13.1H154a7.45,7.45,0,0,1-1.06-.08c-.39-.07-.76-.16-1.12-.26a6.92,6.92,0,0,1-.86-.33l-.5-.25-.15-.08,0,0a7.7,7.7,0,0,1-1.43-12.24c.15-.14.27-.25.41-.36a7.41,7.41,0,0,1,1.62-1,2.22,2.22,0,0,1,.6-.24,2.07,2.07,0,0,1,.55-.17,8.41,8.41,0,0,1,.87-.19,3.19,3.19,0,0,1,.53-.06c.22,0,.44,0,.68,0a1.83,1.83,0,0,1,.33,0,4.23,4.23,0,0,1,.63.05c.21,0,.41.06.62.11a7.61,7.61,0,0,1,3.24,1.57,2.75,2.75,0,0,1,.37.33,7.54,7.54,0,0,1,2.44,5.59A8,8,0,0,1,161.61,333.69Zm5-4.1c-.1-.4-.19-.78-.3-1.14a11.8,11.8,0,0,0-.75-1.89,12.28,12.28,0,0,0-1.63-2.51v0c-.1-.11-.21-.2-.29-.3h0l0,0c-.19-.22-.38-.42-.58-.61a11.26,11.26,0,0,0-2-1.62,12.23,12.23,0,0,0-2.81-1.38c-.33-.11-.66-.22-1-.3s-.64-.15-1-.2a.12.12,0,0,1-.08,0,3.85,3.85,0,0,1-.58-.08,9.63,9.63,0,0,0-1.52-.11c-.29,0-.56,0-.83,0l-.74.08c-.17,0-.35,0-.54.08s-.66.13-1,.21a3.34,3.34,0,0,0-.52.14.42.42,0,0,0-.13,0c-.27.08-.54.18-.8.27h0A14,14,0,0,0,148,321a8,8,0,0,0-1.48,1,9.48,9.48,0,0,0-1.91,1.78,2.16,2.16,0,0,0-.3.31l0,0a12.67,12.67,0,0,0-2.67,5.54h-5.34a1.46,1.46,0,0,1-.3,0h-.06a1.61,1.61,0,0,1-.37-.07l-.33-.11a2.43,2.43,0,0,1-1.55-2.36V298.49H236V327a2.44,2.44,0,0,1-1.88,2.47.9.9,0,0,1-.37.07,1,1,0,0,1-.3,0H228a12.67,12.67,0,0,0-2.67-5.54l0,0a11.52,11.52,0,0,0-2.21-2.09,8.25,8.25,0,0,0-1.47-1,11.51,11.51,0,0,0-1.62-.78h0l-.81-.27a.61.61,0,0,0-.13,0,2.85,2.85,0,0,0-.5-.14c-.34-.08-.67-.16-1-.21-.17,0-.35,0-.52-.08l-.76-.08-.76,0a10.1,10.1,0,0,0-1.57.11l-.33,0a9.62,9.62,0,0,0-1.3.25,10.34,10.34,0,0,0-1,.3,12,12,0,0,0-2.8,1.38,11,11,0,0,0-2,1.63c-.21.21-.41.41-.6.64s-.21.2-.3.31l0,0a12.72,12.72,0,0,0-1.63,2.51,10.15,10.15,0,0,0-.74,1.89,7.93,7.93,0,0,0-.31,1.14h-36.3Zm62.74-35.93,0,.08h-28.9V275.89h20.95a3.12,3.12,0,0,1,.79.09,1.84,1.84,0,0,1,1.25.74Zm-.76-17.77h4.79a2.48,2.48,0,0,1,2.55,2.54v15.31h-1.19l-1.34-3.91Zm-5.51,56.25a7.78,7.78,0,0,1-.63,3.11,7.36,7.36,0,0,1-1.75,2.49,4.15,4.15,0,0,1-.79.65.31.31,0,0,1-.12.09l-.13.08a.11.11,0,0,1-.11.06,4,4,0,0,1-.81.46l-.52.23a4.28,4.28,0,0,1-.46.17,8.13,8.13,0,0,1-1.11.25,5.91,5.91,0,0,1-1.12.1h-.14l-.57,0a8.55,8.55,0,0,1-1.63-.31l-.53-.18A6.14,6.14,0,0,1,212,339a5.06,5.06,0,0,1-.62-.37,1.66,1.66,0,0,1-.38-.25l-.21-.14a8.28,8.28,0,0,1-.82-.75,7.79,7.79,0,0,1-1.52-2.27,8.51,8.51,0,0,1-.44-1.38s0-.06,0-.08,0-.08,0-.11a7.33,7.33,0,0,1-.16-1.5,7.51,7.51,0,0,1,2.45-5.59,1.91,1.91,0,0,1,.37-.33l.61-.48a7.89,7.89,0,0,1,2.17-1,9.38,9.38,0,0,1,1.08-.22l.63-.05a2.24,2.24,0,0,1,.38,0c.21,0,.43,0,.63,0a5,5,0,0,1,.56.06,4.08,4.08,0,0,1,.84.19,4.22,4.22,0,0,1,.76.25l.71.32a8.67,8.67,0,0,1,1.3.87c.12.11.27.22.41.36A7.61,7.61,0,0,1,223.12,332.14Zm101.23,38H184.18V334.72H203c.07.26.13.55.21.8a12.67,12.67,0,0,0,5.08,7.14,10.06,10.06,0,0,0,1.88,1.08l1,.41.78.25a12.8,12.8,0,0,0,2.48.48c.37,0,.76,0,1.14,0s.73,0,1.09,0a12.19,12.19,0,0,0,3.25-.73l1-.41a10.06,10.06,0,0,0,1.88-1.08c.28-.21.58-.43.85-.65a13.44,13.44,0,0,0,1-1,11,11,0,0,0,1.17-1.38c.15-.19.27-.38.4-.57.25-.4.47-.81.68-1.22a11.65,11.65,0,0,0,.95-2.36c.08-.25.14-.54.2-.8h5.4a1.18,1.18,0,0,0,.27,0h2.68c2.15-.57,4.92-1.71,4.7-7.08,0-.2,0-.41,0-.6V278.43a5.37,5.37,0,0,0-.05-.8,7.62,7.62,0,0,0-2.34-4.74,7.76,7.76,0,0,0-5.27-2.12H184.18v-42.3h11.08c.07.27.13.55.21.8a12.76,12.76,0,0,0,24.82-.8s7.94,0,8.37,0h0c2.24-.6,5.13-1.82,4.67-7.69V201.61a7.62,7.62,0,0,0-2.78-5.92,9,9,0,0,0-1.41-.92,2.39,2.39,0,0,1-.37-.2c-.12,0-.31-.1-.55-.21-.46-.19-1.15-.49-1.93-.84l-5.59-2.34c-3.54-1.49-6.22-2.65-7.07-3l-1.58-4.59L207,168.8a5.68,5.68,0,0,0-1.92-2.72,8.28,8.28,0,0,0-4.95-1.55H184.18V129.82H324.35v46.92H274.27a7.74,7.74,0,0,0-5.27,2.12,7.66,7.66,0,0,0-2.39,5.54V233a7.86,7.86,0,0,0,0,.83h0a7.69,7.69,0,0,0,7.61,6.85h5.4c.06.28.13.57.2.82a12.76,12.76,0,0,0,24.82-.82h19.66v30.1H299.91a8.35,8.35,0,0,0-5,1.55,5.76,5.76,0,0,0-1.92,2.73L288,289.83l-1.59,4.59c-.85.36-3.53,1.52-7.07,3l-5.59,2.34c-.77.35-1.47.65-1.93.84a4.47,4.47,0,0,1-.55.2,1.25,1.25,0,0,1-.37.21,9,9,0,0,0-1.41.92,4.68,4.68,0,0,0-.61.57,7.59,7.59,0,0,0-2.17,5.35V327a3.46,3.46,0,0,0,0,.45v.11c-.27,5.39,2.54,6.55,4.69,7.14h0c.16,0,1.25,0,2.6,0a2.06,2.06,0,0,0,.35,0h5.39c.07.26.13.55.21.8a1.08,1.08,0,0,0,.1.27c.09.35.22.7.34,1s.29.68.45,1a11,11,0,0,0,1.79,2.69,9.44,9.44,0,0,0,1.53,1.5l.71.54.26.19c.27.17.52.33.8.49a6.47,6.47,0,0,0,.78.41,12.47,12.47,0,0,0,2.23.84,11.22,11.22,0,0,0,2.11.38,10.13,10.13,0,0,0,1.23.06,9.46,9.46,0,0,0,1.2-.06,11.22,11.22,0,0,0,2.11-.38,10.54,10.54,0,0,0,1-.33c.34-.13.67-.25,1-.4,0,0,.07,0,.08-.05a9.94,9.94,0,0,0,.92-.47q.45-.25.9-.57c.3-.21.59-.43.86-.65a18.51,18.51,0,0,0,1.36-1.3,18.15,18.15,0,0,0,1.15-1.47h0a11.09,11.09,0,0,0,.94-1.63v0a12,12,0,0,0,.68-1.79,1.07,1.07,0,0,0,.09-.27c.08-.25.15-.54.21-.8h19.61Zm-39.77-38a7.58,7.58,0,0,1,2.39-5.59,3.41,3.41,0,0,1,.41-.36c.22-.17.44-.35.68-.51l.14-.09a6.2,6.2,0,0,1,.81-.43,3.13,3.13,0,0,1,.6-.24,1.64,1.64,0,0,1,.49-.15,2.75,2.75,0,0,1,.41-.11,3,3,0,0,1,.54-.1,3.86,3.86,0,0,1,.49-.06c.22,0,.44,0,.68,0a2.06,2.06,0,0,1,.35,0,4.44,4.44,0,0,1,.62.05h.06a3.78,3.78,0,0,1,.57.1,7.61,7.61,0,0,1,3.24,1.57,2.75,2.75,0,0,1,.37.33,7.78,7.78,0,0,1,2.29,7.12.29.29,0,0,1,0,.11c-.05.25-.11.49-.17.73a7.2,7.2,0,0,1-.57,1.33c-.11.19-.24.39-.37.58a8.08,8.08,0,0,1-.85,1.08,9.41,9.41,0,0,1-1.6,1.27c-.21.11-.41.22-.62.31l-.52.23a4.28,4.28,0,0,1-.46.17,8.13,8.13,0,0,1-1.11.25,6.29,6.29,0,0,1-1.17.1h-.09a6.26,6.26,0,0,1-1.16-.1,7.8,7.8,0,0,1-1.11-.25l-.46-.17c-.2-.07-.39-.16-.58-.24a2.67,2.67,0,0,1-.41-.22,8,8,0,0,1-1.73-1.33,7.72,7.72,0,0,1-2.13-5.37Zm76,3.1a7.73,7.73,0,0,1-1.5,2.27,7.19,7.19,0,0,1-1.73,1.33c-.12.08-.26.14-.41.22a5.89,5.89,0,0,1-.58.24,4.28,4.28,0,0,1-.46.17,8.48,8.48,0,0,1-1.11.25,6.15,6.15,0,0,1-1.15.1h-.1a6.45,6.45,0,0,1-1.17-.1,8.48,8.48,0,0,1-1.11-.25l-.46-.17a5.84,5.84,0,0,1-.76-.34,7.79,7.79,0,0,1-2-1.47,6.21,6.21,0,0,1-.85-1.08,8.22,8.22,0,0,1-.67-1.2,6,6,0,0,1-.26-.71c-.07-.24-.13-.48-.18-.73a1,1,0,0,0,0-.11,8.42,8.42,0,0,1-.14-1.52,7.57,7.57,0,0,1,2.43-5.6,2.75,2.75,0,0,1,.37-.33,7.66,7.66,0,0,1,3.24-1.57l.57-.1h.07l.61-.05a2.36,2.36,0,0,1,.38,0c.23,0,.43,0,.65,0a4.18,4.18,0,0,1,.51.06,2.88,2.88,0,0,1,.51.1l.47.12a2.49,2.49,0,0,1,.44.14,4.69,4.69,0,0,1,.6.24c.27.13.54.27.81.43a.67.67,0,0,1,.14.09c.24.16.46.34.69.51s.26.22.41.36a7.76,7.76,0,0,1,1.75,8.69ZM374,327a1.62,1.62,0,0,1,0,.46,2.48,2.48,0,0,1-.88,1.57l-.26.17a1.17,1.17,0,0,1-.27.15c-.12,0-.25.09-.38.12a.8.8,0,0,1-.34.07,1.27,1.27,0,0,1-.34,0h-5.39a12.69,12.69,0,0,0-2.68-5.54s0,0,0,0a2.34,2.34,0,0,0-.27-.28s0-.05-.05-.08c-.19-.21-.38-.4-.57-.59a12.89,12.89,0,0,0-1.31-1.14l-.72-.49a10.4,10.4,0,0,0-2.39-1.23,7.63,7.63,0,0,0-.72-.26,1.53,1.53,0,0,0-.29-.07,4.18,4.18,0,0,0-.58-.16,8.38,8.38,0,0,0-.87-.18c-.18,0-.35,0-.53-.08s-.39,0-.6-.06-.6,0-.92,0h0a8.16,8.16,0,0,0-1.31.08h-.21l-.33,0a9.47,9.47,0,0,0-1.31.25l-.07,0a12.6,12.6,0,0,0-3.72,1.66,10.67,10.67,0,0,0-2,1.63c-.21.21-.41.41-.6.64a2.74,2.74,0,0,0-.29.31s0,0,0,0a12.28,12.28,0,0,0-1.63,2.51,10.19,10.19,0,0,0-.75,1.89,9.49,9.49,0,0,0-.3,1.14H304.74a7.92,7.92,0,0,0-.3-1.14,10.19,10.19,0,0,0-.75-1.89,12.28,12.28,0,0,0-1.63-2.51s0,0,0,0a2.74,2.74,0,0,0-.29-.31c-.19-.23-.39-.43-.6-.64a10.35,10.35,0,0,0-2-1.63,12.6,12.6,0,0,0-3.72-1.66c-.35-.09-.7-.16-1.05-.22l-.33-.05-.33,0-.24,0a11,11,0,0,0-1.28-.06h0c-.32,0-.62,0-.92,0a11.24,11.24,0,0,0-2,.33,2.73,2.73,0,0,0-.51.13,1.69,1.69,0,0,0-.42.13c-.22.06-.43.14-.65.22a10.4,10.4,0,0,0-2.39,1.23l-.71.49a13,13,0,0,0-1.32,1.14c-.19.19-.38.38-.57.59a.09.09,0,0,1,0,.05s0,0,0,0a1.66,1.66,0,0,0-.26.28s0,0,0,0a12.8,12.8,0,0,0-2.68,5.54h-5.34a1.51,1.51,0,0,1-.31,0H274a1.36,1.36,0,0,1-.35-.07,1.05,1.05,0,0,1-.38-.12l-.27-.15a.62.62,0,0,1-.25-.17,2.5,2.5,0,0,1-.89-1.57,2.09,2.09,0,0,1-.05-.46V307.86a2.5,2.5,0,0,1,1.27-2.2h0l.23-.13.56-.24.73-.3,1.17-.49c1.53-.66,3.56-1.5,5.58-2.36l8.11-3.45a2.53,2.53,0,0,0,1.41-1.52l1.2-3.51,5.87-16.94a1.9,1.9,0,0,1,1.25-.74,3.18,3.18,0,0,1,.79-.09h46a3.18,3.18,0,0,1,.79.09,1.9,1.9,0,0,1,1.25.74l5.87,16.94,1.21,3.51a2.47,2.47,0,0,0,1.41,1.52l8.1,3.45,5.59,2.36,1.17.49.73.3.55.24.24.13h0a2.5,2.5,0,0,1,1.27,2.2Z"/></svg>