<svg id="Layer_1" data-name="Layer 1" xmlns="http://www.w3.org/2000/svg" viewBox="0 0 500 500"><defs><style>.cls-1,.cls-2{fill:#2d98d4;}.cls-1{opacity:0.19;}</style></defs><circle class="cls-1" cx="250" cy="250" r="167.19"/><path class="cls-2" d="M250,50C139.54,50,50,139.54,50,250s89.54,200,200,200,200-89.53,200-200S360.47,50,250,50Zm0,385.49C147.55,435.49,64.51,352.44,64.51,250A185.48,185.48,0,0,1,250,64.51c102.44,0,185.49,83,185.49,185.49S352.44,435.49,250,435.49Z"/><path class="cls-2" d="M368.66,307.72V267.28a16.13,16.13,0,0,0-5.88-12.48,17,17,0,0,0-3-1.94c-.93-.5-.43-.3-.73-.43s-.7-.2-1.17-.44c-1-.4-2.44-1.07-4.07-1.77-3.27-1.37-7.52-3.14-11.79-5-7.48-3.14-13.12-5.55-14.93-6.31l-3.33-9.72L313,198a12.22,12.22,0,0,0-4.07-5.71,17.25,17.25,0,0,0-10.42-3.27H269.88l-25.77-46.82a9.55,9.55,0,0,0-16.87,0l-25.78,46.82h-54a16.18,16.18,0,0,0-11.12,4.47,16,16,0,0,0-5.08,11.69V307.72a14,14,0,0,0,.1,1.71h0a16.22,16.22,0,0,0,16.07,14.49h11.38a15.67,15.67,0,0,0,.44,1.73,26.9,26.9,0,0,0,52.32-1.73h76.74a15.6,15.6,0,0,0,.43,1.73,26.9,26.9,0,0,0,52.33-1.73s16.79-.07,17.69,0h0C363.51,322.68,369.63,320.11,368.66,307.72ZM235.79,147l23.14,42.08,5.95,10.78,38.4,69.79a.56.56,0,0,1,0,.44l.73.4-.83-.3-135.11-.1a.56.56,0,0,1,0-.44l38.54-69.79,5.94-10.78Zm-35.7,178a16.22,16.22,0,0,1-14.89,9.75,15.53,15.53,0,0,1-2.5-.2,16.08,16.08,0,0,1-13.56-14.26,10.32,10.32,0,0,1-.13-1.77,16.1,16.1,0,0,1,16.19-16.16h.8a16.56,16.56,0,0,1,9.49,3.64,7.19,7.19,0,0,1,.76.73,15.94,15.94,0,0,1,5.15,11.79A16.44,16.44,0,0,1,200.09,325Zm129.43.1a16.18,16.18,0,0,1-30.89-4.81,10.32,10.32,0,0,1-.13-1.77A16.21,16.21,0,0,1,325,306a6.3,6.3,0,0,1,.83.76,15.83,15.83,0,0,1,5.08,11.76A16.68,16.68,0,0,1,329.52,325.09Zm28.35-17.37a3.08,3.08,0,0,1-.13,1,5.11,5.11,0,0,1-4.64,4.38,2.18,2.18,0,0,1-.64.06H341.08a27.4,27.4,0,0,0-4.88-10.78,14.85,14.85,0,0,0-1.34-1.61,29.06,29.06,0,0,0-5.51-4.81,26.42,26.42,0,0,0-14.62-4.37,21.78,21.78,0,0,0-3.24.23c-.43.07-.93.1-1.4.2a26.34,26.34,0,0,0-10,3.94,27.76,27.76,0,0,0-6.05,5.45s0,0,0,.06a24.27,24.27,0,0,0-3.44,5.31,20.47,20.47,0,0,0-1.57,4,16.89,16.89,0,0,0-.63,2.4H211.58a26.83,26.83,0,0,0-4.87-10.78,14.85,14.85,0,0,0-1.34-1.61,29.37,29.37,0,0,0-5.51-4.81,26.57,26.57,0,0,0-8-3.5,26,26,0,0,0-6.71-.87,20.87,20.87,0,0,0-3.2.23c-.37.07-.77.1-1.14.14a26.86,26.86,0,0,0-16.36,9.45s0,0,0,.06a26.81,26.81,0,0,0-5.65,11.69H147.44a5.28,5.28,0,0,1-5.41-5.41V205.21a5.28,5.28,0,0,1,5.41-5.38h48.08l-35.8,65a10.29,10.29,0,0,0,0,9.92,9.56,9.56,0,0,0,8.45,5.07h135a9.5,9.5,0,0,0,8.44-5.07,10.08,10.08,0,0,0,0-9.92l-35.79-65H298.5a6.71,6.71,0,0,1,1.67.2,4.27,4.27,0,0,1,2.64,1.57l12.35,35.73,2.57,7.42a5.35,5.35,0,0,0,3,3.2s8.51,3.61,17.09,7.28l11.79,4.94c.94.37,1.74.77,2.47,1l1.5.67c.51.2.94.4,1.17.46s.4.2.54.3h-.07a5.21,5.21,0,0,1,2.67,4.64Z"/><path class="cls-2" d="M235.68,238.28a5,5,0,1,0,4.86,5A5,5,0,0,0,235.68,238.28Z"/><path class="cls-2" d="M234.36,232.15a3.4,3.4,0,0,0,2.63,0,3.54,3.54,0,0,0,2.21-3.3l1.33-22.52c0-.13,0-.28,0-.5a4.86,4.86,0,1,0-9.72-.08l0,.38,1.35,22.64A3.6,3.6,0,0,0,234.36,232.15Z"/></svg>