<svg id="Layer_1" data-name="Layer 1" xmlns="http://www.w3.org/2000/svg" viewBox="0 0 500 500"><defs><style>.cls-1,.cls-2{fill:#2d98d4;}.cls-1{opacity:0.19;}</style></defs><circle class="cls-1" cx="250" cy="250" r="167.19"/><path class="cls-2" d="M250,50C139.54,50,50,139.54,50,250s89.54,200,200,200,200-89.53,200-200S360.47,50,250,50Zm0,385.49C147.55,435.49,64.51,352.44,64.51,250A185.48,185.48,0,0,1,250,64.51c102.44,0,185.49,83,185.49,185.49S352.44,435.49,250,435.49Z"/><path class="cls-2" d="M372.57,291.2H127.43V208.8H372.57ZM136.2,282.43H363.8V217.57H136.2Z"/><path class="cls-2" d="M171.56,231.83q1,1.72,2.19,4.28t2.59,5.52c.89,2,1.78,4,2.66,6.08l2.48,5.84,2.48-5.84c.88-2.07,1.77-4.09,2.66-6.08s1.76-3.82,2.59-5.52,1.55-3.13,2.19-4.28h7.47q.52,3.61,1,8.12t.79,9.37q.35,4.86.63,9.75t.5,9.21h-8q-.15-5.31-.42-11.57t-.79-12.63c-.63,1.47-1.33,3.11-2.11,4.89s-1.54,3.58-2.29,5.37L186,259.47c-.71,1.63-1.3,3-1.8,4.18h-5.73c-.49-1.16-1.09-2.55-1.8-4.18l-2.19-5.13c-.75-1.79-1.52-3.58-2.29-5.37L170,244.08q-.53,6.36-.79,12.63t-.42,11.57h-8q.21-4.3.5-9.21c.2-3.26.4-6.51.63-9.75s.49-6.37.79-9.37.62-5.71,1-8.12Z"/><path class="cls-2" d="M233.53,268.28c-.41-1.27-.84-2.57-1.31-3.9s-.93-2.67-1.39-4H216.59c-.46,1.33-.92,2.66-1.39,4s-.89,2.63-1.29,3.89h-8.52q2.06-5.89,3.91-10.89t3.61-9.42q1.77-4.41,3.48-8.39c1.15-2.64,2.33-5.23,3.56-7.75h7.78c1.2,2.52,2.38,5.11,3.54,7.75s2.34,5.45,3.52,8.39,2.39,6.09,3.62,9.42,2.54,7,3.91,10.89Zm-9.86-28.2c-.18.53-.45,1.25-.8,2.17s-.76,2-1.21,3.15-.95,2.51-1.51,3.95-1.12,2.94-1.69,4.52h10.42c-.56-1.58-1.1-3.1-1.62-4.54s-1-2.75-1.49-4l-1.24-3.15C224.18,241.31,223.89,240.6,223.67,240.08Z"/><path class="cls-2" d="M268.49,268.28q-1.11-1.78-2.61-3.85t-3.24-4.16q-1.74-2.1-3.64-4a38.7,38.7,0,0,0-3.79-3.4v15.44H247V231.83h8.21v13.69q3.16-3.32,6.43-7c2.17-2.42,4.19-4.67,6-6.74h9.74q-3.72,4.42-7.49,8.52T262,248.58a62.14,62.14,0,0,1,8.44,8.66,107,107,0,0,1,7.82,11Z"/><path class="cls-2" d="M283,268.28V231.83H307.6v6.88H291.19v7.16h14.57v6.73H291.19v8.79h17.62v6.89Z"/><path class="cls-2" d="M324.81,262a11.94,11.94,0,0,0,2.86-.29,5.12,5.12,0,0,0,1.82-.79,2.63,2.63,0,0,0,.94-1.18,4.17,4.17,0,0,0,.27-1.53,3.53,3.53,0,0,0-1.68-3,24.24,24.24,0,0,0-5.79-2.55c-1.19-.42-2.39-.9-3.58-1.45a13.31,13.31,0,0,1-3.21-2,9.56,9.56,0,0,1-2.31-3,9.31,9.31,0,0,1-.9-4.28,10.66,10.66,0,0,1,.95-4.56,9.67,9.67,0,0,1,2.68-3.44,12.09,12.09,0,0,1,4.21-2.18,18.86,18.86,0,0,1,5.58-.77,22.25,22.25,0,0,1,10.78,2.53L335.06,240a22.15,22.15,0,0,0-3.39-1.4,14.77,14.77,0,0,0-4.5-.6,8.29,8.29,0,0,0-4.23.81,2.76,2.76,0,0,0-1.29,2.5,3,3,0,0,0,.47,1.69,4.87,4.87,0,0,0,1.34,1.23,12,12,0,0,0,2,1c.76.3,1.59.61,2.5.92,1.9.7,3.54,1.4,5,2.08a13.24,13.24,0,0,1,3.5,2.4,8.71,8.71,0,0,1,2.07,3.2,12.82,12.82,0,0,1,.69,4.48,9.46,9.46,0,0,1-3.58,7.91Q332,269,324.81,269a30.29,30.29,0,0,1-4.37-.29A29.71,29.71,0,0,1,317,268a20.14,20.14,0,0,1-4.39-1.79l2.32-6.52a20.48,20.48,0,0,0,4,1.6A21,21,0,0,0,324.81,262Z"/></svg>